<svg width="49" height="40" viewBox="0 0 49 40" fill="none" xmlns="http://www.w3.org/2000/svg">
<path d="M48.4954 14.2046C48.4954 22.0788 40.5908 28.4467 30.807 28.4467C29.8467 28.4467 28.8909 28.367 27.9306 28.245C25.2942 31.0042 21.2218 32.3416 16.6324 32.7076C18.5115 30.7602 19.869 28.0009 20.2661 25.6077C15.9536 23.0502 13.1187 18.916 13.1187 14.2046C13.1233 6.37259 21.0279 0 30.8117 0C40.5954 0 48.5 6.37259 48.5 14.2046H48.4954ZM9.90977 10.3332C10.173 10.3332 10.3253 10.1549 10.3253 9.91084C10.3253 9.66682 10.173 9.39465 9.90977 9.39465C8.01212 9.39465 6.27145 10.244 5.03867 11.5016C3.63043 12.9329 2.8132 14.9507 2.8132 17.1234C2.8132 17.3721 2.96556 17.6396 3.23336 17.6396C3.47345 17.6396 3.71816 17.3721 3.71816 17.1234C3.71816 15.1994 4.46614 13.4303 5.70354 12.1727C6.78396 10.9855 8.26145 10.3379 9.91439 10.3379L9.90977 10.3332ZM8.76472 7.9587C9.00481 7.9587 9.18026 7.80385 9.18026 7.55514C9.18026 7.30643 9.00481 7.03895 8.76472 7.03895C6.53925 7.03895 4.55387 7.9587 3.14563 9.47912C1.49269 11.0699 0.5 13.4209 0.5 16.0441C0.5 16.2881 0.744709 16.4477 0.984802 16.4477C1.24798 16.4477 1.40496 16.2881 1.40496 16.0441C1.40496 13.6931 2.30993 11.5861 3.71816 10.1549C5.03867 8.80807 6.86706 7.9587 8.76472 7.9587ZM11.4981 12.2618C11.4981 12.0131 11.3226 11.7457 11.0779 11.7457C9.5127 11.7457 8.01674 12.4167 6.93632 13.5148C5.79127 14.702 5.04329 16.3585 5.04329 18.306C5.04329 18.5547 5.288 18.733 5.55117 18.733C5.79588 18.733 5.94825 18.5547 5.94825 18.306C5.94825 16.626 6.61312 15.1947 7.60119 14.1858C8.52462 13.2661 9.76202 12.6842 11.0825 12.6842C11.3272 12.6842 11.5027 12.5059 11.5027 12.2618H11.4981ZM21.1433 32.9564V36.9076H9.30031V17.9165H12.3569C12.0706 17.0624 11.8813 16.1802 11.7936 15.2651H9.80358C8.89861 15.2651 8.15063 16.0206 8.15063 16.9451V38.32C8.15063 39.2398 8.894 40 9.80358 40H20.6401C21.545 40 22.2791 39.2445 22.2791 38.32V33.0221C22.2191 33.0221 22.1453 33.0361 22.0806 33.0361C21.7574 33.0361 21.4481 33.0127 21.1387 32.9611L21.1433 32.9564Z" fill="white"/>
<path d="M19.5069 9.82833C19.7493 9.58189 20.0369 9.46154 20.3753 9.46154H21.6215C22.3432 9.46154 22.7549 9.88564 22.8508 10.7281H24.08C23.9898 9.0489 23.1722 8.21216 21.6215 8.21216H19.146C18.4524 8.21216 17.8659 8.4586 17.3866 8.9572C16.9073 9.45581 16.6705 10.0461 16.6705 10.7281V16.998C16.6705 17.6914 16.9129 18.2817 17.4035 18.7746C17.8941 19.2675 18.4749 19.5139 19.146 19.5139H21.6215C23.1609 19.5139 23.9842 18.6772 24.08 16.998H22.8508C22.7605 17.8404 22.3489 18.2645 21.6215 18.2645H20.3753C20.0369 18.2645 19.7493 18.1385 19.5069 17.8863C19.2644 17.6341 19.146 17.3361 19.146 16.998V10.7281C19.146 10.3785 19.2644 10.0805 19.5069 9.83406V9.82833Z" fill="#3366A2"/>
<path d="M31.5074 10.7224H29.0319C27.5771 10.7224 26.7538 11.5592 26.5564 13.2212H27.8026C27.8928 12.3844 28.2989 11.9718 29.0319 11.9718H30.2612C30.6052 11.9718 30.8984 12.0921 31.1409 12.3386C31.3834 12.585 31.5018 12.8773 31.5018 13.2212V14.4878H29.0263C28.3552 14.4878 27.7744 14.7342 27.2838 15.2271C26.7933 15.7199 26.5508 16.3045 26.5508 16.9923C26.5508 17.68 26.7933 18.276 27.2838 18.7689C27.7744 19.2618 28.3552 19.5082 29.0263 19.5082H30.2556C30.9886 19.5082 31.4003 19.0898 31.5018 18.2588V19.5082H33.9603V13.2269C33.9603 12.5449 33.7179 11.9546 33.2329 11.4617C32.748 10.9689 32.1728 10.7224 31.4961 10.7224H31.5074ZM31.5074 16.9923C31.5074 17.3361 31.389 17.6284 31.1465 17.8806C30.904 18.1327 30.6108 18.2588 30.2668 18.2588C29.9229 18.2588 29.6409 18.1327 29.3984 17.8806C29.156 17.6284 29.0376 17.3304 29.0376 16.9923C29.0376 16.6541 29.156 16.3561 29.3984 16.1097C29.6409 15.8632 29.9285 15.7429 30.2668 15.7429H31.5131V16.9923H31.5074Z" fill="#3366A2"/>
<path d="M38.9236 8.2063H36.4481V19.5081H38.9236V8.2063Z" fill="#3366A2"/>
<path d="M43.8576 8.2063H41.3821V19.5081H43.8576V8.2063Z" fill="#3366A2"/>
</svg>
