<svg width="1952" height="516" viewBox="0 0 1952 516" fill="none" xmlns="http://www.w3.org/2000/svg">
<path d="M496.528 267.661C496.478 267.228 496.418 266.79 496.328 266.363C496.28 266.124 496.23 265.854 496.101 265.645C495.867 265.263 495.158 265.19 494.766 265.107C494.734 265.099 494.702 265.096 494.665 265.088C494.782 260.625 494.844 256.128 494.101 251.711C493.766 249.723 493.26 247.759 492.557 245.869C492.67 245.734 492.626 245.49 492.423 245.497C492.408 245.452 492.393 245.412 492.378 245.367C491.659 243.554 490.672 241.873 489.081 240.7C487.638 239.635 485.915 239.037 484.192 238.593C482.082 238.048 479.921 237.65 477.779 237.251C473.179 236.391 468.545 235.708 463.897 235.176C462.082 234.97 460.268 234.792 458.451 234.632C458.451 234.628 458.45 234.623 458.45 234.619C457.032 231.346 455.776 228.006 454.439 224.704C452.537 220.024 450.59 215.355 448.429 210.783C447.481 208.779 446.494 206.784 445.395 204.857C444.618 203.495 443.785 202.099 442.702 200.95C442.374 200.603 442 200.256 441.555 200.058C440.828 199.732 439.933 199.647 439.158 199.504C436.929 199.089 434.669 198.826 432.41 198.634C426.894 198.161 421.341 198.101 415.806 198.186C410.068 198.277 404.331 198.558 398.608 198.993C394.033 199.342 389.452 199.768 384.91 200.442C383.485 200.655 382.051 200.882 380.648 201.211C379.541 201.473 378.489 201.887 377.457 202.355C373.03 204.366 368.98 207.381 365.946 211.193C363.842 213.843 362.31 216.85 361.311 220.081C360.173 223.765 359.787 227.597 359.464 231.423C359.299 233.372 359.139 235.326 358.91 237.272C358.643 237.285 358.381 237.303 358.114 237.316C358.064 237.317 358.029 237.337 357.993 237.36C357.989 237.36 357.984 237.361 357.98 237.361C354.793 238.327 351.5 238.962 348.246 239.649C344.42 240.459 340.58 241.247 336.79 242.214C335.253 242.607 333.712 243.028 332.215 243.556C331.314 243.874 330.438 244.251 329.557 244.623C328.399 245.113 327.246 245.612 326.107 246.146C324.424 246.938 322.697 247.786 321.258 248.987C320.781 249.383 320.333 249.836 320.019 250.372C319.491 251.277 319.314 252.415 319.16 253.435C318.448 258.148 318.292 262.924 318.012 267.678C317.97 268.363 317.928 269.044 317.886 269.73C317.887 269.752 317.888 269.775 317.897 269.793C316.591 269.889 315.332 270.209 314.451 271.302C314.085 271.753 313.783 272.239 313.624 272.797C313.477 273.304 313.422 273.841 313.397 274.367C313.339 275.538 313.454 276.722 313.645 277.876C313.723 278.335 313.809 278.79 313.932 279.24C313.999 279.482 314.067 279.775 314.219 279.978C314.342 280.142 314.551 280.167 314.742 280.197C315.106 280.254 315.479 280.287 315.847 280.312C318.354 280.504 320.915 280.523 323.423 280.308C323.726 280.28 324.029 280.252 324.331 280.211C324.606 280.175 324.969 280.173 325.218 280.038C325.57 279.845 325.559 279.347 325.607 278.997C325.618 278.915 325.629 278.828 325.64 278.742C331.018 278.581 336.401 278.419 341.779 278.254C343.259 278.207 344.744 278.16 346.224 278.117C346.654 287.815 354.825 295.418 364.553 295.11C374.281 294.802 381.933 286.72 381.771 277.032C384.496 276.946 387.217 276.864 389.942 276.783C393.745 276.662 397.548 276.546 401.346 276.431C405.492 276.299 409.639 276.173 413.786 276.046C417.652 275.923 421.523 275.805 425.389 275.687C428.345 275.594 431.296 275.5 434.253 275.416C434.524 275.407 434.791 275.399 435.063 275.39C435.077 275.39 435.086 275.385 435.099 275.38C435.564 285.044 443.72 292.607 453.425 292.3C463.131 291.993 470.77 283.948 470.646 274.295C470.659 274.295 470.669 274.303 470.682 274.303C473.878 274.202 477.075 274.114 480.271 274.022C481.547 273.981 482.824 273.946 484.105 273.905C484.11 273.905 484.114 273.905 484.119 273.905C484.164 274.483 484.212 275.121 484.477 275.638C484.497 275.678 484.525 275.7 484.552 275.717C484.573 275.811 484.644 275.891 484.766 275.887C487.625 275.873 490.489 275.873 493.343 275.701C494.003 275.662 494.663 275.614 495.322 275.534C495.629 275.498 495.959 275.451 496.196 275.23C496.425 275.015 496.488 274.709 496.542 274.408C496.729 273.319 496.757 272.199 496.745 271.098C496.736 269.948 496.672 268.794 496.536 267.652L496.528 267.661Z" fill="white"/>
<path d="M359.44 236.405C359.874 232.793 359.994 229.141 360.528 225.54C361.062 221.939 362.062 218.463 363.775 215.296C366.377 210.478 370.529 206.635 375.279 203.974C376.642 203.211 378.066 202.522 379.54 202.009C380.553 201.659 381.621 201.458 382.675 201.271C386.64 200.556 390.669 200.147 394.682 199.785C400.122 199.291 405.576 198.955 411.035 198.773C416.648 198.581 422.271 198.539 427.884 198.801C430.353 198.918 432.824 199.093 435.28 199.387C436.363 199.516 437.441 199.668 438.512 199.856C439.405 200.013 440.365 200.137 441.231 200.427C442.229 200.758 442.982 201.925 443.552 202.737C444.639 204.288 445.548 205.968 446.417 207.649C448.681 212.027 450.628 216.565 452.53 221.108C454.119 224.914 455.632 228.75 457.194 232.566C457.41 233.094 457.626 233.621 457.855 234.144C457.968 234.408 458.403 234.277 458.286 234.008C456.863 230.718 455.588 227.36 454.232 224.041C452.326 219.384 450.371 214.742 448.198 210.207C447.252 208.239 446.27 206.28 445.154 204.403C444.398 203.122 443.58 201.78 442.496 200.74C441.412 199.7 439.983 199.651 438.625 199.413C436.356 199.018 434.064 198.769 431.77 198.587C426.255 198.15 420.725 198.103 415.204 198.201C409.512 198.304 403.82 198.589 398.143 199.032C393.649 199.382 389.154 199.806 384.694 200.477C383.296 200.689 381.893 200.91 380.522 201.244C379.416 201.514 378.36 201.942 377.328 202.414C372.902 204.444 368.852 207.49 365.838 211.329C363.769 213.964 362.281 216.938 361.281 220.128C360.215 223.524 359.833 227.044 359.541 230.574C359.384 232.482 359.227 234.39 358.997 236.292C358.961 236.578 359.404 236.687 359.436 236.4L359.44 236.405Z" fill="#6DB4BA" stroke="#6DB4BA" stroke-width="0.5"/>
<path d="M376.341 236.632C385.569 235.987 394.795 235.282 404.031 234.722C413.235 234.168 422.452 233.754 431.676 233.693C440.9 233.632 449.945 233.916 459.039 234.752C463.675 235.176 468.297 235.746 472.892 236.484C475.151 236.847 477.402 237.247 479.651 237.693C481.63 238.088 483.644 238.45 485.563 239.083C487.482 239.715 489.22 240.68 490.422 242.286C491.7 244 492.389 246.153 492.943 248.188C494.113 252.501 494.314 256.99 494.269 261.437C494.258 262.534 494.229 263.631 494.201 264.729C494.192 265.019 494.645 265.005 494.653 264.715C494.77 260.247 494.832 255.746 494.089 251.324C493.726 249.16 493.169 247.021 492.361 244.98C491.642 243.168 490.655 241.486 489.064 240.313C487.621 239.248 485.898 238.651 484.176 238.207C482.065 237.662 479.904 237.263 477.762 236.864C473.162 236.004 468.528 235.322 463.88 234.789C454.679 233.739 445.416 233.289 436.161 233.234C426.906 233.178 417.356 233.516 407.97 234.036C398.583 234.555 389.207 235.255 379.826 235.924C378.659 236.006 377.493 236.088 376.326 236.171C376.037 236.189 376.051 236.642 376.34 236.623L376.341 236.632Z" fill="#6DB4BA" stroke="#6DB4BA" stroke-width="0.5"/>
<path d="M358.124 237.776C360.07 237.674 362.015 237.562 363.955 237.446C364.244 237.428 364.23 236.976 363.941 236.994C361.996 237.11 360.055 237.221 358.11 237.323C357.82 237.337 357.835 237.79 358.124 237.776Z" fill="#6DB4BA" stroke="#6DB4BA" stroke-width="0.5"/>
<path d="M357.117 237.591C353.93 238.558 350.638 239.192 347.383 239.88C343.557 240.69 339.717 241.478 335.927 242.445C334.39 242.838 332.849 243.259 331.352 243.786C330.452 244.105 329.575 244.481 328.694 244.854C327.536 245.344 326.383 245.842 325.244 246.377C323.561 247.169 321.834 248.016 320.395 249.218C319.918 249.613 319.47 250.067 319.157 250.603C318.628 251.508 318.451 252.646 318.297 253.666C317.586 258.378 317.429 263.155 317.149 267.908C317.107 268.594 317.065 269.275 317.024 269.961C317.006 270.251 317.458 270.237 317.476 269.946C317.787 265.151 317.924 260.334 318.503 255.563C318.654 254.321 318.786 253.057 319.146 251.854C319.351 251.158 319.637 250.596 320.141 250.073C321.295 248.872 322.873 248.061 324.345 247.321C326.446 246.266 328.623 245.318 330.817 244.474C332.209 243.936 333.651 243.523 335.093 243.138C338.796 242.15 342.55 241.374 346.3 240.58C349.667 239.867 353.053 239.206 356.373 238.286C356.67 238.204 356.961 238.118 357.258 238.031C357.554 237.945 357.404 237.514 357.122 237.6L357.117 237.591Z" fill="#6DB4BA" stroke="#6DB4BA" stroke-width="0.5"/>
<path d="M324.913 269.673C322.884 269.701 320.859 269.728 318.83 269.761C317.204 269.79 315.537 269.96 314.447 271.309C314.081 271.76 313.779 272.246 313.62 272.803C313.473 273.311 313.417 273.848 313.393 274.374C313.335 275.545 313.45 276.728 313.64 277.883C313.718 278.342 313.805 278.797 313.928 279.246C313.995 279.489 314.063 279.781 314.219 279.985C314.342 280.149 314.551 280.174 314.743 280.204C315.107 280.26 315.479 280.294 315.847 280.319C318.355 280.511 320.916 280.53 323.424 280.314C323.726 280.286 324.029 280.259 324.331 280.217C324.607 280.182 324.969 280.179 325.219 280.044C325.571 279.852 325.559 279.354 325.607 279.003C325.678 278.516 325.739 278.025 325.792 277.534C325.993 275.588 326.035 273.625 325.905 271.671C325.871 271.178 325.829 270.686 325.777 270.198C325.745 269.909 325.292 269.923 325.324 270.212C325.523 272.05 325.577 273.897 325.481 275.74C325.434 276.671 325.35 277.598 325.225 278.517C325.195 278.736 325.166 278.949 325.132 279.168C325.117 279.268 325.112 279.382 325.083 279.478C325.025 279.661 324.949 279.672 324.791 279.7C324.529 279.744 324.263 279.776 324.001 279.807C321.581 280.073 319.115 280.052 316.687 279.92C316.006 279.883 315.298 279.865 314.627 279.718C314.577 279.706 314.541 279.712 314.582 279.706C314.582 279.706 314.601 279.733 314.596 279.719C314.566 279.63 314.524 279.586 314.488 279.478C314.369 279.142 314.29 278.791 314.216 278.444C314.001 277.404 313.877 276.343 313.852 275.279C313.832 274.342 313.829 273.245 314.273 272.388C314.606 271.748 315.113 271.143 315.745 270.783C316.435 270.39 317.251 270.278 318.034 270.235C319.861 270.132 321.702 270.168 323.532 270.142L324.945 270.12C325.235 270.115 325.221 269.663 324.931 269.667L324.913 269.673Z" fill="#6DB4BA" stroke="#6DB4BA" stroke-width="0.5"/>
<path d="M470.678 274.311C473.874 274.21 477.071 274.122 480.267 274.03C481.543 273.99 482.82 273.954 484.101 273.913C484.391 273.904 484.377 273.451 484.087 273.46C480.882 273.562 477.676 273.65 474.476 273.742C473.208 273.782 471.936 273.818 470.668 273.858C470.379 273.867 470.393 274.32 470.683 274.311L470.678 274.311Z" fill="#6DB4BA" stroke="#6DB4BA" stroke-width="0.5"/>
<path d="M381.545 277.056C384.343 276.967 387.141 276.883 389.938 276.799C393.741 276.679 397.544 276.563 401.342 276.447C405.489 276.316 409.635 276.189 413.782 276.062C417.648 275.94 421.519 275.822 425.385 275.704C428.341 275.61 431.293 275.517 434.249 275.432C434.521 275.424 434.788 275.415 435.059 275.407C435.349 275.397 435.335 274.945 435.045 274.954C432.247 275.042 429.449 275.127 426.652 275.211C422.849 275.331 419.046 275.447 415.248 275.563C411.101 275.694 406.955 275.821 402.808 275.948C398.942 276.07 395.071 276.188 391.205 276.306C388.249 276.4 385.298 276.493 382.341 276.578C382.07 276.586 381.802 276.595 381.531 276.603C381.241 276.612 381.255 277.065 381.545 277.056Z" fill="#6DB4BA" stroke="#6DB4BA" stroke-width="0.5"/>
<path d="M325.332 278.765C330.262 278.614 335.197 278.466 340.127 278.319C341.603 278.273 343.083 278.226 344.559 278.183C344.849 278.174 344.834 277.722 344.544 277.731C339.619 277.882 334.698 278.029 329.772 278.176C328.288 278.223 326.803 278.27 325.318 278.312C325.028 278.322 325.042 278.774 325.332 278.765Z" fill="#6DB4BA" stroke="#6DB4BA" stroke-width="0.5"/>
<path d="M484.666 264.694C484.471 265.126 484.424 265.64 484.361 266.104C484.255 266.905 484.19 267.713 484.139 268.517C484.027 270.274 483.97 272.052 484.107 273.806C484.153 274.407 484.193 275.095 484.473 275.643C484.608 275.902 484.99 275.659 484.855 275.405C484.653 275.012 484.611 274.411 484.569 273.946C484.498 273.141 484.482 272.335 484.483 271.529C484.489 269.843 484.562 268.146 484.763 266.472C484.802 266.144 484.846 265.821 484.909 265.497C484.932 265.374 484.96 265.251 484.988 265.128C485.012 265.045 485.045 264.94 485.058 264.913C485.176 264.646 484.78 264.432 484.661 264.699L484.666 264.694Z" fill="#6DB4BA" stroke="#6DB4BA" stroke-width="0.5"/>
<path d="M485.01 264.854C486.742 264.727 488.509 264.861 490.235 264.997C491.871 265.126 493.565 265.25 495.159 265.666C495.351 265.714 495.521 265.763 495.687 265.853C495.742 265.883 495.677 265.835 495.714 265.875C495.714 265.875 495.705 265.852 495.729 265.906C495.743 265.928 495.788 266.063 495.809 266.139C496.003 266.822 496.066 267.549 496.134 268.25C496.318 270.206 496.424 272.26 496.11 274.209C496.057 274.542 496.028 274.905 495.66 275.035C495.293 275.164 494.839 275.156 494.455 275.195C493.579 275.286 492.698 275.364 491.816 275.424C490.017 275.549 488.215 275.619 486.412 275.626C486.122 275.627 486.136 276.079 486.426 276.079C488.116 276.071 489.809 276.013 491.496 275.901C492.319 275.847 493.146 275.78 493.968 275.7C494.379 275.66 494.79 275.619 495.201 275.57C495.526 275.533 495.874 275.504 496.139 275.291C496.528 274.98 496.55 274.367 496.608 273.908C496.665 273.421 496.699 272.931 496.72 272.441C496.762 271.338 496.732 270.234 496.66 269.135C496.6 268.239 496.522 267.34 496.349 266.462C496.273 266.07 496.209 265.605 495.813 265.418C495.284 265.168 494.652 265.093 494.082 264.997C493.162 264.845 492.235 264.743 491.307 264.65C489.23 264.449 487.085 264.254 485.001 264.411C484.712 264.433 484.726 264.886 485.015 264.863L485.01 264.854Z" fill="#6DB4BA" stroke="#6DB4BA" stroke-width="0.5"/>
<path d="M492.4 245.496C491.331 245.643 490.25 245.85 489.242 246.235C488.812 246.398 488.325 246.59 488.028 246.958C487.78 247.269 487.732 247.62 487.708 248.001C487.615 249.499 487.526 250.997 487.442 252.495C487.364 253.889 487.277 255.288 487.235 256.685C487.223 257.161 487.131 257.966 487.624 258.222C488.057 258.444 488.594 258.536 489.06 258.648C489.973 258.868 490.899 259.056 491.828 259.213C492.685 259.353 493.559 259.484 494.434 259.493C494.724 259.497 494.71 259.044 494.419 259.04C492.91 259.024 491.377 258.701 489.908 258.381C489.31 258.25 488.712 258.115 488.126 257.93C488.058 257.909 487.952 257.876 487.906 257.855C487.87 257.843 487.759 257.769 487.81 257.817C487.885 257.878 487.801 257.804 487.791 257.773C487.761 257.706 487.737 257.643 487.721 257.575C487.685 257.432 487.684 257.278 487.68 257.133C487.677 257.056 487.675 256.974 487.681 256.897C487.727 254.186 487.949 251.464 488.112 248.758C488.13 248.459 488.143 248.155 488.17 247.855C488.211 247.287 488.574 247.017 489.065 246.798C490.115 246.33 491.282 246.107 492.414 245.953C492.699 245.912 492.689 245.46 492.4 245.501L492.4 245.496Z" fill="#6DB4BA" stroke="#6DB4BA" stroke-width="0.5"/>
<path d="M318.803 254.747C320.717 253.794 322.635 252.822 324.671 252.159C325.712 251.823 326.795 251.544 327.883 251.414C328.104 251.389 328.357 251.358 328.543 251.507C328.729 251.655 328.787 251.92 328.84 252.145C328.966 252.708 329.07 253.275 329.165 253.843C329.575 256.209 329.81 258.608 329.872 261.008C329.89 261.56 329.917 262.121 329.875 262.675C329.834 263.229 329.612 263.653 329.099 263.901C328.585 264.148 328.045 264.265 327.524 264.413C326.967 264.575 326.406 264.725 325.844 264.86C323.253 265.486 320.6 265.837 317.938 265.922C317.648 265.931 317.663 266.384 317.953 266.374C320.474 266.295 322.988 265.975 325.449 265.416C326.65 265.143 327.887 264.854 329.042 264.414C329.517 264.232 329.948 263.96 330.155 263.478C330.361 262.995 330.345 262.484 330.343 261.99C330.33 259.421 330.117 256.854 329.701 254.32C329.6 253.703 329.49 253.085 329.367 252.473C329.275 252.023 329.213 251.476 328.831 251.162C328.45 250.848 327.882 250.961 327.422 251.035C326.85 251.125 326.282 251.243 325.721 251.388C323.204 252.038 320.876 253.218 318.56 254.369C318.301 254.5 318.54 254.882 318.799 254.752L318.803 254.747Z" fill="#6DB4BA" stroke="#6DB4BA" stroke-width="0.5"/>
<path d="M324.465 252.101C323.417 256.344 322.802 260.687 322.628 265.052C322.614 265.342 323.067 265.328 323.08 265.037C323.256 260.713 323.867 256.412 324.908 252.21C324.976 251.927 324.538 251.818 324.47 252.101L324.465 252.101Z" fill="#6DB4BA" stroke="#6DB4BA" stroke-width="0.5"/>
<path d="M357.789 239.64C356.331 240.243 354.829 240.731 353.325 241.2C351.445 241.785 349.55 242.325 347.655 242.866C343.712 243.987 339.749 245.069 335.882 246.419C334.187 247.008 332.49 247.642 330.904 248.489C330.645 248.629 330.888 249.011 331.142 248.872C332.528 248.13 334.01 247.566 335.489 247.035C337.326 246.378 339.192 245.798 341.064 245.236C344.974 244.065 348.919 243.016 352.824 241.823C354.543 241.297 356.261 240.758 357.925 240.071C358.194 239.958 358.062 239.527 357.789 239.64Z" fill="#6DB4BA" stroke="#6DB4BA" stroke-width="0.5"/>
<path d="M363.465 236.585C363.371 235.736 363.276 234.888 363.181 234.039C363.149 233.75 362.696 233.764 362.728 234.053C362.823 234.902 362.918 235.751 363.013 236.6C363.045 236.889 363.497 236.874 363.465 236.585Z" fill="#6DB4BA" stroke="#6DB4BA" stroke-width="0.5"/>
<path d="M438.419 202.07C438.552 202.102 438.713 202.187 438.852 202.287C439.033 202.417 439.243 202.619 439.417 202.799C439.932 203.336 440.373 203.943 440.791 204.555C442.05 206.386 443.131 208.346 444.164 210.316C445.461 212.795 446.656 215.326 447.775 217.887C448.903 220.471 449.956 223.093 450.883 225.755C451.66 227.978 452.376 230.244 452.825 232.559C452.869 232.784 452.907 233.009 452.946 233.234C452.991 233.519 453.444 233.509 453.399 233.22C453.032 230.948 452.364 228.726 451.633 226.547C450.728 223.857 449.693 221.211 448.572 218.605C447.451 215.981 446.246 213.39 444.946 210.849C443.879 208.757 442.752 206.681 441.453 204.724C440.997 204.036 440.518 203.363 439.977 202.741C439.643 202.362 439.263 201.943 438.798 201.722C438.711 201.68 438.619 201.646 438.527 201.622C438.245 201.558 438.136 201.997 438.419 202.06L438.419 202.07Z" fill="#6DB4BA" stroke="#6DB4BA" stroke-width="0.5"/>
<path d="M406.33 202.007C410.164 201.727 414 201.383 417.841 201.189C421.424 201.008 425.01 201.039 428.598 201.157C430.725 201.225 432.849 201.321 434.973 201.422C435.263 201.435 435.249 200.982 434.959 200.969C431.265 200.8 427.566 200.632 423.864 200.613C420.161 200.595 416.556 200.808 412.903 201.074C410.706 201.234 408.513 201.394 406.316 201.554C406.027 201.577 406.041 202.03 406.33 202.007Z" fill="#6DB4BA" stroke="#6DB4BA" stroke-width="0.5"/>
<path d="M364.078 230.749C364.302 227.225 364.731 223.75 365.784 220.368C366.327 218.619 366.928 216.847 367.769 215.22C368.563 213.682 369.579 212.267 370.758 211.002C373.106 208.476 376.025 206.626 379.24 205.414C380.1 205.087 380.959 204.752 381.844 204.497C383.142 204.125 384.475 203.875 385.799 203.615C387.956 203.189 390.128 202.944 392.322 202.815C394.515 202.687 396.694 202.65 398.879 202.535C399.431 202.508 399.978 202.473 400.53 202.433C400.819 202.41 400.805 201.957 400.515 201.98C396.067 202.307 391.576 202.168 387.163 202.901C384.639 203.321 382.127 203.84 379.727 204.746C378.249 205.305 376.799 205.894 375.433 206.694C373.921 207.576 372.509 208.64 371.247 209.858C369.985 211.076 368.899 212.411 368.003 213.885C367.043 215.465 366.39 217.185 365.788 218.926C365.22 220.571 364.742 222.249 364.411 223.959C364.08 225.669 363.879 227.474 363.741 229.246C363.702 229.75 363.668 230.259 363.635 230.767C363.617 231.058 364.069 231.044 364.087 230.753L364.078 230.749Z" fill="#6DB4BA" stroke="#6DB4BA" stroke-width="0.5"/>
<path d="M401.374 202.468C401.734 206.558 401.995 210.655 402.103 214.757C402.21 218.859 402.166 222.622 402.009 226.551C401.917 228.919 401.779 231.289 401.614 233.655C401.596 233.946 402.048 233.932 402.066 233.641C402.349 229.545 402.545 225.447 402.597 221.339C402.648 217.232 402.556 213.474 402.336 209.548C402.202 207.178 402.028 204.813 401.817 202.45C401.79 202.161 401.337 202.175 401.364 202.464L401.374 202.468Z" fill="#6DB4BA" stroke="#6DB4BA" stroke-width="0.5"/>
<path d="M404.88 202.021C404.956 206.115 405.027 210.213 405.097 214.307C405.163 218.23 405.228 222.156 405.298 226.078C405.341 228.456 405.381 230.834 405.429 233.211C405.438 233.501 405.886 233.487 405.881 233.197C405.806 229.103 405.735 225.004 405.664 220.91C405.599 216.988 405.534 213.061 405.464 209.139C405.42 206.761 405.381 204.384 405.333 202.006C405.324 201.716 404.876 201.731 404.88 202.021Z" fill="#6DB4BA" stroke="#6DB4BA" stroke-width="0.5"/>
<path d="M442.176 233.549C441.209 229.357 440.26 225.154 439.397 220.94C438.534 216.726 437.831 212.829 437.212 208.747C436.84 206.299 436.513 203.844 436.222 201.383C436.191 201.094 435.733 201.109 435.77 201.398C436.277 205.673 436.901 209.935 437.647 214.176C438.37 218.263 439.201 222.329 440.095 226.383C440.63 228.822 441.188 231.256 441.745 233.685C441.808 233.969 442.244 233.833 442.176 233.549Z" fill="#6DB4BA" stroke="#6DB4BA" stroke-width="0.5"/>
<path d="M437.468 201.798C438.333 206.067 439.256 210.329 440.323 214.55C441.354 218.609 442.523 222.633 443.863 226.596C444.664 228.968 445.526 231.319 446.434 233.656C446.538 233.925 446.973 233.793 446.865 233.52C445.286 229.465 443.86 225.35 442.613 221.175C441.366 217 440.386 213.098 439.464 209.013C438.911 206.57 438.393 204.116 437.899 201.658C437.84 201.374 437.409 201.51 437.468 201.794L437.468 201.798Z" fill="#6DB4BA" stroke="#6DB4BA" stroke-width="0.5"/>
<path d="M365.189 240.927C364.935 239.358 365.029 237.737 365.142 236.166C365.189 235.489 365.253 234.807 365.304 234.13C365.337 233.721 365.324 233.332 365.521 232.959C365.987 232.074 366.97 231.481 367.816 231.019C368.836 230.466 369.933 230.037 371.051 229.711C371.491 229.584 371.94 229.466 372.391 229.393C372.662 229.348 373.013 229.296 373.237 229.348C373.593 229.427 374.001 229.582 374.241 229.869C374.538 230.217 374.572 230.715 374.613 231.148C374.71 232.21 374.771 233.278 374.8 234.346C374.854 236.479 374.777 238.62 374.559 240.743C374.53 240.998 374.502 241.257 374.474 241.512C374.442 241.785 374.458 241.988 374.141 242.025C373.943 242.05 373.744 242.056 373.549 242.071C373.039 242.11 372.528 242.144 372.017 242.179C370.773 242.259 369.524 242.321 368.274 242.333C367.726 242.337 367.177 242.332 366.628 242.295C366.283 242.27 365.902 242.254 365.576 242.124C365.562 242.12 365.502 242.09 365.465 242.069C365.465 242.069 365.451 242.038 365.465 242.078C365.366 241.805 364.931 241.936 365.035 242.214C365.139 242.492 365.459 242.577 365.714 242.636C366.17 242.735 366.642 242.757 367.105 242.774C368.416 242.823 369.733 242.763 371.045 242.69C371.669 242.656 372.289 242.619 372.913 242.572C373.383 242.539 373.937 242.571 374.395 242.443C374.889 242.305 374.883 241.83 374.933 241.402C374.993 240.87 375.049 240.338 375.091 239.802C375.185 238.643 375.244 237.486 375.257 236.326C375.27 235.165 375.248 234.042 375.185 232.902C375.153 232.332 375.112 231.762 375.063 231.193C375.022 230.755 374.98 230.308 374.786 229.91C374.5 229.317 373.781 228.932 373.132 228.889C372.764 228.864 372.386 228.935 372.03 229.005C370.886 229.227 369.765 229.616 368.702 230.089C367.638 230.563 366.51 231.142 365.676 231.998C365.352 232.33 365.069 232.719 364.939 233.168C364.8 233.648 364.831 234.209 364.788 234.709C364.646 236.385 364.5 238.071 364.59 239.754C364.612 240.156 364.651 240.558 364.714 240.955C364.759 241.239 365.212 241.23 365.167 240.941L365.189 240.927Z" fill="#6DB4BA" stroke="#6DB4BA" stroke-width="0.5"/>
<path d="M403.995 239.181C404.279 243.137 404.545 247.093 404.788 251.055C405.032 255.017 405.26 258.934 405.471 262.879C405.592 265.113 405.703 267.348 405.81 269.579C405.824 269.869 406.276 269.854 406.263 269.565C406.074 265.601 405.867 261.643 405.642 257.68C405.416 253.718 405.175 249.801 404.914 245.858C404.766 243.624 404.614 241.395 404.453 239.162C404.43 238.872 403.977 238.887 404 239.176L403.995 239.181Z" fill="#6DB4BA" stroke="#6DB4BA" stroke-width="0.5"/>
<path d="M450.703 237.966C451.272 242.606 451.316 247.304 450.825 251.955C450.793 252.242 451.236 252.35 451.263 252.064C451.758 247.372 451.726 242.637 451.156 237.956C451.12 237.667 450.667 237.682 450.704 237.97L450.703 237.966Z" fill="#6DB4BA" stroke="#6DB4BA" stroke-width="0.5"/>
<path d="M361.079 242.784C360.191 246.528 359.459 250.308 358.891 254.114C358.85 254.401 359.288 254.509 359.329 254.223C359.897 250.416 360.63 246.637 361.517 242.893C361.585 242.61 361.142 242.501 361.079 242.784Z" fill="#6DB4BA" stroke="#6DB4BA" stroke-width="0.5"/>
<path d="M328.566 275.416C332.488 275.351 336.41 275.286 340.332 275.22L343.657 275.165C343.946 275.156 343.932 274.708 343.642 274.712C339.72 274.778 335.798 274.843 331.876 274.908L328.552 274.964C328.262 274.973 328.276 275.421 328.566 275.416Z" fill="#6DB4BA" stroke="#6DB4BA" stroke-width="0.5"/>
<path d="M384.302 273.956C390.518 273.795 396.738 273.589 402.952 273.333C409.165 273.078 415.377 272.781 421.588 272.431C425.089 272.234 428.59 272.023 432.086 271.799C432.375 271.781 432.361 271.328 432.071 271.346C425.862 271.747 419.656 272.098 413.44 272.403C407.228 272.709 401.014 272.969 394.795 273.184C391.291 273.304 387.787 273.406 384.283 273.499C383.993 273.508 384.007 273.961 384.297 273.951L384.302 273.956Z" fill="#6DB4BA" stroke="#6DB4BA" stroke-width="0.5"/>
<path d="M471.991 271.28C475.264 271.313 478.527 271.033 481.748 270.45C482.032 270.401 481.896 269.965 481.612 270.02C478.436 270.591 475.204 270.857 471.977 270.828C471.687 270.823 471.701 271.276 471.991 271.28Z" fill="#6DB4BA" stroke="#6DB4BA" stroke-width="0.5"/>
<path d="M364.538 294.902C374.233 294.595 381.844 286.487 381.537 276.791C381.23 267.096 373.121 259.485 363.426 259.792C353.73 260.099 346.119 268.207 346.426 277.903C346.733 287.599 354.842 295.209 364.538 294.902Z" fill="#9E9E9E"/>
<path d="M453.414 292.089C463.11 291.782 470.721 283.673 470.414 273.977C470.107 264.282 461.998 256.671 452.302 256.978C442.607 257.285 434.996 265.394 435.303 275.089C435.61 284.785 443.719 292.396 453.414 292.089Z" fill="#9E9E9E"/>
<path d="M364.379 289.902C371.312 289.683 376.754 283.884 376.535 276.951C376.315 270.019 370.517 264.576 363.584 264.796C356.651 265.015 351.209 270.814 351.429 277.746C351.648 284.679 357.446 290.122 364.379 289.902Z" fill="white"/>
<path d="M453.219 285.904C459.499 285.705 464.429 280.452 464.23 274.172C464.031 267.892 458.779 262.961 452.498 263.16C446.218 263.359 441.288 268.612 441.487 274.892C441.686 281.172 446.938 286.102 453.219 285.904Z" fill="white"/>
<path d="M357.972 274.192C356.151 277.59 357.429 281.822 360.828 283.643C364.226 285.464 368.457 284.185 370.278 280.787" stroke="#6DB4BA" stroke-width="0.5" stroke-linecap="round" stroke-linejoin="round"/>
<path d="M359.729 285.698C355.198 283.27 353.493 277.629 355.921 273.098C358.349 268.567 363.991 266.862 368.522 269.29" stroke="#6DB4BA" stroke-width="0.5" stroke-linecap="round" stroke-linejoin="round"/>
<path d="M453.263 281.46C457.117 281.338 460.141 278.115 460.019 274.261C459.897 270.408 456.675 267.383 452.821 267.505" stroke="#6DB4BA" stroke-width="0.5" stroke-linecap="round" stroke-linejoin="round"/>
<path d="M462.345 274.184C462.508 279.322 458.475 283.619 453.337 283.782C448.199 283.945 443.902 279.911 443.739 274.773" stroke="#6DB4BA" stroke-width="0.5" stroke-linecap="round" stroke-linejoin="round"/>
<path d="M344.824 269.801C346.794 262.624 354.215 257.141 363.233 256.856C372.251 256.57 379.555 261.287 382.201 268.01" stroke="#6DB4BA" stroke-linecap="round" stroke-linejoin="round"/>
<path d="M433.701 266.987C435.671 259.81 443.092 254.328 452.11 254.042C461.127 253.757 468.432 258.474 471.078 265.196" stroke="#6DB4BA" stroke-linecap="round" stroke-linejoin="round"/>
<path d="M1942.27 159.996C1954.52 175.386 243.889 71.0294 749.209 175.173C1254.53 279.316 1665.19 295.306 1591.4 319.901C1517.62 344.497 695.791 291.15 477.207 294.385C191.551 298.613 43.8765 337.743 9.65512 355.28" stroke="#E5E1E0"/>
</svg>
