<svg width="218" height="74" viewBox="0 0 218 74" fill="none" xmlns="http://www.w3.org/2000/svg">
<path d="M180.648 28.5676C180.227 25.803 180.046 23.0002 179.548 20.2462C179.05 17.4921 178.196 14.846 176.803 12.454C174.685 8.81558 171.401 5.96403 167.684 4.03514C166.618 3.48154 165.507 2.98713 164.361 2.62851C163.574 2.38479 162.748 2.25596 161.933 2.13758C158.868 1.68496 155.761 1.46909 152.668 1.28804C148.474 1.04083 144.273 0.915488 140.072 0.908525C135.753 0.89808 131.431 1.00253 127.122 1.34026C125.227 1.48998 123.332 1.68496 121.451 1.97046C120.622 2.0958 119.797 2.23855 118.978 2.40916C118.295 2.55191 117.56 2.67029 116.902 2.91401C116.143 3.19255 115.592 4.10825 115.174 4.74541C114.377 5.96403 113.718 7.27665 113.091 8.58927C111.458 12.0083 110.072 15.5423 108.72 19.0798C107.591 22.0428 106.522 25.0266 105.414 27.9965C105.261 28.4074 105.108 28.8182 104.944 29.2256C104.864 29.431 104.526 29.3405 104.61 29.1316C105.623 26.569 106.522 23.9577 107.484 21.3743C108.835 17.7498 110.225 14.1357 111.785 10.5982C112.465 9.06279 113.172 7.5343 113.983 6.065C114.534 5.06225 115.129 4.01077 115.937 3.18559C116.745 2.36042 117.843 2.2873 118.881 2.07143C120.615 1.71281 122.371 1.46561 124.13 1.27063C128.358 0.800591 132.608 0.626503 136.854 0.570795C141.232 0.511605 145.614 0.591686 149.989 0.793627C153.452 0.953788 156.917 1.16966 160.362 1.57702C161.442 1.70585 162.525 1.84163 163.588 2.06447C164.445 2.24552 165.267 2.54843 166.071 2.88616C169.523 4.33805 172.71 6.5803 175.121 9.45622C176.775 11.4304 177.991 13.6796 178.837 16.1064C179.739 18.6898 180.119 21.3847 180.429 24.09C180.596 25.5524 180.763 27.0147 180.986 28.4701C181.021 28.6894 180.683 28.7834 180.652 28.5641L180.648 28.5676Z" stroke="white" stroke-width="0.5"/>
<path d="M167.663 29.1559C160.554 28.8844 153.445 28.5675 146.332 28.3621C139.243 28.1602 132.148 28.0662 125.056 28.2437C117.965 28.4213 111.019 28.86 104.049 29.7235C100.496 30.1622 96.9572 30.7123 93.4427 31.3912C91.715 31.7255 89.9943 32.0876 88.2771 32.4845C86.7654 32.8362 85.2258 33.1634 83.7663 33.6961C82.3068 34.2289 80.9937 35.0122 80.1089 36.2761C79.1685 37.6236 78.6913 39.2948 78.3151 40.872C77.5209 44.2145 77.4756 47.6684 77.6184 51.084C77.6533 51.9266 77.702 52.7692 77.7508 53.6118C77.7647 53.8346 77.4164 53.8346 77.4025 53.6118C77.2039 50.1822 77.0472 46.7249 77.5105 43.3093C77.7369 41.638 78.1131 39.9807 78.6843 38.393C79.1928 36.9829 79.9104 35.6668 81.1051 34.7267C82.1884 33.8737 83.4981 33.3723 84.8113 32.9893C86.4205 32.5193 88.0716 32.1607 89.7087 31.8021C93.2232 31.0291 96.7692 30.392 100.329 29.8697C107.376 28.8391 114.485 28.2681 121.598 28C128.71 27.7319 136.06 27.7598 143.287 27.9304C150.515 28.101 157.739 28.4108 164.967 28.6963C165.866 28.7312 166.764 28.766 167.663 28.8008C167.886 28.8078 167.886 29.1559 167.663 29.149V29.1559Z" stroke="white" stroke-width="0.5"/>
<path d="M181.693 29.591C180.196 29.5597 178.698 29.5214 177.204 29.4796C176.981 29.4727 176.981 29.1245 177.204 29.1315C178.701 29.1732 180.196 29.2115 181.693 29.2429C181.916 29.2463 181.916 29.5945 181.693 29.591Z" stroke="white" stroke-width="0.5"/>
<path d="M182.463 29.4273C184.936 30.0923 187.483 30.4997 190.001 30.9488C192.962 31.478 195.933 31.9898 198.869 32.6409C200.06 32.9055 201.255 33.1911 202.419 33.5601C203.119 33.7829 203.801 34.051 204.488 34.3157C205.39 34.6638 206.288 35.019 207.177 35.402C208.49 35.9695 209.838 36.5788 210.973 37.4666C211.35 37.7591 211.705 38.0968 211.959 38.5007C212.388 39.1831 212.551 40.0536 212.694 40.8335C213.356 44.4371 213.593 48.1034 213.924 51.7488C213.972 52.2745 214.021 52.7968 214.07 53.3225C214.091 53.5454 213.742 53.5454 213.722 53.3225C213.366 49.6458 213.143 45.9482 212.583 42.2958C212.436 41.3453 212.304 40.3774 211.997 39.4617C211.823 38.9325 211.59 38.5077 211.189 38.1177C210.273 37.2229 209.04 36.638 207.891 36.1053C206.25 35.3463 204.554 34.6708 202.847 34.0754C201.764 33.6959 200.646 33.4139 199.527 33.1528C196.657 32.4843 193.752 31.9794 190.851 31.4606C188.245 30.9941 185.626 30.5693 183.052 29.9426C182.822 29.8869 182.596 29.8277 182.366 29.7685C182.136 29.7093 182.24 29.3751 182.46 29.4342L182.463 29.4273Z" stroke="white" stroke-width="0.5"/>
<path d="M207.999 53.2914C209.559 53.2635 211.116 53.2356 212.677 53.2113C213.927 53.1939 215.212 53.2844 216.083 54.2941C216.376 54.6318 216.62 54.9974 216.755 55.4222C216.881 55.8087 216.937 56.2195 216.968 56.6234C217.041 57.5217 216.982 58.4339 216.863 59.3252C216.815 59.6804 216.759 60.032 216.675 60.3802C216.63 60.5682 216.585 60.7945 216.47 60.9547C216.379 61.0835 216.219 61.1079 216.073 61.1357C215.794 61.188 215.508 61.2228 215.226 61.2506C213.304 61.4595 211.336 61.5361 209.402 61.4317C209.169 61.4178 208.936 61.4038 208.702 61.3795C208.49 61.3586 208.211 61.3655 208.016 61.268C207.741 61.1288 207.737 60.7458 207.692 60.4777C207.626 60.1051 207.567 59.7291 207.514 59.3531C207.312 57.8629 207.232 56.3553 207.285 54.8512C207.299 54.4717 207.319 54.0922 207.347 53.7161C207.365 53.4933 207.713 53.4933 207.696 53.7161C207.588 55.1332 207.591 56.5538 207.71 57.9673C207.769 58.6811 207.856 59.3914 207.974 60.0947C208.002 60.2618 208.03 60.4255 208.061 60.5926C208.075 60.6692 208.082 60.7562 208.107 60.8293C208.155 60.9686 208.215 60.9756 208.337 60.993C208.539 61.0208 208.744 61.0383 208.946 61.0557C210.813 61.2019 212.708 61.1253 214.571 60.9651C215.094 60.9199 215.637 60.8885 216.149 60.7597C216.188 60.7493 216.216 60.7527 216.184 60.7493C216.184 60.7493 216.17 60.7702 216.174 60.7597C216.195 60.6901 216.226 60.6553 216.25 60.5717C216.334 60.3106 216.386 60.039 216.435 59.7709C216.574 58.9666 216.644 58.1484 216.637 57.3302C216.63 56.6095 216.606 55.7669 216.243 55.1193C215.972 54.6353 215.568 54.1827 215.073 53.9216C214.533 53.636 213.903 53.5699 213.3 53.556C211.893 53.5211 210.479 53.5943 209.071 53.6186L207.985 53.6361C207.762 53.6395 207.762 53.2914 207.985 53.2879L207.999 53.2914Z" stroke="white" stroke-width="0.5"/>
<path d="M96.0656 60.4014C93.6064 60.4014 91.1473 60.4118 88.6881 60.4188C87.7059 60.4188 86.7236 60.4223 85.7379 60.4223C85.5149 60.4223 85.5149 60.0741 85.7379 60.0741C88.204 60.0741 90.6701 60.0637 93.1327 60.0567C94.108 60.0567 95.0868 60.0532 96.0621 60.0532C96.285 60.0532 96.285 60.4014 96.0621 60.4014H96.0656Z" stroke="white" stroke-width="0.5"/>
<path d="M164.647 60.3418C162.494 60.3418 160.341 60.3453 158.189 60.3488C155.263 60.3488 152.337 60.3523 149.414 60.3558C146.224 60.3558 143.033 60.3592 139.843 60.3627C136.868 60.3627 133.89 60.3662 130.915 60.3697C128.641 60.3697 126.37 60.3697 124.095 60.3766C123.886 60.3766 123.681 60.3766 123.472 60.3766C123.249 60.3766 123.249 60.0285 123.472 60.0285C125.624 60.0285 127.777 60.025 129.929 60.0215C132.855 60.0215 135.781 60.018 138.704 60.0145C141.894 60.0145 145.085 60.0111 148.275 60.0076C151.25 60.0076 154.228 60.0041 157.203 60.0006C159.477 60.0006 161.749 60.0006 164.023 59.9937C164.232 59.9937 164.438 59.9937 164.647 59.9937C164.87 59.9937 164.87 60.3418 164.647 60.3418Z" stroke="white" stroke-width="0.5"/>
<path d="M207.898 60.2862C204.104 60.2896 200.308 60.2966 196.514 60.3036C195.379 60.3036 194.24 60.3036 193.104 60.3071C192.881 60.3071 192.881 59.9589 193.104 59.9589C196.894 59.9554 200.68 59.9484 204.47 59.9415C205.613 59.9415 206.755 59.9415 207.898 59.938C208.121 59.938 208.121 60.2862 207.898 60.2862Z" stroke="white" stroke-width="0.5"/>
<path d="M85.0795 53.3539C85.2397 53.6812 85.2885 54.0746 85.3477 54.4297C85.4487 55.0425 85.5184 55.6623 85.5776 56.2786C85.7065 57.626 85.7935 58.9908 85.7308 60.3418C85.7099 60.8048 85.696 61.3341 85.494 61.7623C85.3965 61.9642 85.0969 61.7867 85.1944 61.5882C85.3407 61.2818 85.3581 60.8188 85.379 60.4601C85.4139 59.8404 85.4069 59.2206 85.386 58.6009C85.3407 57.3057 85.2432 56.0035 85.0481 54.7222C85.0098 54.4715 84.968 54.2243 84.9123 53.9771C84.8914 53.8831 84.867 53.7891 84.8426 53.6951C84.8217 53.6324 84.7939 53.5523 84.7834 53.5314C84.6859 53.3295 84.9854 53.1554 85.083 53.3574L85.0795 53.3539Z" stroke="white" stroke-width="0.5"/>
<path d="M84.8183 53.4793C83.4842 53.4235 82.1292 53.5698 80.8056 53.716C79.5517 53.8553 78.2524 53.9911 77.0368 54.3497C76.8905 54.3915 76.7616 54.4333 76.6362 54.5064C76.5944 54.5307 76.6432 54.4924 76.6153 54.5238C76.6153 54.5238 76.6223 54.5064 76.6049 54.5482C76.5944 54.5656 76.5631 54.67 76.5491 54.7292C76.4168 55.2584 76.3854 55.819 76.3506 56.3587C76.2565 57.8663 76.2252 59.447 76.5143 60.9372C76.5631 61.1913 76.5944 61.4699 76.88 61.5604C77.1657 61.6509 77.514 61.6335 77.8101 61.6544C78.4858 61.7032 79.165 61.7414 79.8443 61.7658C81.2306 61.818 82.6169 61.8285 84.0032 61.7902C84.2261 61.7832 84.2261 62.1314 84.0032 62.1384C82.704 62.1732 81.4013 62.1697 80.102 62.1244C79.4681 62.1035 78.8306 62.0722 78.1967 62.0304C77.8797 62.0095 77.5627 61.9887 77.2458 61.9608C76.995 61.9399 76.7268 61.926 76.5178 61.7693C76.2113 61.5395 76.1799 61.0695 76.1242 60.7178C76.0684 60.3453 76.0301 59.9692 76.0023 59.5932C75.9431 58.7471 75.9396 57.8976 75.9674 57.0515C75.9918 56.3621 76.0301 55.6693 76.1416 54.9903C76.1904 54.6874 76.2287 54.3288 76.5282 54.1756C76.9288 53.9702 77.413 53.8971 77.8484 53.81C78.552 53.6708 79.2626 53.5698 79.9731 53.4758C81.565 53.2703 83.209 53.0684 84.8148 53.138C85.0377 53.1485 85.0377 53.4967 84.8148 53.4862L84.8183 53.4793Z" stroke="white" stroke-width="0.5"/>
<path d="M78.6669 38.79C79.4924 38.8771 80.3284 39.0094 81.1121 39.281C81.4465 39.3959 81.8262 39.5317 82.063 39.8067C82.2616 40.04 82.3069 40.3081 82.3347 40.6005C82.4427 41.7495 82.5472 42.8985 82.6482 44.0475C82.7423 45.1164 82.8433 46.1888 82.9094 47.2611C82.9303 47.6267 83.0209 48.243 82.6482 48.4519C82.3208 48.633 81.9098 48.7165 81.5545 48.814C80.8578 49.0055 80.1507 49.1726 79.4402 49.3154C78.7853 49.4442 78.1165 49.5661 77.4443 49.5939C77.2214 49.6044 77.2214 49.2562 77.4443 49.2457C78.6042 49.197 79.7746 48.9115 80.8962 48.6295C81.3525 48.5146 81.8088 48.3962 82.2546 48.2395C82.3069 48.2221 82.387 48.1942 82.4218 48.1768C82.4497 48.1664 82.5333 48.1072 82.4949 48.1455C82.4392 48.1942 82.5019 48.1351 82.5089 48.1107C82.5298 48.0585 82.5472 48.0097 82.5576 47.9575C82.582 47.8461 82.5785 47.7277 82.5785 47.6163C82.5785 47.5571 82.5785 47.4944 82.5716 47.4352C82.4706 45.3531 82.2337 43.2676 82.0421 41.1924C82.0212 40.9627 82.0038 40.7294 81.976 40.4996C81.9307 40.0644 81.645 39.8659 81.2619 39.7092C80.4433 39.375 79.5412 39.2322 78.6669 39.1417C78.4475 39.1173 78.444 38.7691 78.6669 38.7935V38.79Z" stroke="white" stroke-width="0.5"/>
<path d="M212.332 41.673C210.837 40.9871 209.34 40.2873 207.758 39.8277C206.95 39.5944 206.111 39.4064 205.271 39.3333C205.101 39.3193 204.906 39.3019 204.766 39.4203C204.627 39.5387 204.589 39.7441 204.554 39.9182C204.47 40.3534 204.404 40.7921 204.345 41.2308C204.087 43.0587 203.965 44.9076 203.976 46.7529C203.976 47.1777 203.969 47.6094 204.014 48.0342C204.059 48.4589 204.24 48.7793 204.641 48.9568C205.041 49.1344 205.459 49.211 205.863 49.312C206.295 49.4234 206.731 49.5244 207.166 49.6149C209.173 50.0327 211.221 50.2381 213.269 50.2381C213.492 50.2381 213.492 50.5863 213.269 50.5863C211.329 50.5863 209.388 50.4018 207.483 50.0327C206.553 49.8516 205.595 49.6601 204.697 49.3503C204.327 49.2214 203.989 49.023 203.819 48.6574C203.648 48.2918 203.648 47.8984 203.638 47.5189C203.585 45.5447 203.686 43.5671 203.944 41.6103C204.007 41.1333 204.077 40.6563 204.157 40.1828C204.216 39.8346 204.251 39.4134 204.536 39.1627C204.822 38.912 205.261 38.9851 205.616 39.0304C206.059 39.0861 206.497 39.1627 206.933 39.2602C208.883 39.6989 210.702 40.5484 212.509 41.3771C212.711 41.4711 212.537 41.7705 212.335 41.6765L212.332 41.673Z" stroke="white" stroke-width="0.5"/>
<path d="M207.915 39.7786C208.824 43.0131 209.402 46.3347 209.643 49.6842C209.66 49.907 209.312 49.907 209.294 49.6842C209.054 46.3661 208.479 43.0758 207.577 39.8726C207.518 39.6567 207.852 39.5627 207.912 39.7786H207.915Z" stroke="white" stroke-width="0.5"/>
<path d="M181.996 31.0152C183.132 31.4435 184.299 31.7812 185.466 32.105C186.925 32.5089 188.395 32.878 189.865 33.247C192.923 34.013 195.995 34.7477 199.001 35.6912C200.318 36.1021 201.638 36.5477 202.878 37.1605C203.08 37.2615 202.903 37.5609 202.704 37.4599C201.621 36.9238 200.468 36.5268 199.318 36.1543C197.89 35.6947 196.441 35.2943 194.989 34.9078C191.955 34.1035 188.897 33.3933 185.866 32.5716C184.532 32.2095 183.198 31.8369 181.902 31.3495C181.693 31.2694 181.784 30.9351 181.996 31.0152Z" stroke="white" stroke-width="0.5"/>
<path d="M177.559 28.8076C177.611 28.153 177.663 27.4985 177.716 26.8439C177.733 26.621 178.081 26.621 178.064 26.8439C178.012 27.4985 177.959 28.153 177.907 28.8076C177.89 29.0304 177.541 29.0304 177.559 28.8076Z" stroke="white" stroke-width="0.5"/>
<path d="M119.104 4.11161C119.003 4.13946 118.881 4.2091 118.776 4.28918C118.64 4.39363 118.484 4.55379 118.355 4.69654C117.972 5.12132 117.648 5.59832 117.341 6.0788C116.418 7.51676 115.634 9.04873 114.889 10.5877C113.952 12.5235 113.095 14.4977 112.297 16.4927C111.493 18.5052 110.747 20.5455 110.099 22.6136C109.556 24.3406 109.061 26.0989 108.772 27.8885C108.744 28.0626 108.72 28.2367 108.696 28.4108C108.668 28.6301 108.32 28.6336 108.347 28.4108C108.574 26.6559 109.034 24.9325 109.542 23.2404C110.173 21.1513 110.904 19.0936 111.702 17.0637C112.499 15.0199 113.363 13.0005 114.3 11.0159C115.07 9.38298 115.885 7.76049 116.836 6.22503C117.17 5.68536 117.522 5.15614 117.923 4.66521C118.17 4.36578 118.452 4.03501 118.804 3.85396C118.87 3.81914 118.94 3.79129 119.01 3.7704C119.225 3.71469 119.32 4.04894 119.104 4.10465V4.11161Z" stroke="white" stroke-width="0.5"/>
<path d="M143.768 3.27945C140.814 3.15759 137.857 2.98698 134.9 2.93128C132.141 2.87905 129.386 2.99047 126.631 3.16804C124.997 3.27249 123.367 3.39783 121.737 3.52666C121.514 3.54406 121.514 3.19589 121.737 3.17848C124.572 2.95913 127.411 2.73978 130.257 2.63533C133.103 2.53088 135.879 2.60747 138.693 2.72237C140.386 2.79201 142.075 2.86164 143.768 2.93128C143.991 2.94172 143.991 3.2899 143.768 3.27945Z" stroke="white" stroke-width="0.5"/>
<path d="M176.946 24.3372C176.688 21.6353 176.274 18.9753 175.382 16.4023C174.922 15.0722 174.417 13.7248 173.731 12.4957C173.083 11.3328 172.268 10.2709 171.331 9.32733C169.464 7.44371 167.175 6.09279 164.674 5.23976C164.006 5.00996 163.337 4.7732 162.651 4.59912C161.644 4.34495 160.613 4.18479 159.589 4.01766C157.921 3.7426 156.245 3.60682 154.556 3.56155C152.866 3.51629 151.191 3.54066 149.509 3.50585C149.084 3.49888 148.662 3.48495 148.237 3.46755C148.014 3.4571 148.014 3.10893 148.237 3.11937C151.665 3.26212 155.113 3.04625 158.523 3.50236C160.474 3.7635 162.417 4.10123 164.284 4.73839C165.434 5.13182 166.562 5.54963 167.632 6.13109C168.816 6.77173 169.927 7.55512 170.927 8.46038C171.927 9.36563 172.794 10.3649 173.518 11.4756C174.295 12.6663 174.838 13.972 175.344 15.2951C175.821 16.545 176.228 17.8228 176.524 19.1285C176.82 20.4341 177.019 21.8164 177.169 23.1743C177.211 23.5607 177.249 23.9507 177.287 24.3406C177.308 24.5635 176.96 24.5635 176.939 24.3406L176.946 24.3372Z" stroke="white" stroke-width="0.5"/>
<path d="M147.589 3.51631C147.412 6.66729 147.311 9.82176 147.328 12.9762C147.345 16.1307 147.471 19.0205 147.687 22.0357C147.816 23.8532 147.979 25.6707 148.164 27.4847C148.185 27.7075 147.837 27.7075 147.816 27.4847C147.499 24.3441 147.248 21.2001 147.109 18.0457C146.969 14.8912 146.948 12.0013 147.022 8.97918C147.067 7.15474 147.143 5.33378 147.248 3.51283C147.262 3.29 147.61 3.29 147.596 3.51283L147.589 3.51631Z" stroke="white" stroke-width="0.5"/>
<path d="M144.883 3.2555C144.925 6.40301 144.97 9.55399 145.015 12.7015C145.06 15.7167 145.106 18.7354 145.148 21.7506C145.172 23.5785 145.2 25.4064 145.221 27.2343C145.221 27.4572 144.876 27.4572 144.872 27.2343C144.831 24.0868 144.785 20.9358 144.74 17.7883C144.695 14.7731 144.649 11.7545 144.608 8.73926C144.583 6.91134 144.555 5.08342 144.535 3.2555C144.535 3.03267 144.879 3.03267 144.883 3.2555Z" stroke="white" stroke-width="0.5"/>
<path d="M116.982 28.3901C117.623 25.1451 118.25 21.8932 118.811 18.6342C119.372 15.3753 119.818 12.3636 120.194 9.21262C120.42 7.32203 120.612 5.42796 120.775 3.53041C120.793 3.30757 121.145 3.30757 121.124 3.53041C120.838 6.82762 120.462 10.1179 119.992 13.3942C119.535 16.5522 118.996 19.6962 118.407 22.8332C118.055 24.7203 117.686 26.604 117.317 28.4841C117.275 28.7035 116.937 28.6095 116.982 28.3901Z" stroke="white" stroke-width="0.5"/>
<path d="M119.828 3.87859C119.267 7.17929 118.661 10.4765 117.944 13.7459C117.25 16.8899 116.449 20.0095 115.516 23.0874C114.959 24.9293 114.352 26.7572 113.712 28.5746C113.638 28.7836 113.301 28.693 113.377 28.4806C114.492 25.3262 115.488 22.1299 116.345 18.8919C117.202 15.6539 117.86 12.6317 118.47 9.47028C118.835 7.57969 119.173 5.68213 119.494 3.7811C119.532 3.56175 119.866 3.65575 119.828 3.8751V3.87859Z" stroke="white" stroke-width="0.5"/>
<path d="M176.34 32.1852C176.496 30.9735 176.385 29.7306 176.26 28.5259C176.207 28.0071 176.141 27.4848 176.085 26.9661C176.051 26.6527 176.051 26.3533 175.89 26.0712C175.511 25.4027 174.741 24.971 174.079 24.6368C173.281 24.2364 172.428 23.9334 171.561 23.7106C171.219 23.6236 170.871 23.5435 170.523 23.4982C170.314 23.4704 170.042 23.439 169.871 23.4843C169.6 23.5539 169.29 23.6828 169.112 23.9091C168.893 24.1841 168.879 24.5671 168.858 24.9014C168.809 25.7196 168.788 26.5413 168.792 27.363C168.802 29.0029 168.914 30.6463 169.133 32.2722C169.161 32.4672 169.189 32.6657 169.217 32.8607C169.248 33.0696 169.241 33.2262 169.485 33.2471C169.638 33.2611 169.791 33.2611 169.941 33.268C170.335 33.2854 170.728 33.2994 171.122 33.3133C172.08 33.3446 173.041 33.362 174.003 33.3411C174.424 33.3307 174.845 33.3133 175.267 33.2715C175.532 33.2436 175.824 33.2228 176.072 33.1148C176.082 33.1113 176.127 33.087 176.155 33.0696C176.155 33.0696 176.166 33.0452 176.155 33.0765C176.225 32.8641 176.563 32.9547 176.49 33.1705C176.416 33.3864 176.173 33.4595 175.977 33.5117C175.629 33.5988 175.267 33.6266 174.912 33.651C173.905 33.7206 172.891 33.7067 171.881 33.6823C171.401 33.6719 170.923 33.658 170.443 33.6371C170.08 33.6232 169.655 33.6615 169.3 33.5744C168.917 33.4804 168.91 33.1148 168.861 32.7875C168.802 32.3802 168.746 31.9728 168.701 31.562C168.6 30.6741 168.527 29.7863 168.489 28.8949C168.45 28.0036 168.44 27.1401 168.461 26.2627C168.471 25.824 168.489 25.3853 168.513 24.9466C168.534 24.6089 168.555 24.2642 168.694 23.9543C168.9 23.4913 169.443 23.1779 169.941 23.1292C170.223 23.1013 170.516 23.1466 170.791 23.1918C171.676 23.3346 172.547 23.6062 173.376 23.9439C174.205 24.2816 175.086 24.6994 175.748 25.3366C176.005 25.5838 176.232 25.8763 176.343 26.2175C176.462 26.5831 176.451 27.0148 176.496 27.3978C176.646 28.6826 176.8 29.9743 176.772 31.2695C176.765 31.5794 176.744 31.8892 176.705 32.1956C176.678 32.415 176.329 32.4185 176.357 32.1956L176.34 32.1852Z" stroke="white" stroke-width="0.5"/>
<path d="M192.697 53.8732C191.008 48.4069 185.17 44.375 178.231 44.375C171.293 44.375 165.793 48.1771 163.922 53.4067" stroke="white" stroke-width="0.5" stroke-linecap="round" stroke-linejoin="round"/>
<path d="M124.311 53.8732C122.622 48.4069 116.784 44.375 109.845 44.375C102.907 44.375 97.4066 48.1771 95.5361 53.4067" stroke="white" stroke-width="0.5" stroke-linecap="round" stroke-linejoin="round"/>
<path d="M76.6501 61.9646L59.9411 61.6269C55.4826 61.5364 50.8639 61.6304 46.5586 60.2934C44.3642 59.611 42.3126 58.5142 40.679 56.8813C40.5501 56.7524 40.6825 56.5575 40.8496 56.5888C41.818 56.7873 42.7863 56.9892 43.7546 57.1877C43.8278 57.2016 43.8835 57.2817 43.8835 57.3548C43.8591 58.3123 43.051 58.8554 42.222 59.1409C41.6891 59.3255 41.1353 59.3986 40.578 59.4717C39.7908 59.5727 39.0035 59.6736 38.2163 59.7676C35.0431 60.1576 31.8595 60.4884 28.6619 60.5789C25.4643 60.6694 22.4304 60.4396 19.3304 59.9661C17.7525 59.7259 16.1606 59.4856 14.5583 59.5204C13.0884 59.5518 11.6359 59.8303 10.2008 60.1367C7.24011 60.7634 4.09826 61.5747 1.14797 60.4744C0.93898 60.3978 1.02955 60.0601 1.24203 60.1402C3.85444 61.1151 6.62706 60.551 9.26386 59.9835C10.5561 59.7085 11.8449 59.4229 13.1581 59.2732C14.628 59.1061 16.091 59.1792 17.5539 59.3638C19.0169 59.5483 20.5146 59.8268 22.0055 59.9905C23.4963 60.1541 25.0568 60.2377 26.5859 60.2516C29.6302 60.2795 32.6745 60.0427 35.7015 59.7154C37.4013 59.5309 39.1011 59.322 40.7974 59.0991C41.7936 58.9668 43.5004 58.643 43.5352 57.3583L43.6641 57.5254C42.6957 57.3269 41.7274 57.125 40.7591 56.9265L40.9298 56.6341C43.9741 59.6702 48.3142 60.652 52.4627 61.0037C54.7024 61.1952 56.9491 61.2161 59.1957 61.2613L67.3987 61.4284L76.6571 61.6165C76.88 61.6199 76.88 61.9681 76.6571 61.9646H76.6501Z" stroke="white" stroke-width="0.5"/>
<path d="M146.468 31.7883C146.346 34.8348 146.238 37.8813 146.147 40.9314C146.057 43.9814 145.977 46.9966 145.91 50.0327C145.872 51.7526 145.841 53.4726 145.813 55.1891C145.809 55.412 145.461 55.412 145.465 55.1891C145.513 52.1391 145.576 49.0926 145.653 46.0426C145.729 42.9926 145.82 39.9774 145.924 36.9413C145.984 35.2213 146.046 33.5048 146.116 31.7848C146.126 31.562 146.475 31.562 146.464 31.7848L146.468 31.7883Z" stroke="white" stroke-width="0.5"/>
<path d="M110.535 31.9903C110.211 35.5695 110.291 39.1801 110.782 42.7419C110.813 42.9613 110.476 43.0553 110.448 42.836C109.953 39.2428 109.863 35.6044 110.187 31.9938C110.207 31.771 110.556 31.771 110.535 31.9938V31.9903Z" stroke="white" stroke-width="0.5"/>
<path d="M179.544 33.5115C180.318 36.3665 180.972 39.2529 181.502 42.1637C181.54 42.383 181.206 42.477 181.167 42.2577C180.638 39.3469 179.983 36.4605 179.21 33.6055C179.151 33.3896 179.489 33.2956 179.544 33.5115Z" stroke="white" stroke-width="0.5"/>
<path d="M205.331 57.7935C202.314 57.8388 199.298 57.884 196.281 57.9293L193.724 57.9676C193.502 57.9676 193.502 57.6229 193.724 57.6194C196.741 57.5741 199.757 57.5289 202.774 57.4836L205.331 57.4453C205.553 57.4453 205.553 57.79 205.331 57.7935Z" stroke="white" stroke-width="0.5"/>
<path d="M162.452 58.0268C157.67 58.0546 152.884 58.0477 148.101 58.0024C143.319 57.9571 138.536 57.8805 133.754 57.7622C131.058 57.696 128.362 57.6194 125.669 57.5324C125.447 57.5254 125.447 57.1772 125.669 57.1842C130.452 57.3409 135.231 57.4592 140.017 57.5428C144.799 57.6264 149.582 57.6751 154.368 57.689C157.064 57.696 159.76 57.689 162.456 57.6751C162.679 57.6751 162.679 58.0233 162.456 58.0233L162.452 58.0268Z" stroke="white" stroke-width="0.5"/>
<path d="M94.9823 58.1068C92.4674 58.2112 89.9525 58.0755 87.462 57.7064C87.2426 57.6751 87.3366 57.3373 87.5561 57.3721C90.0117 57.7342 92.5022 57.8596 94.9823 57.7586C95.2052 57.7482 95.2052 58.0963 94.9823 58.1068Z" stroke="white" stroke-width="0.5"/>
<path d="M165.147 60.1365C165.147 67.3172 170.97 73.1387 178.155 73.1387C185.339 73.1387 191.162 67.3172 191.162 60.1365C191.162 52.9558 185.339 47.1343 178.155 47.1343C170.97 47.1343 165.147 52.9558 165.147 60.1365Z" stroke="white" stroke-linecap="round" stroke-linejoin="round"/>
<path d="M96.7606 60.1365C96.7606 67.3172 102.584 73.1387 109.769 73.1387C116.953 73.1387 122.776 67.3172 122.776 60.1365C122.776 52.9558 116.953 47.1343 109.769 47.1343C102.584 47.1343 96.7606 52.9558 96.7606 60.1365Z" stroke="white" stroke-linecap="round" stroke-linejoin="round"/>
<path d="M168.996 60.1363C168.996 65.1923 173.096 69.2912 178.154 69.2912C183.213 69.2912 187.313 65.1923 187.313 60.1363C187.313 55.0804 183.213 50.9814 178.154 50.9814C173.096 50.9814 168.996 55.0804 168.996 60.1363Z" stroke="white" stroke-linecap="round" stroke-linejoin="round"/>
<path d="M101.519 60.1368C101.519 64.6908 105.212 68.3829 109.769 68.3829C114.325 68.3829 118.018 64.6908 118.018 60.1368C118.018 55.5828 114.325 51.8906 109.769 51.8906C105.212 51.8906 101.519 55.5828 101.519 60.1368Z" stroke="white" stroke-linecap="round" stroke-linejoin="round"/>
</svg>
