<svg width="472" height="238" viewBox="0 0 472 238" fill="none" xmlns="http://www.w3.org/2000/svg">
<path d="M35.9811 128.886L23.7271 144.324C17.7842 136.457 14.1906 126.722 14.0127 116.168V115.352C14.0127 114.037 14.0662 112.735 14.1695 111.45H33.6265L35.7401 127.057C35.746 127.686 35.831 128.3 35.9811 128.886ZM62.2212 163.561C51.0042 163.561 40.6764 159.71 32.4789 153.258L46.7913 135.226H77.6441L91.9589 153.261C83.7617 159.705 73.4355 163.561 62.2212 163.561ZM62.2212 54.75C28.7963 54.75 1.61212 81.934 1.61212 115.352C1.61212 148.77 28.7963 175.954 62.2212 175.954C95.6462 175.954 122.823 148.77 122.823 115.352C122.823 81.9341 95.6392 54.75 62.2212 54.75ZM62.2212 67.1506C83.0731 67.1506 100.876 80.4711 107.573 99.0494H16.8624C23.5661 80.4708 41.3627 67.1506 62.2212 67.1506ZM110.416 115.352C110.416 126.223 106.792 136.26 100.695 144.331L88.3581 128.781C88.4922 128.23 88.5716 127.654 88.5774 127.057L90.691 111.45H110.259C110.362 112.74 110.416 114.042 110.416 115.352Z" stroke="#6AC4C5" stroke-width="2"/>
<g clip-path="url(#clip0_1872_11708)">
<rect x="72.6425" y="123.007" width="58.2431" height="58.2431" rx="29.1215" fill="white"/>
<path d="M101.764 123.007C85.7056 123.007 72.6425 136.07 72.6425 152.129C72.6425 168.187 85.7056 181.25 101.764 181.25C117.822 181.25 130.886 168.187 130.886 152.129C130.886 136.07 117.822 123.007 101.764 123.007ZM101.764 179.495C86.6709 179.495 74.3975 167.216 74.3975 152.129C74.3975 137.041 86.6767 124.762 101.764 124.762C116.851 124.762 129.131 137.041 129.131 152.129C129.131 167.216 116.851 179.495 101.764 179.495Z" fill="#6AC4C5"/>
<path d="M101.764 150.912C107.909 150.912 112.891 145.93 112.891 139.785C112.891 133.64 107.909 128.658 101.764 128.658C95.6188 128.658 90.6372 133.64 90.6372 139.785C90.6372 145.93 95.6188 150.912 101.764 150.912Z" fill="#6AC4C5"/>
<path d="M108.053 151.444C106.263 152.673 104.098 153.398 101.764 153.398C99.4298 153.398 97.2653 152.678 95.4751 151.444C88.8236 153.977 84.0968 160.412 84.0968 167.953C84.0968 168.795 84.1612 169.62 84.2723 170.428C88.9289 174.558 95.0481 177.073 101.764 177.073C108.48 177.073 114.599 174.558 119.256 170.428C119.367 169.62 119.431 168.789 119.431 167.953C119.431 160.412 114.704 153.977 108.053 151.444Z" fill="#6AC4C5"/>
</g>
<mask id="path-6-inside-1_1872_11708" fill="white">
<path fill-rule="evenodd" clip-rule="evenodd" d="M336.202 237.25C401.648 237.25 454.702 184.196 454.702 118.75C454.702 53.3043 401.648 0.25 336.202 0.25C270.756 0.25 217.702 53.3043 217.702 118.75C217.702 119.452 217.708 120.153 217.72 120.853L131.343 136.64L219.676 140.408C229.853 195.511 278.153 237.25 336.202 237.25Z"/>
</mask>
<path fill-rule="evenodd" clip-rule="evenodd" d="M336.202 237.25C401.648 237.25 454.702 184.196 454.702 118.75C454.702 53.3043 401.648 0.25 336.202 0.25C270.756 0.25 217.702 53.3043 217.702 118.75C217.702 119.452 217.708 120.153 217.72 120.853L131.343 136.64L219.676 140.408C229.853 195.511 278.153 237.25 336.202 237.25Z" fill="#F3FBFF"/>
<path d="M217.72 120.853L217.9 121.837L218.735 121.684L218.72 120.836L217.72 120.853ZM131.343 136.64L131.163 135.656L131.3 137.639L131.343 136.64ZM219.676 140.408L220.66 140.226L220.515 139.442L219.719 139.408L219.676 140.408ZM453.702 118.75C453.702 183.643 401.095 236.25 336.202 236.25V238.25C402.2 238.25 455.702 184.748 455.702 118.75H453.702ZM336.202 1.25C401.095 1.25 453.702 53.8565 453.702 118.75H455.702C455.702 52.752 402.2 -0.75 336.202 -0.75V1.25ZM218.702 118.75C218.702 53.8565 271.308 1.25 336.202 1.25V-0.75C270.204 -0.75 216.702 52.752 216.702 118.75H218.702ZM218.72 120.836C218.708 120.142 218.702 119.447 218.702 118.75H216.702C216.702 119.458 216.708 120.165 216.72 120.87L218.72 120.836ZM217.54 119.869L131.163 135.656L131.523 137.624L217.9 121.837L217.54 119.869ZM131.3 137.639L219.634 141.407L219.719 139.408L131.385 135.641L131.3 137.639ZM336.202 236.25C278.644 236.25 230.751 194.864 220.66 140.226L218.693 140.589C228.956 196.158 277.662 238.25 336.202 238.25V236.25Z" fill="#6AC4C5" mask="url(#path-6-inside-1_1872_11708)"/>
<path d="M280.963 50.1895L362.431 80.7782L320.273 193.06L238.805 162.471L280.963 50.1895Z" fill="white" stroke="#9E9E9E" stroke-miterlimit="10"/>
<path d="M323.715 98.4958L343.391 105.884C344.367 106.25 345.457 105.752 345.825 104.772C346.193 103.792 345.7 102.7 344.724 102.333L325.048 94.9456C324.072 94.5792 322.982 95.077 322.614 96.057C322.246 97.0371 322.739 98.1294 323.715 98.4958Z" fill="#9E9E9E"/>
<path d="M313.533 125.613L333.21 133.001C334.185 133.367 335.276 132.869 335.644 131.889C336.012 130.909 335.518 129.817 334.543 129.45L314.866 122.063C313.89 121.696 312.8 122.194 312.432 123.174C312.064 124.154 312.557 125.246 313.533 125.613Z" fill="#9E9E9E"/>
<path d="M303.019 153.617L322.695 161.005C323.671 161.371 324.761 160.873 325.129 159.893C325.497 158.913 325.004 157.821 324.028 157.454L304.352 150.067C303.376 149.7 302.286 150.198 301.918 151.178C301.55 152.158 302.043 153.25 303.019 153.617Z" fill="#9E9E9E"/>
<path d="M363.141 78.8882L354.72 101.316L273.252 70.7275L281.673 48.2994L363.141 78.8882ZM334.912 87.9166L334.974 88.1272L335.081 88.4861L335.09 88.4807C335.964 91.0375 337.887 93.0321 340.422 93.9837C342.956 94.9352 345.717 94.6995 348.057 93.3493L348.061 93.3596L348.377 93.1597L348.563 93.0423L348.56 93.0337C350.146 91.9781 351.341 90.4836 352.015 88.6888C353.765 84.0274 351.412 78.8165 346.771 77.0738C342.129 75.331 336.928 77.7059 335.178 82.3673C334.504 84.1621 334.42 86.0735 334.92 87.9107L334.912 87.9153L334.912 87.9166Z" fill="#9E9E9E"/>
<path d="M335.248 88.0443C337.477 86.6506 340.301 86.2709 342.945 87.2637C345.589 88.2564 347.466 90.3996 348.226 92.9169C345.998 94.3231 343.171 94.7088 340.523 93.7146C337.875 92.7204 335.998 90.5683 335.248 88.0443Z" fill="#9E9E9E"/>
<path d="M342.101 86.345C340.271 84.9986 339.88 82.4159 341.227 80.5762C342.574 78.7366 345.15 78.3367 346.98 79.683C348.81 81.0294 349.201 83.6122 347.854 85.4518C346.507 87.2915 343.931 87.6913 342.101 86.345Z" fill="#9E9E9E"/>
<path d="M326.036 80.8862C325.411 80.3973 324.801 79.9692 324.153 79.5357C323.506 79.1148 322.858 78.6857 322.124 78.4145C321.382 78.1359 320.556 78.0249 319.789 77.846C319.001 77.6699 318.238 77.4735 317.421 77.3899C316.836 77.3137 316.128 77.4118 315.57 77.5778C315.093 77.6935 314.933 77.5751 314.439 77.3015C313.524 76.7574 312.664 76.1513 311.893 75.4054C311.621 75.146 311.303 74.8096 310.853 74.6138C310.428 74.4318 309.852 74.4265 309.529 74.7814L309.604 74.9006C310.382 74.79 310.668 75.4843 311.026 76.0917C311.657 77.161 312.624 78.0838 313.765 78.6052C314.198 78.8096 314.687 78.9798 315.213 78.9439C315.705 78.9085 316.094 78.6969 316.477 78.517C317.444 78.0241 318.616 77.8847 319.664 78.2799C320.381 78.5341 320.974 79.0396 321.601 79.459C322.24 79.8845 322.936 80.212 323.654 80.5053C324.396 80.7958 325.184 81.0273 325.995 81.0208L326.039 80.8876L326.036 80.8862Z" fill="white"/>
<path d="M305.693 72.7438C305.235 72.3128 304.719 71.9993 304.175 71.7173C303.644 71.452 303.11 71.2005 302.524 71.084C301.941 70.9667 301.309 70.9718 300.742 70.8023C300.166 70.6357 299.644 70.3513 299.147 70.0151C298.172 69.3388 297.105 68.7932 296.015 68.3389C294.884 67.9248 293.714 67.6054 292.502 67.5407L292.443 67.6685C293.314 68.5537 294.337 69.1864 295.431 69.7185C296.245 70.0826 297.109 70.3394 297.973 70.5666C298.847 70.7467 299.779 70.8212 300.582 71.223C301.121 71.4716 301.597 71.8913 302.125 72.1808C302.652 72.4684 303.231 72.6171 303.814 72.7463C304.402 72.8637 305.004 72.94 305.651 72.8761L305.696 72.7434L305.693 72.7438Z" fill="white"/>
<path d="M287.079 65.8427C286.976 65.3221 286.577 64.8237 286.044 64.7685C285.786 64.7632 285.49 64.8943 285.258 64.8629C285.024 64.8375 284.827 64.7023 284.634 64.5145C284.32 64.1946 283.845 63.97 283.444 63.8553C282.98 63.7769 282.728 63.8888 282.194 63.7751L282.072 63.8447C281.946 64.3362 282.255 64.8008 282.626 65.0766C282.94 65.3322 283.362 65.4069 283.735 65.3836C284.189 65.4315 284.697 65.0336 285.117 65.2917C285.407 65.4604 285.519 65.9396 285.883 66.0149C286.257 66.1242 286.619 66.1089 287.009 65.9647L287.079 65.8427Z" fill="white"/>
<path d="M283.813 59.3436C284.438 59.8325 285.048 60.2605 285.696 60.694C286.342 61.115 286.991 61.544 287.725 61.8152C288.467 62.0938 289.293 62.2048 290.06 62.3837C290.848 62.5598 291.611 62.7563 292.427 62.8399C293.013 62.916 293.72 62.8179 294.279 62.652C294.756 62.5362 294.916 62.6546 295.41 62.9282C296.325 63.4724 297.185 64.0784 297.956 64.8243C298.228 65.0837 298.546 65.4201 298.996 65.6159C299.421 65.7979 299.997 65.8033 300.32 65.4484L300.245 65.3291C299.467 65.4397 299.181 64.7454 298.823 64.1381C298.192 63.0687 297.225 62.1459 296.084 61.6246C295.651 61.4201 295.162 61.2499 294.636 61.2859C294.144 61.3213 293.754 61.5328 293.372 61.7127C292.405 62.2056 291.233 62.345 290.185 61.9498C289.468 61.6956 288.875 61.1902 288.248 60.7708C287.609 60.3452 286.912 60.0177 286.195 59.7245C285.453 59.4339 284.665 59.2024 283.853 59.2089L283.809 59.3421L283.813 59.3436Z" fill="white"/>
<path d="M304.156 67.4857C304.614 67.9167 305.13 68.2302 305.674 68.5122C306.205 68.7774 306.739 69.029 307.324 69.1455C307.908 69.2628 308.54 69.2577 309.107 69.4272C309.683 69.5938 310.205 69.8782 310.702 70.2144C311.677 70.8906 312.744 71.4363 313.834 71.8906C314.965 72.3047 316.134 72.624 317.347 72.6887L317.406 72.561C316.535 71.6758 315.512 71.043 314.418 70.511C313.604 70.1469 312.74 69.8901 311.876 69.6629C311.002 69.4828 310.07 69.4083 309.267 69.0065C308.728 68.7579 308.252 68.3382 307.724 68.0487C307.197 67.761 306.618 67.6124 306.035 67.4832C305.447 67.3657 304.845 67.2895 304.198 67.3534L304.153 67.486L304.156 67.4857Z" fill="white"/>
<path d="M322.771 74.3852C322.873 74.9058 323.272 75.4042 323.806 75.4594C324.063 75.4647 324.36 75.3336 324.591 75.365C324.826 75.3904 325.023 75.5256 325.216 75.7134C325.529 76.0333 326.004 76.2579 326.405 76.3726C326.869 76.4509 327.121 76.3391 327.655 76.4528L327.777 76.3832C327.903 75.8917 327.595 75.4271 327.223 75.1513C326.909 74.8957 326.487 74.821 326.115 74.8443C325.66 74.7964 325.153 75.1943 324.733 74.9362C324.443 74.7675 324.33 74.2882 323.967 74.213C323.592 74.1037 323.23 74.119 322.84 74.2632L322.771 74.3852Z" fill="white"/>
<path d="M341.639 111.567C337.962 110.761 335.192 108.127 332.165 106.043C331.391 105.507 330.569 104.987 329.73 104.544C328.849 104.067 327.871 103.67 326.856 103.584C325.524 103.513 324.403 103.642 323.118 103.568C320.053 103.442 317.083 102.847 314.12 101.888C317.331 103.84 321.154 104.843 324.93 104.911C326.172 104.917 327.178 104.871 328.299 105.401C332.735 107.378 336.478 111.589 341.641 111.565L341.639 111.567Z" fill="#9E9E9E"/>
<path d="M307.943 98.5572C304.625 96.7005 301.14 95.2381 297.607 93.8741C296.715 93.5391 295.82 93.2031 294.901 92.9327C293.976 92.6604 293.007 92.4418 292.036 92.3482C290.401 92.161 288.761 92.2458 287.312 91.4336C287.109 91.3155 286.921 91.1761 286.735 91.0298C286.931 91.3369 287.172 91.6147 287.454 91.8492C288.68 92.8603 290.392 93.1097 291.86 93.4363C293.647 93.8107 295.341 94.5111 297.108 95.1836C300.655 96.5153 304.229 97.739 307.943 98.5572Z" fill="#9E9E9E"/>
<path d="M281.695 89.573C280.224 87.5207 277.008 86.24 274.528 86.7354C275.626 87.5247 276.762 88.0125 277.972 88.5076C279.194 88.9737 280.356 89.3952 281.695 89.5743L281.695 89.573Z" fill="#9E9E9E"/>
<path d="M272.347 91.5942C276.591 94.3736 281.517 96.0104 286.508 96.7858C288.115 97.0553 289.885 96.9908 291.021 98.3049C290.388 96.5927 288.268 96.1486 286.737 95.7085C281.899 94.4174 277.189 92.9036 272.348 91.5947L272.347 91.5942Z" fill="#9E9E9E"/>
<path d="M297.135 99.9779C298.511 102.125 301.675 103.567 304.196 103.181C303.126 102.344 302.006 101.804 300.816 101.247C299.612 100.719 298.469 100.234 297.135 99.9779Z" fill="#9E9E9E"/>
<path d="M313.784 107.692C315.071 109.345 317.718 110.405 319.79 110.081C318.389 108.635 315.795 107.608 313.784 107.692Z" fill="#9E9E9E"/>
<path d="M330.716 114.164C331.781 115.094 332.948 115.769 334.179 116.4C335.032 116.83 335.932 117.214 336.893 117.327C337.405 117.385 337.872 117.359 338.304 117.344C339.149 117.316 339.996 117.324 340.641 117.996C340.556 117.217 339.814 116.673 339.118 116.436C338.251 116.139 337.351 116.144 336.53 115.856C334.615 115.188 332.777 114.36 330.716 114.164Z" fill="#9E9E9E"/>
<path d="M336.027 124.171C334.363 122.203 332.232 120.643 329.94 119.469C329.348 119.125 328.764 119.021 328.148 119.383C328.056 119.429 328.002 119.452 327.989 119.454C327.839 119.468 327.712 119.418 327.469 119.338C325.906 118.822 324.389 118.208 322.883 117.485C322.196 117.133 321.403 116.962 320.683 117.341C319.724 117.905 318.823 117.483 317.882 117.056C318.523 117.682 319.268 118.295 320.256 118.239C321.276 118.106 321.375 117.8 322.358 118.454C323.799 119.375 325.386 120.131 327.029 120.669C327.232 120.733 327.481 120.822 327.815 120.846C327.981 120.857 328.174 120.844 328.364 120.788C328.618 120.717 328.796 120.587 328.952 120.517C328.961 120.514 328.953 120.514 328.949 120.513C328.976 120.506 329.027 120.524 329.107 120.554C331.518 121.576 333.743 122.826 336.025 124.171L336.027 124.171Z" fill="#9E9E9E"/>
<path d="M308.669 114.576C307.544 113.093 305.894 112.121 304.18 111.506C303.636 111.357 302.708 110.939 302.261 111.464C302.586 111.472 302.758 111.673 302.972 111.871C303.177 112.074 303.424 112.292 303.655 112.475C305.104 113.582 306.814 114.438 308.67 114.577L308.669 114.576Z" fill="#9E9E9E"/>
<path d="M290.95 107.535C288.156 105.327 283.576 103.996 280.031 104.379C281.767 105.246 283.549 105.794 285.381 106.339C287.221 106.852 289.02 107.341 290.951 107.536L290.95 107.535Z" fill="#9E9E9E"/>
<path d="M272.253 100.85C272.236 99.7004 270.947 99.125 270.085 99.8913C270.412 100.921 271.272 101.296 272.253 100.85Z" fill="#9E9E9E"/>
<path d="M260.555 126.769C264.232 127.575 267.002 130.209 270.03 132.294C270.803 132.829 271.625 133.349 272.465 133.792C273.345 134.269 274.323 134.666 275.338 134.752C276.67 134.823 277.791 134.694 279.076 134.768C282.141 134.895 285.111 135.489 288.075 136.448C284.863 134.497 281.04 133.493 277.265 133.425C276.022 133.419 275.017 133.465 273.895 132.935C269.459 130.958 265.716 126.748 260.553 126.771L260.555 126.769Z" fill="#9E9E9E"/>
<path d="M294.251 139.779C297.57 141.636 301.054 143.098 304.587 144.462C305.479 144.797 306.374 145.133 307.294 145.403C308.218 145.676 309.187 145.894 310.158 145.988C311.793 146.175 313.433 146.09 314.882 146.903C315.085 147.021 315.273 147.16 315.46 147.306C315.263 146.999 315.022 146.721 314.74 146.487C313.515 145.476 311.802 145.227 310.334 144.9C308.547 144.526 306.853 143.825 305.086 143.153C301.539 141.821 297.965 140.597 294.251 139.779Z" fill="#9E9E9E"/>
<path d="M320.499 148.763C321.97 150.815 325.186 152.096 327.666 151.6C326.568 150.811 325.432 150.323 324.222 149.828C323 149.362 321.838 148.941 320.499 148.762L320.499 148.763Z" fill="#9E9E9E"/>
<path d="M329.848 146.742C325.603 143.963 320.677 142.326 315.686 141.55C314.079 141.281 312.309 141.345 311.174 140.031C311.807 141.743 313.926 142.187 315.457 142.628C320.295 143.919 325.005 145.432 329.846 146.741L329.848 146.742Z" fill="#9E9E9E"/>
<path d="M305.059 138.358C303.683 136.211 300.519 134.769 297.998 135.154C299.068 135.992 300.188 136.532 301.379 137.088C302.583 137.617 303.726 138.101 305.059 138.358Z" fill="#9E9E9E"/>
<path d="M288.41 130.644C287.123 128.991 284.476 127.931 282.405 128.255C283.805 129.701 286.399 130.728 288.41 130.644Z" fill="#9E9E9E"/>
<path d="M271.479 124.17C270.414 123.241 269.247 122.565 268.015 121.934C267.163 121.505 266.262 121.121 265.302 121.008C264.79 120.949 264.322 120.976 263.891 120.991C263.045 121.019 262.199 121.011 261.554 120.339C261.638 121.118 262.381 121.662 263.077 121.899C263.943 122.196 264.844 122.191 265.665 122.478C267.58 123.147 269.418 123.974 271.479 124.17Z" fill="#9E9E9E"/>
<path d="M266.167 114.165C267.831 116.134 269.963 117.693 272.254 118.868C272.846 119.211 273.43 119.315 274.046 118.954C274.138 118.907 274.192 118.885 274.205 118.882C274.355 118.868 274.482 118.919 274.725 118.998C276.289 119.514 277.805 120.129 279.312 120.852C279.998 121.204 280.791 121.374 281.511 120.995C282.47 120.431 283.371 120.853 284.312 121.28C283.671 120.655 282.926 120.041 281.938 120.097C280.918 120.23 280.819 120.536 279.836 119.883C278.395 118.961 276.808 118.205 275.165 117.668C274.963 117.604 274.713 117.514 274.379 117.491C274.213 117.479 274.021 117.492 273.83 117.548C273.577 117.619 273.398 117.75 273.242 117.82C273.233 117.822 273.241 117.822 273.245 117.824C273.218 117.83 273.167 117.813 273.087 117.783C270.676 116.761 268.451 115.51 266.169 114.165L266.167 114.165Z" fill="#9E9E9E"/>
<path d="M293.526 123.76C294.65 125.244 296.3 126.215 298.014 126.83C298.558 126.979 299.486 127.398 299.933 126.873C299.608 126.865 299.436 126.664 299.222 126.465C299.018 126.263 298.77 126.044 298.539 125.861C297.09 124.754 295.38 123.898 293.524 123.76L293.526 123.76Z" fill="#9E9E9E"/>
<path d="M311.243 130.8C314.037 133.008 318.617 134.34 322.162 133.957C320.426 133.089 318.644 132.541 316.812 131.996C314.972 131.483 313.173 130.995 311.241 130.8L311.243 130.8Z" fill="#9E9E9E"/>
<path d="M329.941 137.486C329.958 138.636 331.247 139.211 332.109 138.445C331.782 137.415 330.922 137.04 329.941 137.486Z" fill="#9E9E9E"/>
<path d="M320.275 168.467C316.598 167.661 313.828 165.027 310.8 162.942C310.027 162.406 309.205 161.887 308.365 161.444C307.485 160.967 306.507 160.57 305.492 160.484C304.16 160.413 303.039 160.542 301.754 160.468C298.688 160.342 295.719 159.747 292.755 158.788C295.967 160.739 299.79 161.742 303.565 161.811C304.808 161.817 305.813 161.77 306.935 162.301C311.371 164.278 315.114 168.488 320.277 168.464L320.275 168.467Z" fill="#9E9E9E"/>
<path d="M286.579 155.456C283.261 153.599 279.777 152.137 276.244 150.773C275.351 150.438 274.457 150.102 273.537 149.831C272.612 149.559 271.644 149.34 270.673 149.247C269.038 149.059 267.398 149.144 265.948 148.332C265.745 148.214 265.558 148.075 265.371 147.928C265.567 148.235 265.809 148.513 266.09 148.748C267.316 149.759 269.029 150.008 270.497 150.335C272.283 150.709 273.977 151.41 275.745 152.082C279.291 153.414 282.865 154.637 286.579 155.456Z" fill="#9E9E9E"/>
<path d="M260.331 146.472C258.86 144.42 255.645 143.139 253.165 143.634C254.262 144.424 255.398 144.911 256.609 145.406C257.83 145.873 258.993 146.294 260.331 146.473L260.331 146.472Z" fill="#9E9E9E"/>
<path d="M250.983 148.493C255.228 151.272 260.153 152.909 265.145 153.684C266.752 153.954 268.521 153.889 269.657 155.203C269.024 153.491 266.904 153.047 265.373 152.607C260.535 151.316 255.826 149.802 250.984 148.493L250.983 148.493Z" fill="#9E9E9E"/>
<path d="M275.772 156.876C277.148 159.023 280.312 160.466 282.832 160.08C281.762 159.242 280.643 158.702 279.452 158.146C278.248 157.617 277.105 157.133 275.772 156.876Z" fill="#9E9E9E"/>
<path d="M292.421 164.59C293.708 166.244 296.355 167.304 298.426 166.98C297.025 165.533 294.431 164.508 292.421 164.59Z" fill="#9E9E9E"/>
<path d="M309.352 171.064C310.417 171.994 311.584 172.669 312.815 173.3C313.668 173.729 314.568 174.114 315.529 174.226C316.041 174.285 316.508 174.259 316.94 174.244C317.785 174.216 318.632 174.224 319.277 174.896C319.192 174.117 318.45 173.573 317.753 173.336C316.887 173.039 315.987 173.043 315.166 172.756C313.251 172.088 311.413 171.26 309.352 171.064Z" fill="#9E9E9E"/>
<path d="M314.663 181.071C312.999 179.102 310.867 177.543 308.576 176.368C307.984 176.025 307.4 175.921 306.784 176.282C306.692 176.329 306.638 176.351 306.625 176.354C306.475 176.368 306.348 176.317 306.105 176.238C304.541 175.722 303.025 175.107 301.518 174.384C300.832 174.033 300.039 173.862 299.319 174.241C298.36 174.805 297.459 174.383 296.518 173.956C297.159 174.581 297.904 175.195 298.892 175.139C299.912 175.006 300.011 174.7 300.994 175.353C302.435 176.275 304.022 177.031 305.665 177.568C305.867 177.633 306.117 177.722 306.451 177.745C306.617 177.757 306.809 177.744 307 177.688C307.253 177.617 307.432 177.487 307.588 177.416C307.597 177.414 307.589 177.414 307.585 177.412C307.611 177.406 307.663 177.424 307.743 177.453C310.154 178.475 312.379 179.726 314.661 181.071L314.663 181.071Z" fill="#9E9E9E"/>
<path d="M287.305 171.474C286.181 169.991 284.53 169.019 282.816 168.404C282.273 168.255 281.345 167.837 280.897 168.362C281.222 168.37 281.394 168.571 281.609 168.769C281.813 168.972 282.06 169.19 282.291 169.373C283.74 170.48 285.45 171.336 287.306 171.474L287.305 171.474Z" fill="#9E9E9E"/>
<path d="M269.586 164.434C266.792 162.226 262.212 160.894 258.667 161.277C260.403 162.144 262.185 162.692 264.017 163.238C265.857 163.751 267.656 164.239 269.588 164.434L269.586 164.434Z" fill="#9E9E9E"/>
<path d="M250.889 157.749C250.873 156.599 249.583 156.023 248.722 156.79C249.049 157.82 249.908 158.195 250.889 157.749Z" fill="#9E9E9E"/>
<mask id="mask0_1872_11708" style="mask-type:alpha" maskUnits="userSpaceOnUse" x="292" y="45" width="140" height="140">
<circle cx="362.305" cy="115.224" r="69.6932" fill="#D9D9D9"/>
</mask>
<g mask="url(#mask0_1872_11708)">
<path d="M255.73 29.6376L413.495 88.8732L331.854 306.309L174.09 247.073L255.73 29.6376Z" fill="white" stroke="#6DB4BA" stroke-miterlimit="10"/>
<path d="M338.52 123.184L376.623 137.49C378.513 138.2 380.624 137.236 381.337 135.338C382.049 133.44 381.094 131.325 379.204 130.615L341.101 116.309C339.211 115.599 337.1 116.563 336.388 118.461C335.675 120.359 336.63 122.474 338.52 123.184Z" fill="#6DB4BA"/>
<path d="M318.803 175.696L356.906 190.002C358.796 190.712 360.907 189.748 361.62 187.85C362.332 185.952 361.377 183.837 359.488 183.127L321.384 168.821C319.494 168.111 317.383 169.075 316.671 170.973C315.958 172.871 316.913 174.986 318.803 175.696Z" fill="#6DB4BA"/>
<path d="M414.869 85.2125L398.562 128.645L240.798 69.4092L257.105 25.977L414.869 85.2125ZM360.203 102.696L360.324 103.104L360.53 103.799L360.549 103.789C362.24 108.74 365.965 112.602 370.873 114.445C375.78 116.288 381.127 115.831 385.659 113.217L385.666 113.237L386.279 112.849L386.639 112.622L386.633 112.606C389.704 110.561 392.018 107.667 393.323 104.192C396.712 95.1647 392.156 85.0737 383.168 81.6988C374.18 78.324 364.108 82.923 360.719 91.9499C359.414 95.4255 359.251 99.1269 360.218 102.685L360.204 102.694L360.203 102.696Z" fill="#6DB4BA"/>
<path d="M360.854 102.943C365.17 100.245 370.638 99.5092 375.759 101.432C380.879 103.354 384.513 107.505 385.985 112.379C381.672 115.102 376.196 115.849 371.068 113.924C365.94 111.999 362.307 107.831 360.854 102.943Z" fill="#6DB4BA"/>
<path d="M374.125 99.6529C370.581 97.0456 369.823 92.0441 372.432 88.4816C375.041 84.9191 380.029 84.1447 383.572 86.7519C387.116 89.3592 387.874 94.3608 385.265 97.9232C382.656 101.486 377.669 102.26 374.125 99.6529Z" fill="#6DB4BA"/>
<path d="M343.014 89.0818C341.805 88.1351 340.624 87.3061 339.369 86.4667C338.116 85.6515 336.861 84.8207 335.439 84.2954C334.002 83.7559 332.403 83.541 330.916 83.1946C329.39 82.8535 327.914 82.4731 326.332 82.3112C325.199 82.1638 323.828 82.3537 322.747 82.6751C321.822 82.8992 321.513 82.67 320.557 82.1402C318.785 81.0864 317.119 79.9128 315.626 78.4683C315.099 77.9659 314.484 77.3145 313.613 76.9353C312.79 76.5828 311.674 76.5725 311.049 77.2598L311.193 77.4908C312.7 77.2766 313.254 78.6211 313.947 79.7972C315.17 81.8681 317.042 83.6551 319.252 84.6646C320.09 85.0606 321.037 85.3902 322.056 85.3206C323.009 85.252 323.763 84.8423 324.503 84.494C326.376 83.5394 328.645 83.2695 330.676 84.0348C332.064 84.5271 333.212 85.5059 334.425 86.318C335.663 87.1422 337.012 87.7764 338.401 88.3442C339.838 88.9069 341.364 89.3552 342.936 89.3425L343.021 89.0847L343.014 89.0818Z" fill="white"/>
<path d="M303.62 73.3139C302.733 72.4793 301.734 71.8723 300.681 71.3261C299.653 70.8125 298.618 70.3253 297.484 70.0998C296.354 69.8726 295.13 69.8824 294.032 69.5543C292.918 69.2316 291.906 68.6809 290.944 68.0298C289.055 66.7202 286.989 65.6636 284.878 64.7838C282.688 63.9819 280.423 63.3635 278.075 63.2382L277.962 63.4856C279.647 65.1998 281.629 66.4251 283.748 67.4554C285.324 68.1605 286.997 68.6579 288.67 69.0978C290.363 69.4466 292.168 69.5908 293.723 70.3689C294.766 70.8504 295.688 71.6631 296.71 72.2237C297.73 72.7808 298.852 73.0685 299.982 73.3188C301.12 73.5463 302.286 73.694 303.539 73.5702L303.626 73.3133L303.62 73.3139Z" fill="white"/>
<path d="M261.25 47.3643C262.459 48.3111 263.64 49.14 264.895 49.9794C266.147 50.7947 267.403 51.6255 268.825 52.1507C270.262 52.6902 271.861 52.9052 273.347 53.2516C274.873 53.5926 276.35 53.973 277.931 54.135C279.065 54.2824 280.435 54.0924 281.517 53.771C282.441 53.5469 282.751 53.7762 283.706 54.306C285.478 55.3598 287.145 56.5334 288.637 57.9779C289.164 58.4802 289.78 59.1317 290.651 59.5108C291.474 59.8633 292.59 59.8736 293.214 59.1863L293.07 58.9554C291.564 59.1696 291.009 57.825 290.317 56.6489C289.094 54.5781 287.222 52.791 285.012 51.7815C284.173 51.3855 283.226 51.056 282.207 51.1256C281.255 51.1942 280.501 51.6038 279.761 51.9522C277.887 52.9067 275.618 53.1766 273.588 52.4114C272.199 51.9191 271.052 50.9402 269.838 50.1281C268.601 49.304 267.251 48.6698 265.862 48.1019C264.426 47.5393 262.9 47.0909 261.327 47.1036L261.242 47.3615L261.25 47.3643Z" fill="white"/>
<path d="M300.643 63.1318C301.531 63.9664 302.529 64.5734 303.583 65.1196C304.611 65.6332 305.646 66.1204 306.779 66.346C307.909 66.5731 309.134 66.5633 310.232 66.8914C311.346 67.2141 312.357 67.7648 313.319 68.4159C315.209 69.7255 317.274 70.7821 319.386 71.6619C321.576 72.4639 323.84 73.0822 326.189 73.2075L326.302 72.9601C324.616 71.2459 322.634 70.0206 320.516 68.9903C318.939 68.2852 317.267 67.7879 315.593 67.3479C313.9 66.9992 312.096 66.8549 310.54 66.0768C309.497 65.5953 308.576 64.7826 307.554 64.222C306.533 63.6649 305.412 63.3772 304.282 63.1269C303.143 62.8994 301.978 62.7517 300.725 62.8755L300.637 63.1324L300.643 63.1318Z" fill="white"/>
<path d="M336.692 76.4929C336.89 77.501 337.662 78.4663 338.696 78.5732C339.194 78.5835 339.769 78.3296 340.216 78.3904C340.671 78.4394 341.052 78.7013 341.427 79.065C342.034 79.6844 342.953 80.1194 343.73 80.3415C344.628 80.4933 345.117 80.2766 346.151 80.4968L346.386 80.362C346.631 79.4103 346.034 78.5106 345.313 77.9764C344.706 77.4814 343.888 77.3369 343.167 77.382C342.287 77.2893 341.305 78.0598 340.491 77.5599C339.929 77.2332 339.712 76.3052 339.008 76.1595C338.282 75.9479 337.581 75.9775 336.827 76.2566L336.692 76.4929Z" fill="white"/>
<path d="M373.23 148.495C366.109 146.935 360.745 141.833 354.883 137.797C353.385 136.76 351.794 135.754 350.167 134.896C348.462 133.972 346.569 133.203 344.602 133.036C342.024 132.9 339.852 133.148 337.363 133.005C331.428 132.762 325.678 131.609 319.938 129.753C326.157 133.531 333.561 135.474 340.872 135.607C343.278 135.617 345.225 135.528 347.397 136.555C355.987 140.383 363.236 148.537 373.234 148.491L373.23 148.495Z" fill="#6DB4BA"/>
<path d="M307.977 123.302C301.551 119.707 294.804 116.875 287.962 114.233C286.234 113.584 284.501 112.934 282.721 112.41C280.93 111.883 279.054 111.46 277.174 111.278C274.008 110.916 270.832 111.08 268.025 109.507C267.632 109.278 267.268 109.009 266.907 108.725C267.287 109.32 267.755 109.858 268.3 110.312C270.674 112.27 273.99 112.753 276.833 113.385C280.293 114.11 283.573 115.467 286.995 116.769C293.864 119.348 300.785 121.718 307.977 123.302Z" fill="#6DB4BA"/>
<path d="M287.048 126.054C289.713 130.211 295.84 133.004 300.721 132.257C298.649 130.635 296.481 129.589 294.175 128.512C291.843 127.489 289.63 126.55 287.048 126.054Z" fill="#6DB4BA"/>
<path d="M319.289 140.992C321.781 144.194 326.908 146.246 330.919 145.619C328.206 142.818 323.183 140.83 319.289 140.992Z" fill="#6DB4BA"/>
<path d="M352.077 153.525C354.14 155.326 356.4 156.633 358.784 157.856C360.435 158.687 362.179 159.432 364.04 159.649C365.03 159.763 365.936 159.712 366.772 159.683C368.409 159.628 370.048 159.644 371.297 160.945C371.133 159.437 369.696 158.384 368.347 157.924C366.67 157.349 364.926 157.358 363.336 156.802C359.628 155.508 356.068 153.905 352.077 153.525Z" fill="#6DB4BA"/>
<path d="M362.362 172.904C359.141 169.092 355.013 166.072 350.576 163.798C349.429 163.132 348.298 162.931 347.105 163.631C346.927 163.721 346.821 163.765 346.796 163.77C346.506 163.797 346.26 163.699 345.79 163.545C342.762 162.545 339.826 161.356 336.908 159.956C335.579 159.274 334.044 158.944 332.648 159.678C330.792 160.77 329.047 159.952 327.224 159.126C328.466 160.337 329.908 161.525 331.822 161.417C333.798 161.159 333.988 160.567 335.892 161.832C338.683 163.616 341.755 165.08 344.938 166.122C345.33 166.246 345.813 166.418 346.46 166.464C346.781 166.486 347.154 166.461 347.524 166.353C348.014 166.216 348.36 165.963 348.662 165.827C348.679 165.822 348.664 165.822 348.656 165.819C348.707 165.806 348.807 165.841 348.961 165.899C353.63 167.878 357.94 170.299 362.36 172.904L362.362 172.904Z" fill="#6DB4BA"/>
<path d="M309.383 154.323C307.205 151.45 304.009 149.569 300.69 148.377C299.637 148.089 297.841 147.279 296.974 148.295C297.603 148.311 297.936 148.7 298.352 149.085C298.747 149.477 299.226 149.9 299.673 150.254C302.479 152.397 305.791 154.055 309.385 154.323L309.383 154.323Z" fill="#6DB4BA"/>
<path d="M280.058 172.109C282.235 174.982 285.431 176.863 288.75 178.054C289.803 178.342 291.6 179.153 292.466 178.136C291.837 178.12 291.504 177.731 291.089 177.346C290.693 176.954 290.214 176.531 289.767 176.178C286.961 174.034 283.649 172.376 280.055 172.108L280.058 172.109Z" fill="#6DB4BA"/>
<path d="M314.367 185.742C319.779 190.017 328.647 192.596 335.512 191.855C332.151 190.175 328.699 189.114 325.153 188.058C321.589 187.065 318.105 186.119 314.365 185.741L314.367 185.742Z" fill="#6DB4BA"/>
</g>
<path d="M424.747 88.9285C428.145 97.134 429.895 105.929 429.895 114.81C429.895 123.692 428.145 132.487 424.747 140.692C421.348 148.898 416.366 156.354 410.086 162.634C403.805 168.914 396.35 173.896 388.144 177.295C379.938 180.694 371.144 182.443 362.262 182.443C353.38 182.443 344.586 180.694 336.38 177.295C328.175 173.896 320.719 168.914 314.439 162.634C308.158 156.354 303.177 148.898 299.778 140.692C296.379 132.487 294.63 123.692 294.63 114.81C294.63 105.929 296.379 97.134 299.778 88.9285C303.177 80.7229 308.158 73.2671 314.439 66.9869C320.719 60.7066 328.175 55.7248 336.38 52.3259C344.586 48.9271 353.38 47.1777 362.262 47.1777C371.144 47.1777 379.938 48.9271 388.144 52.3259C396.35 55.7248 403.805 60.7066 410.086 66.9869C416.366 73.2671 421.348 80.7229 424.747 88.9285ZM362.262 189.121C381.595 189.121 399.175 181.75 412.389 169.654L464.924 222.189C466.219 223.484 468.345 223.484 469.641 222.189C470.936 220.894 470.936 218.767 469.641 217.472L417.106 164.938C429.202 151.723 436.572 134.143 436.572 114.81C436.572 73.7611 403.311 40.5 362.262 40.5C321.213 40.5 287.952 73.7611 287.952 114.81C287.952 155.86 321.213 189.121 362.262 189.121Z" fill="white" stroke="#6AC4C5"/>
<defs>
<clipPath id="clip0_1872_11708">
<rect x="72.6425" y="123.007" width="58.2431" height="58.2431" rx="29.1215" fill="white"/>
</clipPath>
</defs>
</svg>
