<svg width="1882" height="414" viewBox="0 0 1882 414" fill="none" xmlns="http://www.w3.org/2000/svg">
<g clip-path="url(#clip0_1872_11688)">
<rect width="1882" height="414" fill="white"/>
<g opacity="0.3">
<mask id="path-1-inside-1_1872_11688" fill="white">
<path d="M1206.88 344.912C1206.96 343.99 1207.01 343.068 1207.01 342.147C1207.01 324.148 1192.66 309.503 1175.01 309.503C1157.37 309.503 1143.01 324.148 1143.01 342.147C1143.01 351.953 1147.28 360.735 1154.01 366.726C1150.44 368.748 1147.98 372.589 1147.98 377.044C1147.98 383.572 1153.18 388.872 1159.58 388.872C1161.38 388.872 1163.07 388.411 1164.57 387.669L1174.69 403.568V427.533C1174.69 428.25 1175.24 428.813 1175.94 428.813C1176.64 428.813 1177.2 428.25 1177.2 427.533V404.362C1177.5 403.953 1177.55 403.364 1177.25 402.903L1177.2 402.826V392.482C1177.2 392.482 1177.3 392.431 1177.35 392.406L1187.36 383.393C1191.22 386.875 1196.27 389 1201.82 389C1213.89 389 1223.72 378.99 1223.72 366.674C1223.72 356.126 1216.5 347.267 1206.83 344.937L1206.88 344.912ZM1166.76 386.286C1169.47 384.11 1171.22 380.782 1171.22 377.018C1171.22 376.148 1171.12 375.303 1170.95 374.483C1172.2 374.637 1173.46 374.765 1174.74 374.765V398.858L1166.76 386.286ZM1177.25 389.077V374.637C1178.6 374.535 1179.96 374.381 1181.29 374.125C1182.27 376.89 1183.75 379.399 1185.63 381.524L1177.25 389.077Z"/>
</mask>
<path d="M1206.88 344.912C1206.96 343.99 1207.01 343.068 1207.01 342.147C1207.01 324.148 1192.66 309.503 1175.01 309.503C1157.37 309.503 1143.01 324.148 1143.01 342.147C1143.01 351.953 1147.28 360.735 1154.01 366.726C1150.44 368.748 1147.98 372.589 1147.98 377.044C1147.98 383.572 1153.18 388.872 1159.58 388.872C1161.38 388.872 1163.07 388.411 1164.57 387.669L1174.69 403.568V427.533C1174.69 428.25 1175.24 428.813 1175.94 428.813C1176.64 428.813 1177.2 428.25 1177.2 427.533V404.362C1177.5 403.953 1177.55 403.364 1177.25 402.903L1177.2 402.826V392.482C1177.2 392.482 1177.3 392.431 1177.35 392.406L1187.36 383.393C1191.22 386.875 1196.27 389 1201.82 389C1213.89 389 1223.72 378.99 1223.72 366.674C1223.72 356.126 1216.5 347.267 1206.83 344.937L1206.88 344.912ZM1166.76 386.286C1169.47 384.11 1171.22 380.782 1171.22 377.018C1171.22 376.148 1171.12 375.303 1170.95 374.483C1172.2 374.637 1173.46 374.765 1174.74 374.765V398.858L1166.76 386.286ZM1177.25 389.077V374.637C1178.6 374.535 1179.96 374.381 1181.29 374.125C1182.27 376.89 1183.75 379.399 1185.63 381.524L1177.25 389.077Z" fill="#F7F7F7"/>
<path d="M1206.88 344.912L1207.34 345.802L1207.84 345.549L1207.88 344.993L1206.88 344.912ZM1154.01 366.726L1154.5 367.595L1155.71 366.907L1154.67 365.979L1154.01 366.726ZM1164.57 387.669L1165.42 387.132L1164.93 386.375L1164.13 386.772L1164.57 387.669ZM1174.69 403.568H1175.69V403.277L1175.53 403.032L1174.69 403.568ZM1177.2 404.362L1176.39 403.77L1176.2 404.034V404.362H1177.2ZM1177.25 402.903L1176.41 403.45L1176.41 403.45L1177.25 402.903ZM1177.2 402.826H1176.2V403.124L1176.36 403.373L1177.2 402.826ZM1177.2 392.482L1176.74 391.592L1176.2 391.87V392.482H1177.2ZM1177.35 392.406L1177.8 393.296L1177.92 393.237L1178.02 393.149L1177.35 392.406ZM1187.36 383.393L1188.03 382.65L1187.36 382.048L1186.69 382.65L1187.36 383.393ZM1206.83 344.937L1206.38 344.047L1203.97 345.276L1206.6 345.91L1206.83 344.937ZM1166.76 386.286L1166.13 385.507L1165.43 386.067L1165.91 386.822L1166.76 386.286ZM1170.95 374.483L1171.07 373.491L1169.67 373.32L1169.97 374.693L1170.95 374.483ZM1174.74 374.765H1175.74V373.765H1174.74V374.765ZM1174.74 398.858L1173.89 399.393L1175.74 402.299V398.858H1174.74ZM1177.25 389.077H1176.25V391.324L1177.92 389.82L1177.25 389.077ZM1177.25 374.637L1177.17 373.64L1176.25 373.71V374.637H1177.25ZM1181.29 374.125L1182.23 373.791L1181.94 372.98L1181.1 373.143L1181.29 374.125ZM1185.63 381.524L1186.3 382.267L1187.03 381.603L1186.38 380.861L1185.63 381.524ZM1207.88 344.993C1207.96 344.054 1208.01 343.104 1208.01 342.147H1206.01C1206.01 343.033 1205.96 343.926 1205.89 344.83L1207.88 344.993ZM1208.01 342.147C1208.01 323.614 1193.23 308.503 1175.01 308.503V310.503C1192.08 310.503 1206.01 324.681 1206.01 342.147H1208.01ZM1175.01 308.503C1156.8 308.503 1142.01 323.614 1142.01 342.147H1144.01C1144.01 324.681 1157.94 310.503 1175.01 310.503V308.503ZM1142.01 342.147C1142.01 352.249 1146.41 361.299 1153.34 367.472L1154.67 365.979C1148.15 360.17 1144.01 351.657 1144.01 342.147H1142.01ZM1153.51 365.856C1149.65 368.047 1146.98 372.21 1146.98 377.044H1148.98C1148.98 372.968 1151.23 369.45 1154.5 367.595L1153.51 365.856ZM1146.98 377.044C1146.98 384.106 1152.61 389.872 1159.58 389.872V387.872C1153.75 387.872 1148.98 383.039 1148.98 377.044H1146.98ZM1159.58 389.872C1161.56 389.872 1163.39 389.367 1165.01 388.566L1164.13 386.772C1162.74 387.456 1161.21 387.872 1159.58 387.872V389.872ZM1163.73 388.206L1173.84 404.105L1175.53 403.032L1165.42 387.132L1163.73 388.206ZM1173.69 403.568V427.533H1175.69V403.568H1173.69ZM1173.69 427.533C1173.69 428.783 1174.67 429.813 1175.94 429.813V427.813C1175.86 427.813 1175.81 427.785 1175.76 427.742C1175.72 427.698 1175.69 427.63 1175.69 427.533H1173.69ZM1175.94 429.813C1177.21 429.813 1178.2 428.783 1178.2 427.533H1176.2C1176.2 427.63 1176.16 427.698 1176.12 427.742C1176.08 427.785 1176.02 427.813 1175.94 427.813V429.813ZM1178.2 427.533V404.362H1176.2V427.533H1178.2ZM1178 404.954C1178.53 404.237 1178.63 403.194 1178.08 402.356L1176.41 403.45C1176.44 403.492 1176.45 403.543 1176.45 403.603C1176.44 403.666 1176.42 403.726 1176.39 403.77L1178 404.954ZM1178.08 402.356L1178.03 402.279L1176.36 403.373L1176.41 403.45L1178.08 402.356ZM1178.2 402.826V392.482H1176.2V402.826H1178.2ZM1177.2 392.482C1177.65 393.373 1177.65 393.373 1177.65 393.373C1177.65 393.373 1177.65 393.373 1177.65 393.373C1177.65 393.373 1177.65 393.373 1177.65 393.373C1177.65 393.373 1177.65 393.373 1177.65 393.373C1177.65 393.373 1177.65 393.373 1177.65 393.373C1177.65 393.373 1177.65 393.373 1177.65 393.373C1177.65 393.373 1177.65 393.373 1177.65 393.373C1177.65 393.371 1177.65 393.374 1177.65 393.373C1177.65 393.372 1177.65 393.372 1177.65 393.371C1177.66 393.371 1177.66 393.366 1177.67 393.365C1177.68 393.357 1177.69 393.354 1177.71 393.344C1177.72 393.336 1177.74 393.327 1177.76 393.319C1177.8 393.296 1177.73 393.33 1177.78 393.307C1177.79 393.303 1177.79 393.3 1177.8 393.296L1176.89 391.515C1176.87 391.525 1176.82 391.549 1176.8 391.563C1176.79 391.568 1176.8 391.563 1176.79 391.569C1176.75 391.586 1176.81 391.557 1176.78 391.574C1176.77 391.576 1176.77 391.577 1176.77 391.579C1176.76 391.58 1176.77 391.578 1176.76 391.58C1176.76 391.58 1176.76 391.58 1176.76 391.581C1176.76 391.583 1176.77 391.579 1176.76 391.581C1176.76 391.583 1176.76 391.581 1176.76 391.583C1176.75 391.585 1176.75 391.589 1176.75 391.589C1176.74 391.59 1176.74 391.59 1176.74 391.591C1176.74 391.591 1176.74 391.591 1176.74 391.591C1176.74 391.591 1176.74 391.591 1176.74 391.591C1176.74 391.591 1176.74 391.591 1176.74 391.591C1176.74 391.591 1176.74 391.591 1176.74 391.591C1176.74 391.591 1176.74 391.591 1176.74 391.591C1176.74 391.591 1176.74 391.591 1176.74 391.591C1176.74 391.591 1176.74 391.591 1176.74 391.591C1176.74 391.591 1176.74 391.591 1176.74 391.591C1176.74 391.592 1176.74 391.591 1176.74 391.592C1176.74 391.592 1176.74 391.592 1176.74 391.592C1176.74 391.592 1176.74 391.592 1176.74 391.592C1176.74 391.592 1176.74 391.592 1177.2 392.482ZM1178.02 393.149L1188.03 384.137L1186.69 382.65L1176.68 391.662L1178.02 393.149ZM1186.69 384.136C1190.73 387.773 1196.01 390 1201.82 390V388C1196.53 388 1191.72 385.977 1188.03 382.65L1186.69 384.136ZM1201.82 390C1214.46 390 1224.72 379.524 1224.72 366.674H1222.72C1222.72 378.455 1213.32 388 1201.82 388V390ZM1224.72 366.674C1224.72 355.663 1217.18 346.403 1207.07 343.965L1206.6 345.91C1215.81 348.131 1222.72 356.589 1222.72 366.674H1224.72ZM1207.29 345.828L1207.34 345.802L1206.43 344.021L1206.38 344.047L1207.29 345.828ZM1167.38 387.066C1170.31 384.711 1172.22 381.102 1172.22 377.018H1170.22C1170.22 380.461 1168.62 383.509 1166.13 385.507L1167.38 387.066ZM1172.22 377.018C1172.22 376.07 1172.11 375.155 1171.92 374.274L1169.97 374.693C1170.13 375.451 1170.22 376.225 1170.22 377.018H1172.22ZM1170.83 375.476C1172.09 375.631 1173.39 375.765 1174.74 375.765V373.765C1173.52 373.765 1172.31 373.643 1171.07 373.491L1170.83 375.476ZM1173.74 374.765V398.858H1175.74V374.765H1173.74ZM1175.58 398.322L1167.6 385.75L1165.91 386.822L1173.89 399.393L1175.58 398.322ZM1178.25 389.077V374.637H1176.25V389.077H1178.25ZM1177.32 375.634C1178.7 375.53 1180.1 375.372 1181.48 375.107L1181.1 373.143C1179.82 373.389 1178.5 373.539 1177.17 373.64L1177.32 375.634ZM1180.34 374.459C1181.36 377.343 1182.91 379.965 1184.88 382.187L1186.38 380.861C1184.58 378.834 1183.17 376.437 1182.23 373.791L1180.34 374.459ZM1184.96 380.781L1176.58 388.334L1177.92 389.82L1186.3 382.267L1184.96 380.781Z" fill="#9E9E9E" mask="url(#path-1-inside-1_1872_11688)"/>
<path d="M409.75 335.596V336.096H410.25H464.584C465.001 336.096 465.339 336.426 465.339 336.876V421.546C465.339 421.996 465.001 422.326 464.584 422.326H158.333C157.916 422.326 157.578 421.996 157.578 421.546V190.734C157.578 190.284 157.916 189.954 158.333 189.954H181.296H181.796V189.454V135.303C181.796 134.937 182.068 134.628 182.412 134.566L182.825 134.493V134.446H196.605H197.105V133.946V102.045C197.105 101.594 197.443 101.265 197.86 101.265H209.404H209.904V100.765V88.5263C209.904 88.076 210.242 87.7461 210.659 87.7461H236.684C237.101 87.7461 237.439 88.076 237.439 88.5263V100.765V101.265H237.939H253.197C253.614 101.265 253.952 101.594 253.952 102.045V123.526V124.026H254.452H267.477H267.977V123.526V112.132C267.977 111.682 268.315 111.352 268.732 111.352H294.757C295.174 111.352 295.512 111.682 295.512 112.132V123.526V124.026H296.012H304.921H305.421V123.526V112.132C305.421 111.682 305.759 111.352 306.176 111.352H332.201C332.618 111.352 332.955 111.682 332.955 112.132V123.526V124.026H333.455H342.842H343.342V123.526V112.132C343.342 111.682 343.679 111.352 344.096 111.352H370.121C370.538 111.352 370.876 111.682 370.876 112.132V123.526V124.026H371.376H387.413C387.83 124.026 388.167 124.356 388.167 124.806V144.111V144.611H388.667H408.996C409.413 144.611 409.75 144.941 409.75 145.391V163.364V163.864H410.25H427.241C427.658 163.864 427.995 164.194 427.995 164.644V189.53C427.995 189.981 427.658 190.311 427.241 190.311H410.25H409.75V190.811V206.557V207.057H410.25H426.814C427.231 207.057 427.569 207.387 427.569 207.837V232.723C427.569 233.173 427.231 233.503 426.814 233.503H410.25H409.75V234.003V252.335V252.835H410.25H426.814C427.231 252.835 427.569 253.165 427.569 253.615V278.501C427.569 278.951 427.231 279.281 426.814 279.281H410.25H409.75V279.781V298.113V298.613H410.25H426.814C427.231 298.613 427.569 298.943 427.569 299.393V324.28C427.569 324.73 427.231 325.06 426.814 325.06H410.25H409.75V325.56V335.596Z" fill="#F7F7F7" stroke="#9E9E9E"/>
<path d="M1133.82 288.777H1133.32V288.802H1128.72H1128.22V289.302V304.459V304.959H1128.72H1133.82C1134.23 304.959 1134.57 305.289 1134.57 305.74V323.79C1134.57 324.24 1134.23 324.57 1133.82 324.57H1128.72H1128.22V325.07V340.227V340.727H1128.72H1133.82C1134.23 340.727 1134.57 341.057 1134.57 341.507V359.557C1134.57 360.007 1134.23 360.337 1133.82 360.337H1128.72H1128.22V360.837V376.02V376.52H1128.72H1133.82C1134.23 376.52 1134.57 376.85 1134.57 377.3V395.35C1134.57 395.801 1134.23 396.131 1133.82 396.131H1128.72H1128.22V396.631V411.532V412.032H1128.72H1133.82C1134.23 412.032 1134.57 412.362 1134.57 412.812V430.273C1134.57 430.723 1134.23 431.053 1133.82 431.053H1098.91H1098.41V431.553V437.032C1098.41 437.482 1098.07 437.812 1097.65 437.812H1081.27H1080.77V438.312V445.328V445.828H1081.27H1085.96C1086.38 445.828 1086.71 446.158 1086.71 446.608V457.592C1086.71 458.042 1086.38 458.372 1085.96 458.372H981.457C981.04 458.372 980.702 458.042 980.702 457.592V446.608C980.702 446.158 981.04 445.828 981.457 445.828H986.15H986.65V445.328V438.312V437.812H986.15H897.886C897.469 437.812 897.131 437.482 897.131 437.032V427.866C897.131 427.416 897.469 427.086 897.886 427.086H901.4H901.9V426.586V244.215C901.9 243.765 902.237 243.435 902.654 243.435H911.463H911.963V242.935V236.56C911.963 236.11 912.301 235.78 912.718 235.78H969.637C970.054 235.78 970.392 236.11 970.392 236.56V242.935V243.435H970.892H978.922C979.34 243.435 979.677 243.765 979.677 244.215V268.666V269.166H980.177H992.223H992.723V268.666V255.813C992.723 255.363 993.061 255.033 993.478 255.033H1113.29C1113.71 255.033 1114.04 255.363 1114.04 255.813V268.666V269.166H1114.54H1133.82C1134.23 269.166 1134.57 269.496 1134.57 269.946V287.997C1134.57 288.447 1134.23 288.777 1133.82 288.777Z" fill="#F7F7F7" stroke="#9E9E9E"/>
<path d="M845.586 404.89L845.561 404.916H846.752C847.169 404.916 847.506 405.246 847.506 405.696V420.699C847.506 421.149 847.169 421.479 846.752 421.479H484.912C484.495 421.479 484.157 421.149 484.157 420.699V405.696C484.157 405.246 484.495 404.916 484.912 404.916H493.871H494.371V404.416V330.115C494.371 329.665 494.709 329.335 495.126 329.335H522.883H523.383V328.835V168.176C523.383 167.726 523.721 167.396 524.138 167.396H544.516H545.016V166.896V79.7427C545.016 79.2925 545.354 78.9625 545.771 78.9625H564.392H564.892V78.4625V47.0731C564.892 46.6229 565.23 46.293 565.647 46.293H597.67C598.087 46.293 598.425 46.6229 598.425 47.0731V78.4625V78.9625H598.925H617.546C617.964 78.9625 618.301 79.2925 618.301 79.7427V166.896V167.396H618.801H639.179C639.597 167.396 639.934 167.726 639.934 168.176V338.564V339.064H640.434H654.363H654.863V338.564V215.644C654.863 215.426 654.954 215.227 655.102 215.091L655.163 215.035L655.202 214.964C655.305 214.776 655.542 214.516 656.139 214.215C656.737 213.914 657.658 213.592 659.072 213.263C661.898 212.606 666.605 211.943 674.429 211.329L674.43 211.329C681.47 210.767 689.892 210.383 699.048 210.127L699.534 210.113V209.627V172.093C699.534 171.643 699.872 171.313 700.289 171.313H720.316H720.816V170.813V146.029C720.816 145.579 721.154 145.249 721.571 145.249H735.524H736.024V144.749V127.16C736.024 126.709 736.362 126.379 736.779 126.379H776.984C777.401 126.379 777.739 126.709 777.739 127.16V144.749V145.249H778.239H792.192C792.609 145.249 792.947 145.579 792.947 146.029V170.813V171.313H793.447H813.474C813.891 171.313 814.229 171.643 814.229 172.093V404.39V404.89H814.729H845.586Z" fill="#F7F7F7" stroke="#9E9E9E"/>
<path d="M82.4145 363.026V362.542L81.9309 362.526C68.9002 362.1 58.4475 351.696 58.4475 337.807C58.4475 330.813 61.1049 318.674 65.5225 308.28C67.7299 303.087 70.363 298.362 73.2976 294.945C76.2403 291.518 79.4189 289.481 82.7176 289.481C86.0164 289.481 89.1949 291.518 92.1377 294.945C95.0722 298.362 97.7054 303.087 99.9128 308.28C104.33 318.674 106.988 330.813 106.988 337.807C106.988 350.888 96.9714 361.598 84.3894 362.476L83.9242 362.508V362.974V401.353C83.9242 401.804 83.5865 402.134 83.1694 402.134C82.7522 402.134 82.4145 401.804 82.4145 401.353V363.026Z" fill="#F7F7F7" stroke="#9E9E9E"/>
<path d="M49.0151 355.191V355.691H49.0354C48.784 368.545 38.8633 378.994 26.4419 379.86L25.9767 379.893V380.359V418.738C25.9767 419.188 25.639 419.518 25.2219 419.518C24.8047 419.518 24.467 419.188 24.467 418.738V380.41V379.926L23.9834 379.911C10.9527 379.484 0.5 369.081 0.5 355.191C0.5 348.197 3.15119 336.058 7.56253 325.665C9.7668 320.471 12.3968 315.747 15.329 312.33C18.2694 308.903 21.4464 306.866 24.745 306.866C28.0438 306.866 31.2223 308.903 34.1651 312.33C37.0996 315.747 39.7328 320.471 41.9402 325.665C46.3578 336.059 49.0151 348.197 49.0151 355.191Z" fill="#F7F7F7" stroke="#9E9E9E"/>
<path d="M1287.65 345.428L1288.06 345.456L1288 345.947C1296.19 347.991 1302.28 355.498 1302.28 364.459C1302.28 374.972 1293.88 383.52 1283.6 383.52C1278.94 383.52 1274.66 381.752 1271.39 378.833L1271.05 378.536L1270.72 378.835L1262.06 386.618L1261.9 386.767V386.99V417.33C1261.9 417.78 1261.56 418.11 1261.14 418.11C1260.73 418.11 1260.39 417.78 1260.39 417.33V387.195V387.066L1260.33 386.954C1260.18 386.689 1260.19 386.417 1260.32 386.194L1260.39 386.077V385.94V371.679V371.187L1259.9 371.18C1244.97 370.953 1232.86 358.637 1232.86 343.183C1232.86 327.73 1245.19 315.161 1260.31 315.161C1275.44 315.161 1287.77 327.73 1287.77 343.183C1287.77 343.75 1287.73 344.312 1287.69 344.884C1287.67 345.064 1287.66 345.245 1287.65 345.428ZM1261.9 371.603V372.139V383.559V384.68L1262.73 383.931L1269.61 377.761L1269.97 377.433L1269.65 377.061C1268.14 375.316 1266.91 373.244 1266.11 370.998L1265.96 370.585L1265.53 370.679C1264.51 370.903 1263.45 371.028 1262.36 371.104L1262.4 371.577H1261.9V371.603Z" fill="#F7F7F7" stroke="#9E9E9E"/>
<path d="M879.982 355.835L880.395 355.863L880.335 356.354C888.52 358.398 894.612 365.906 894.612 374.867C894.612 385.379 886.219 393.927 875.939 393.927C871.274 393.927 866.999 392.159 863.723 389.241L863.389 388.943L863.056 389.242L854.398 397.026L854.232 397.175V397.397V427.737C854.232 428.187 853.895 428.517 853.477 428.517C853.06 428.517 852.723 428.187 852.723 427.737V397.602V397.473L852.66 397.361C852.515 397.096 852.523 396.824 852.654 396.601L852.723 396.484V396.348V382.087V381.594L852.23 381.587C837.302 381.361 825.192 369.044 825.192 353.59C825.192 338.137 837.526 325.569 852.649 325.569C867.773 325.569 880.107 338.137 880.107 353.59C880.107 354.157 880.065 354.718 880.022 355.29C880.008 355.471 879.995 355.652 879.982 355.835ZM854.232 382.01V382.546V393.967V395.087L855.066 394.339L861.943 388.168L862.309 387.84L861.986 387.468C860.471 385.723 859.247 383.651 858.44 381.406L858.292 380.992L857.863 381.086C856.84 381.31 855.787 381.435 854.698 381.511L854.73 381.984H854.232V382.01Z" fill="#F7F7F7" stroke="#9E9E9E"/>
<path d="M1869.09 404.89L1869.07 404.916H1870.26C1870.67 404.916 1871.01 405.246 1871.01 405.696V420.699C1871.01 421.149 1870.67 421.479 1870.26 421.479H1508.42C1508 421.479 1507.66 421.149 1507.66 420.699V405.696C1507.66 405.246 1508 404.916 1508.42 404.916H1517.38H1517.88V404.416V330.115C1517.88 329.665 1518.21 329.335 1518.63 329.335H1546.39H1546.89V328.835V168.176C1546.89 167.726 1547.23 167.396 1547.64 167.396H1568.02H1568.52V166.896V79.7427C1568.52 79.2925 1568.86 78.9625 1569.28 78.9625H1587.9H1588.4V78.4625V47.0731C1588.4 46.6229 1588.74 46.293 1589.15 46.293H1621.18C1621.59 46.293 1621.93 46.6229 1621.93 47.0731V78.4625V78.9625H1622.43H1641.05C1641.47 78.9625 1641.81 79.2925 1641.81 79.7427V166.896V167.396H1642.31H1662.69C1663.1 167.396 1663.44 167.726 1663.44 168.176V338.564V339.064H1663.94H1677.87H1678.37V338.564V215.644C1678.37 215.426 1678.46 215.227 1678.61 215.091L1678.67 215.035L1678.71 214.964C1678.81 214.776 1679.05 214.516 1679.65 214.215C1680.24 213.914 1681.16 213.592 1682.58 213.263C1685.4 212.606 1690.11 211.943 1697.93 211.329L1697.94 211.329C1704.98 210.767 1713.4 210.383 1722.55 210.127L1723.04 210.113V209.627V172.093C1723.04 171.643 1723.38 171.313 1723.79 171.313H1743.82H1744.32V170.813V146.029C1744.32 145.579 1744.66 145.249 1745.08 145.249H1759.03H1759.53V144.749V127.16C1759.53 126.709 1759.87 126.379 1760.29 126.379H1800.49C1800.91 126.379 1801.24 126.709 1801.24 127.16V144.749V145.249H1801.74H1815.7C1816.12 145.249 1816.45 145.579 1816.45 146.029V170.813V171.313H1816.95H1836.98C1837.4 171.313 1837.73 171.643 1837.73 172.093V404.39V404.89H1838.23H1869.09Z" fill="#F7F7F7" stroke="#9E9E9E"/>
</g>
<path d="M-2.05314 420H60.3765C84.6982 420 78.8437 401.2 69.3876 399.403C69.3876 399.403 71.6133 382.52 54.0499 379.838C36.4865 377.157 33.3974 394.924 33.3974 394.924C33.3974 394.924 31.6842 384.183 16.8187 384.183C1.95324 384.183 0.0242176 398.612 0.0242176 398.612C0.0242176 398.612 -17.0805 397.888 -19.5356 407.918C-22.5033 420 -10.6055 420 -2.05314 420Z" fill="white" stroke="#9E9E9E" stroke-miterlimit="10"/>
<path d="M285.477 419.226C307.445 419.226 315.69 417.09 316.904 411.288C318.125 405.487 307.752 403.878 307.752 403.878C307.752 403.878 306.302 390.973 297.45 390.991C287.068 391.008 285.477 399.913 285.477 399.913C285.477 399.913 283.024 392.415 275.86 393.9C267.008 395.729 269.003 403.834 269.003 403.834C269.003 403.834 267.474 393.127 257.716 395.263C247.949 397.399 250.613 406.322 250.613 406.322C250.613 406.322 239.326 406.322 239.326 412.422C239.326 418.523 263.025 419.226 285.494 419.226H285.477Z" fill="white" stroke="#9E9E9E" stroke-miterlimit="10"/>
<path d="M486.684 316.27C507.612 316.27 515.828 343.584 515.828 356.973C515.828 370.362 512.162 385.01 486.684 385.01C461.207 385.01 457.54 370.362 457.54 356.973C457.54 343.584 465.75 316.27 486.684 316.27Z" fill="white" stroke="#9E9E9E" stroke-miterlimit="10"/>
<path d="M486.684 326.793V410.7" stroke="#9E9E9E" stroke-width="4.55" stroke-linecap="round" stroke-linejoin="round"/>
<path d="M494.871 339.876L487.29 347.457" stroke="#9E9E9E" stroke-width="4.55" stroke-linecap="round" stroke-linejoin="round"/>
<path d="M486.684 354.43L475.325 343.077" stroke="#9E9E9E" stroke-width="4.55" stroke-linecap="round" stroke-linejoin="round"/>
<path d="M486.684 362.205L500.044 352.647" stroke="#9E9E9E" stroke-width="4.55" stroke-linecap="round" stroke-linejoin="round"/>
<path d="M486.684 373.811L471.977 361.893" stroke="#9E9E9E" stroke-width="4.55" stroke-linecap="round" stroke-linejoin="round"/>
<path d="M486.684 376.359L499.755 367.325" stroke="#9E9E9E" stroke-width="4.55" stroke-linecap="round" stroke-linejoin="round"/>
<path d="M518.457 419.121C538.346 419.121 545.811 417.658 546.909 413.684C548.016 409.71 538.624 408.608 538.624 408.608C538.624 408.608 537.311 399.769 529.297 399.781C519.898 399.793 518.457 405.893 518.457 405.893C518.457 405.893 516.237 400.757 509.75 401.774C501.736 403.027 503.543 408.578 503.543 408.578C503.543 408.578 502.158 401.244 493.324 402.707C484.482 404.171 486.893 410.282 486.893 410.282C486.893 410.282 476.674 410.282 476.674 414.461C476.674 418.639 498.131 419.121 518.473 419.121H518.457Z" fill="white" stroke="#9E9E9E" stroke-miterlimit="10"/>
<path d="M138.25 269.653C169.51 269.653 181.782 310.45 181.782 330.449C181.782 350.448 176.305 372.328 138.25 372.328C100.195 372.328 94.7185 350.448 94.7185 330.449C94.7185 310.45 106.982 269.653 138.25 269.653Z" fill="white" stroke="#9E9E9E" stroke-miterlimit="10"/>
<path d="M138.25 285.371V410.7" stroke="#9E9E9E" stroke-width="4.55" stroke-linecap="round" stroke-linejoin="round"/>
<path d="M150.478 304.912L139.156 316.235" stroke="#9E9E9E" stroke-width="4.55" stroke-linecap="round" stroke-linejoin="round"/>
<path d="M138.25 326.652L121.284 309.694" stroke="#9E9E9E" stroke-width="4.55" stroke-linecap="round" stroke-linejoin="round"/>
<path d="M138.25 338.264L158.205 323.988" stroke="#9E9E9E" stroke-width="4.55" stroke-linecap="round" stroke-linejoin="round"/>
<path d="M138.25 355.6L116.282 337.798" stroke="#9E9E9E" stroke-width="4.55" stroke-linecap="round" stroke-linejoin="round"/>
<path d="M138.25 359.406L157.774 345.912" stroke="#9E9E9E" stroke-width="4.55" stroke-linecap="round" stroke-linejoin="round"/>
<path d="M191.759 366.376H188.594V395.711H191.759V366.376Z" fill="white" stroke="#9E9E9E" stroke-miterlimit="10"/>
<path d="M260.362 366.376H257.197V395.711H260.362V366.376Z" fill="white" stroke="#9E9E9E" stroke-miterlimit="10"/>
<path d="M268.405 380.09H180.551V387.633H268.405V380.09Z" fill="white" stroke="#9E9E9E" stroke-miterlimit="10"/>
<path d="M268.405 368.108H180.551V375.651H268.405V368.108Z" fill="white" stroke="#9E9E9E" stroke-miterlimit="10"/>
<path d="M268.405 391.94H180.551V395.711H268.405V391.94Z" fill="white" stroke="#9E9E9E" stroke-miterlimit="10"/>
<path d="M191.759 371.879C191.759 372.75 191.047 373.462 190.177 373.462C189.307 373.462 188.594 372.75 188.594 371.879C188.594 371.009 189.298 370.297 190.177 370.297C191.056 370.297 191.759 371.009 191.759 371.879Z" fill="white" stroke="#9E9E9E" stroke-miterlimit="10"/>
<path d="M191.759 383.852C191.759 384.723 191.047 385.435 190.177 385.435C189.307 385.435 188.594 384.723 188.594 383.852C188.594 382.982 189.298 382.27 190.177 382.27C191.056 382.27 191.759 382.982 191.759 383.852Z" fill="white" stroke="#9E9E9E" stroke-miterlimit="10"/>
<path d="M258.779 373.462C259.653 373.462 260.362 372.753 260.362 371.879C260.362 371.006 259.653 370.297 258.779 370.297C257.905 370.297 257.197 371.006 257.197 371.879C257.197 372.753 257.905 373.462 258.779 373.462Z" fill="white" stroke="#9E9E9E" stroke-miterlimit="10"/>
<path d="M260.362 383.852C260.362 384.723 259.65 385.435 258.779 385.435C257.909 385.435 257.197 384.723 257.197 383.852C257.197 382.982 257.909 382.27 258.779 382.27C259.65 382.27 260.362 382.982 260.362 383.852Z" fill="white" stroke="#9E9E9E" stroke-miterlimit="10"/>
<path d="M186.168 412.704L191.759 395.711H187.803L182.221 412.704H186.168Z" fill="white" stroke="#9E9E9E" stroke-miterlimit="10"/>
<path d="M262.788 412.704L257.197 395.711H261.153L266.735 412.704H262.788Z" fill="white" stroke="#9E9E9E" stroke-miterlimit="10"/>
<path d="M166.829 419.121C186.718 419.121 194.183 417.658 195.281 413.684C196.388 409.71 186.996 408.608 186.996 408.608C186.996 408.608 185.683 399.769 177.669 399.781C168.27 399.793 166.829 405.893 166.829 405.893C166.829 405.893 164.609 400.757 158.122 401.774C150.108 403.027 151.915 408.578 151.915 408.578C151.915 408.578 150.53 401.244 141.696 402.707C132.854 404.171 135.265 410.282 135.265 410.282C135.265 410.282 125.046 410.282 125.046 414.461C125.046 418.639 146.503 419.121 166.845 419.121H166.829Z" fill="white" stroke="#9E9E9E" stroke-miterlimit="10"/>
<path d="M1422.77 6H1419.83V29.1199H1422.77V6Z" fill="white" stroke="#9E9E9E" stroke-miterlimit="10"/>
<path d="M1422.8 25.0537H1419.83C1418.53 25.0537 1417.48 26.1269 1417.48 27.4507V38.4948C1417.48 39.8186 1418.53 40.8918 1419.83 40.8918H1422.8C1424.1 40.8918 1425.15 39.8186 1425.15 38.4948V27.4507C1425.15 26.1269 1424.1 25.0537 1422.8 25.0537Z" fill="white" stroke="#9E9E9E" stroke-miterlimit="10"/>
<path d="M1423.28 35.3398H1419.32C1417.24 35.3398 1415.55 37.065 1415.55 39.1932V58.7935C1415.55 60.9217 1417.24 62.6468 1419.32 62.6468H1423.28C1425.37 62.6468 1427.06 60.9217 1427.06 58.7935V39.1932C1427.06 37.065 1425.37 35.3398 1423.28 35.3398Z" fill="white" stroke="#9E9E9E" stroke-width="1.09" stroke-miterlimit="10"/>
<path fill-rule="evenodd" clip-rule="evenodd" d="M1430.51 60.736L1432.62 68.4123C1432.62 69.5349 1431.73 70.4451 1430.63 70.4451H1412.01C1410.91 70.4451 1410.02 69.5349 1410.02 68.4123L1412.13 60.736C1412.13 59.6134 1413.02 58.7031 1414.12 58.7031H1428.51C1429.61 58.7031 1430.51 59.6134 1430.51 60.736Z" fill="white" stroke="#9E9E9E" stroke-miterlimit="10"/>
<path fill-rule="evenodd" clip-rule="evenodd" d="M1445.47 111.587H1397.14L1393.81 83.9463H1448.8L1445.47 111.587Z" fill="white" stroke="#9E9E9E" stroke-miterlimit="10"/>
<path fill-rule="evenodd" clip-rule="evenodd" d="M1435.5 70.9598L1438.77 74.8131C1438.77 75.3896 1437.41 75.8447 1435.68 75.8447H1406.92C1405.23 75.8447 1403.83 75.3896 1403.83 74.8131L1407.1 70.9598C1407.1 70.3833 1408.47 69.9282 1410.19 69.9282H1432.44C1434.14 69.9282 1435.53 70.3833 1435.53 70.9598H1435.5Z" fill="white" stroke="#9E9E9E" stroke-miterlimit="10"/>
<path fill-rule="evenodd" clip-rule="evenodd" d="M1449.36 84.8257H1393.24L1391.61 75.1772H1451L1449.36 84.8257Z" fill="white" stroke="#9E9E9E" stroke-miterlimit="10"/>
<path fill-rule="evenodd" clip-rule="evenodd" d="M1445.47 143.718H1397.14L1393.81 116.077H1448.8L1445.47 143.718Z" fill="white" stroke="#9E9E9E" stroke-miterlimit="10"/>
<path fill-rule="evenodd" clip-rule="evenodd" d="M1449.36 116.928H1393.24L1391.61 107.31H1451L1449.36 116.928Z" fill="white" stroke="#9E9E9E" stroke-miterlimit="10"/>
<path fill-rule="evenodd" clip-rule="evenodd" d="M1445.47 175.85H1397.14L1393.81 148.209H1448.8L1445.47 175.85Z" fill="white" stroke="#9E9E9E" stroke-miterlimit="10"/>
<path fill-rule="evenodd" clip-rule="evenodd" d="M1449.36 149.059H1393.24L1391.61 139.44H1451L1449.36 149.059Z" fill="white" stroke="#9E9E9E" stroke-miterlimit="10"/>
<path fill-rule="evenodd" clip-rule="evenodd" d="M1445.47 207.95H1397.14L1393.81 180.34H1448.8L1445.47 207.95Z" fill="white" stroke="#9E9E9E" stroke-miterlimit="10"/>
<path fill-rule="evenodd" clip-rule="evenodd" d="M1449.36 181.189H1393.24L1391.61 171.541H1451L1449.36 181.189Z" fill="white" stroke="#9E9E9E" stroke-miterlimit="10"/>
<path fill-rule="evenodd" clip-rule="evenodd" d="M1445.47 240.081H1397.14L1393.81 212.471H1448.8L1445.47 240.081Z" fill="white" stroke="#9E9E9E" stroke-miterlimit="10"/>
<path fill-rule="evenodd" clip-rule="evenodd" d="M1449.36 213.32H1393.24L1391.61 203.672H1451L1449.36 213.32Z" fill="white" stroke="#9E9E9E" stroke-miterlimit="10"/>
<path fill-rule="evenodd" clip-rule="evenodd" d="M1445.47 272.213H1397.14L1393.81 244.603H1448.8L1445.47 272.213Z" fill="white" stroke="#9E9E9E" stroke-miterlimit="10"/>
<path fill-rule="evenodd" clip-rule="evenodd" d="M1449.36 245.453H1393.24L1391.61 235.804H1451L1449.36 245.453Z" fill="white" stroke="#9E9E9E" stroke-miterlimit="10"/>
<path fill-rule="evenodd" clip-rule="evenodd" d="M1445.47 304.345H1397.14L1393.81 276.704H1448.8L1445.47 304.345Z" fill="white" stroke="#9E9E9E" stroke-miterlimit="10"/>
<path fill-rule="evenodd" clip-rule="evenodd" d="M1449.36 277.584H1393.24L1391.61 267.935H1451L1449.36 277.584Z" fill="white" stroke="#9E9E9E" stroke-miterlimit="10"/>
<path fill-rule="evenodd" clip-rule="evenodd" d="M1445.47 336.476H1397.14L1393.81 308.835H1448.8L1445.47 336.476Z" fill="white" stroke="#9E9E9E" stroke-miterlimit="10"/>
<path fill-rule="evenodd" clip-rule="evenodd" d="M1449.36 309.684H1393.24L1391.61 300.066H1451L1449.36 309.684Z" fill="white" stroke="#9E9E9E" stroke-miterlimit="10"/>
<path fill-rule="evenodd" clip-rule="evenodd" d="M1397.14 334.897H1445.47L1457.24 405.805H1385.36L1397.14 334.897Z" fill="white" stroke="#9E9E9E" stroke-miterlimit="10"/>
<path fill-rule="evenodd" clip-rule="evenodd" d="M1384.83 404.015H1457.78L1459.44 412.268H1383.16L1384.83 404.015Z" fill="white" stroke="#9E9E9E" stroke-miterlimit="10"/>
<path d="M1421.29 360.506C1425.92 360.506 1429.67 356.675 1429.67 351.95C1429.67 347.224 1425.92 343.394 1421.29 343.394C1416.66 343.394 1412.9 347.224 1412.9 351.95C1412.9 356.675 1416.66 360.506 1421.29 360.506Z" fill="white" stroke="#9E9E9E" stroke-miterlimit="10"/>
<path d="M1428.57 370.822H1414.03V403.712H1428.57V370.822Z" fill="white" stroke="#9E9E9E" stroke-miterlimit="10"/>
<path d="M1529.68 322.27C1550.61 322.27 1558.83 349.583 1558.83 362.972C1558.83 376.361 1555.16 391.01 1529.68 391.01C1504.21 391.01 1500.54 376.361 1500.54 362.972C1500.54 349.583 1508.75 322.27 1529.68 322.27Z" fill="white" stroke="#9E9E9E" stroke-miterlimit="10"/>
<path d="M1529.68 332.793V416.7" stroke="#9E9E9E" stroke-width="4.55" stroke-linecap="round" stroke-linejoin="round"/>
<path d="M1537.87 345.876L1530.29 353.456" stroke="#9E9E9E" stroke-width="4.55" stroke-linecap="round" stroke-linejoin="round"/>
<path d="M1529.68 360.43L1518.33 349.077" stroke="#9E9E9E" stroke-width="4.55" stroke-linecap="round" stroke-linejoin="round"/>
<path d="M1529.68 368.205L1543.04 358.647" stroke="#9E9E9E" stroke-width="4.55" stroke-linecap="round" stroke-linejoin="round"/>
<path d="M1529.68 379.81L1514.98 367.893" stroke="#9E9E9E" stroke-width="4.55" stroke-linecap="round" stroke-linejoin="round"/>
<path d="M1529.68 382.359L1542.76 373.325" stroke="#9E9E9E" stroke-width="4.55" stroke-linecap="round" stroke-linejoin="round"/>
<path d="M825.021 385.384C825.064 384.85 825.119 384.31 825.212 383.781C825.261 383.486 825.31 383.152 825.457 382.89C825.725 382.411 826.576 382.294 827.045 382.178C827.083 382.166 827.122 382.161 827.165 382.15C826.854 376.671 826.609 371.148 827.335 365.692C827.662 363.237 828.197 360.804 828.972 358.454C828.83 358.293 828.873 357.992 829.119 357.992C829.135 357.936 829.152 357.886 829.168 357.831C829.965 355.576 831.089 353.471 832.961 351.968C834.658 350.604 836.71 349.802 838.768 349.19C841.289 348.438 843.876 347.865 846.441 347.291C851.947 346.055 857.503 345.036 863.08 344.201C865.258 343.878 867.435 343.589 869.618 343.321C869.618 343.316 869.618 343.31 869.618 343.305C871.201 339.229 872.587 335.076 874.072 330.967C876.184 325.143 878.35 319.331 880.779 313.629C881.843 311.13 882.956 308.641 884.206 306.23C885.09 304.526 886.04 302.778 887.3 301.325C887.682 300.885 888.119 300.445 888.648 300.184C889.511 299.755 890.586 299.616 891.513 299.41C894.182 298.814 896.894 298.402 899.607 298.079C906.232 297.283 912.917 296.994 919.586 296.882C926.501 296.771 933.421 296.893 940.33 297.205C945.853 297.456 951.386 297.801 956.882 298.452C958.607 298.658 960.342 298.881 962.045 299.232C963.387 299.51 964.67 299.978 965.93 300.512C971.339 302.812 976.332 306.358 980.131 310.924C982.766 314.097 984.726 317.733 986.052 321.663C987.563 326.145 988.175 330.839 988.71 335.527C988.982 337.915 989.25 340.309 989.599 342.692C989.921 342.698 990.238 342.709 990.56 342.715C990.62 342.715 990.663 342.737 990.707 342.765C990.712 342.765 990.718 342.765 990.723 342.765C994.598 343.828 998.587 344.479 1002.53 345.198C1007.17 346.044 1011.83 346.862 1016.43 347.904C1018.29 348.327 1020.17 348.783 1021.99 349.373C1023.09 349.73 1024.16 350.158 1025.23 350.582C1026.64 351.138 1028.05 351.706 1029.44 352.319C1031.5 353.226 1033.61 354.2 1035.39 355.62C1035.98 356.088 1036.54 356.628 1036.94 357.274C1037.61 358.365 1037.86 359.757 1038.09 361.004C1039.12 366.766 1039.5 372.629 1040.01 378.458C1040.09 379.299 1040.17 380.134 1040.24 380.975C1040.24 381.003 1040.24 381.031 1040.23 381.053C1041.81 381.12 1043.34 381.465 1044.44 382.773C1044.9 383.313 1045.28 383.898 1045.49 384.577C1045.69 385.195 1045.78 385.852 1045.83 386.498C1045.94 387.934 1045.85 389.393 1045.66 390.818C1045.59 391.386 1045.5 391.949 1045.37 392.505C1045.3 392.806 1045.23 393.168 1045.05 393.424C1044.91 393.63 1044.66 393.669 1044.43 393.714C1043.99 393.797 1043.55 393.853 1043.1 393.897C1040.09 394.231 1037.01 394.354 1033.98 394.187C1033.61 394.165 1033.25 394.142 1032.88 394.103C1032.55 394.07 1032.11 394.081 1031.81 393.925C1031.38 393.702 1031.37 393.09 1031.3 392.661C1031.28 392.561 1031.27 392.455 1031.25 392.35C1024.77 392.361 1018.28 392.372 1011.79 392.377C1010.01 392.377 1008.22 392.377 1006.44 392.383C1006.29 404.314 996.737 413.974 985.009 413.974C973.281 413.974 963.758 404.342 963.584 392.433C960.298 392.433 957.018 392.439 953.733 392.444C949.149 392.444 944.565 392.45 939.986 392.455C934.987 392.455 929.988 392.461 924.989 392.466C920.328 392.466 915.662 392.472 911.002 392.478C907.438 392.478 903.88 392.478 900.316 392.489C899.989 392.489 899.667 392.489 899.339 392.489C899.323 392.489 899.312 392.483 899.296 392.478C899.105 404.37 889.571 413.98 877.87 413.98C866.169 413.98 856.663 404.392 856.444 392.528C856.428 392.528 856.417 392.539 856.401 392.539C852.548 392.539 848.695 392.556 844.842 392.567C843.303 392.567 841.764 392.572 840.219 392.572C840.214 392.572 840.208 392.572 840.203 392.572C840.17 393.285 840.138 394.07 839.837 394.716C839.816 394.766 839.783 394.794 839.75 394.816C839.728 394.933 839.646 395.033 839.499 395.033C836.055 395.128 832.606 395.239 829.163 395.139C828.366 395.117 827.569 395.083 826.772 395.011C826.401 394.977 826.003 394.933 825.708 394.671C825.424 394.415 825.337 394.042 825.261 393.675C824.993 392.344 824.917 390.969 824.89 389.616C824.857 388.202 824.89 386.782 825.01 385.373L825.021 385.384Z" fill="white"/>
<path d="M988.928 341.645C988.268 337.224 987.984 332.743 987.203 328.339C986.423 323.935 985.086 319.703 982.903 315.878C979.585 310.06 974.439 305.5 968.615 302.416C966.946 301.531 965.205 300.74 963.409 300.167C962.176 299.777 960.882 299.571 959.605 299.382C954.803 298.658 949.935 298.313 945.089 298.023C938.518 297.628 931.936 297.427 925.355 297.416C918.588 297.399 911.815 297.567 905.064 298.107C902.095 298.346 899.127 298.658 896.18 299.114C894.881 299.315 893.587 299.543 892.305 299.816C891.235 300.044 890.084 300.233 889.052 300.623C887.862 301.069 887 302.533 886.345 303.552C885.096 305.5 884.064 307.599 883.082 309.698C880.522 315.166 878.35 320.817 876.233 326.473C874.465 331.211 872.789 335.983 871.054 340.732C870.814 341.389 870.573 342.046 870.317 342.697C870.191 343.026 869.662 342.881 869.793 342.547C871.381 338.449 872.789 334.274 874.295 330.142C876.413 324.347 878.59 318.567 881.035 312.911C882.099 310.455 883.207 308.011 884.479 305.662C885.341 304.058 886.274 302.377 887.54 301.057C888.807 299.738 890.526 299.621 892.152 299.276C894.87 298.702 897.62 298.307 900.376 297.995C907.002 297.244 913.66 296.971 920.312 296.876C927.172 296.781 934.037 296.91 940.892 297.232C946.317 297.489 951.747 297.834 957.144 298.485C958.836 298.691 960.533 298.908 962.198 299.265C963.54 299.554 964.828 300.039 966.089 300.579C971.497 302.9 976.49 306.486 980.267 311.085C982.859 314.241 984.764 317.838 986.09 321.719C987.503 325.85 988.098 330.159 988.584 334.485C988.846 336.824 989.108 339.162 989.457 341.489C989.512 341.84 988.982 341.99 988.933 341.64L988.928 341.645Z" fill="#6AC4C5" stroke="#6AC4C5" stroke-width="0.5"/>
<path d="M968.583 342.586C957.444 342.151 946.306 341.645 935.162 341.316C924.056 340.993 912.939 340.843 901.828 341.127C890.717 341.411 879.835 342.113 868.914 343.493C863.348 344.195 857.803 345.074 852.297 346.16C849.59 346.695 846.894 347.274 844.203 347.908C841.835 348.471 839.423 348.994 837.136 349.846C834.849 350.698 832.792 351.95 831.406 353.971C829.932 356.126 829.185 358.799 828.595 361.321C827.351 366.666 827.28 372.189 827.504 377.65C827.558 378.998 827.635 380.345 827.711 381.692C827.733 382.049 827.187 382.049 827.165 381.692C826.854 376.208 826.609 370.68 827.335 365.218C827.689 362.546 828.279 359.895 829.174 357.357C829.971 355.102 831.095 352.997 832.967 351.494C834.664 350.13 836.716 349.328 838.773 348.716C841.295 347.964 843.881 347.391 846.446 346.817C851.953 345.581 857.509 344.562 863.086 343.727C874.126 342.079 885.265 341.166 896.409 340.737C907.553 340.309 919.068 340.353 930.392 340.626C941.716 340.899 953.035 341.394 964.359 341.851C965.767 341.907 967.175 341.962 968.583 342.018C968.932 342.029 968.932 342.586 968.583 342.575V342.586Z" fill="#6AC4C5" stroke="#6AC4C5" stroke-width="0.5"/>
<path d="M990.565 343.281C988.218 343.231 985.872 343.17 983.53 343.103C983.181 343.092 983.181 342.535 983.53 342.547C985.877 342.613 988.218 342.675 990.565 342.725C990.914 342.73 990.914 343.287 990.565 343.281Z" fill="#6AC4C5" stroke="#6AC4C5" stroke-width="0.5"/>
<path d="M991.771 343.02C995.646 344.083 999.635 344.734 1003.58 345.453C1008.22 346.299 1012.87 347.117 1017.48 348.158C1019.34 348.582 1021.21 349.038 1023.04 349.628C1024.13 349.985 1025.2 350.413 1026.28 350.836C1027.69 351.393 1029.1 351.961 1030.49 352.574C1032.55 353.481 1034.66 354.455 1036.44 355.875C1037.03 356.343 1037.59 356.883 1037.98 357.529C1038.66 358.62 1038.91 360.012 1039.14 361.259C1040.17 367.021 1040.54 372.884 1041.06 378.713C1041.14 379.554 1041.22 380.389 1041.29 381.23C1041.32 381.586 1040.78 381.586 1040.75 381.23C1040.19 375.351 1039.84 369.438 1038.96 363.597C1038.73 362.077 1038.52 360.53 1038.04 359.065C1037.77 358.219 1037.41 357.54 1036.78 356.916C1035.34 355.485 1033.41 354.55 1031.61 353.698C1029.04 352.484 1026.38 351.404 1023.71 350.452C1022.01 349.845 1020.26 349.394 1018.51 348.977C1014.01 347.908 1009.46 347.101 1004.91 346.271C1000.83 345.525 996.727 344.846 992.693 343.844C992.333 343.755 991.979 343.66 991.618 343.565C991.258 343.471 991.422 342.936 991.766 343.031L991.771 343.02Z" fill="#6AC4C5" stroke="#6AC4C5" stroke-width="0.5"/>
<path d="M1031.78 381.18C1034.22 381.136 1036.66 381.091 1039.11 381.052C1041.07 381.024 1043.08 381.169 1044.45 382.784C1044.9 383.324 1045.29 383.908 1045.5 384.588C1045.7 385.206 1045.78 385.863 1045.83 386.508C1045.95 387.945 1045.85 389.404 1045.67 390.829C1045.59 391.397 1045.5 391.959 1045.37 392.516C1045.3 392.816 1045.23 393.178 1045.05 393.434C1044.91 393.64 1044.66 393.679 1044.43 393.724C1043.99 393.808 1043.55 393.863 1043.1 393.908C1040.09 394.242 1037.01 394.364 1033.98 394.197C1033.61 394.175 1033.25 394.153 1032.88 394.114C1032.55 394.08 1032.11 394.091 1031.81 393.936C1031.38 393.713 1031.37 393.1 1031.3 392.672C1031.2 392.076 1031.1 391.475 1031.02 390.873C1030.7 388.49 1030.58 386.08 1030.66 383.675C1030.68 383.068 1030.72 382.461 1030.76 381.859C1030.79 381.503 1031.33 381.503 1031.3 381.859C1031.14 384.126 1031.14 386.397 1031.33 388.658C1031.42 389.799 1031.56 390.935 1031.74 392.059C1031.78 392.327 1031.83 392.588 1031.88 392.855C1031.9 392.978 1031.91 393.117 1031.95 393.234C1032.02 393.457 1032.12 393.468 1032.31 393.496C1032.63 393.54 1032.95 393.568 1033.26 393.596C1036.19 393.83 1039.16 393.707 1042.08 393.451C1042.9 393.379 1043.75 393.329 1044.55 393.123C1044.61 393.106 1044.65 393.112 1044.6 393.106C1044.6 393.106 1044.58 393.139 1044.59 393.123C1044.62 393.011 1044.67 392.956 1044.71 392.822C1044.84 392.404 1044.92 391.97 1045 391.542C1045.22 390.255 1045.32 388.947 1045.31 387.639C1045.3 386.486 1045.26 385.139 1044.7 384.103C1044.27 383.329 1043.64 382.606 1042.86 382.188C1042.02 381.731 1041.03 381.626 1040.09 381.603C1037.88 381.548 1035.66 381.665 1033.46 381.704L1031.76 381.731C1031.41 381.737 1031.41 381.18 1031.76 381.175L1031.78 381.18Z" fill="#6AC4C5" stroke="#6AC4C5" stroke-width="0.5"/>
<path d="M856.406 392.549C852.553 392.549 848.7 392.566 844.847 392.577C843.308 392.577 841.769 392.582 840.225 392.582C839.876 392.582 839.876 392.026 840.225 392.026C844.089 392.026 847.953 392.009 851.811 391.998C853.339 391.998 854.873 391.992 856.401 391.992C856.75 391.992 856.75 392.549 856.401 392.549H856.406Z" fill="#6AC4C5" stroke="#6AC4C5" stroke-width="0.5"/>
<path d="M963.857 392.455C960.484 392.455 957.111 392.46 953.739 392.466C949.154 392.466 944.57 392.471 939.991 392.477C934.992 392.477 929.993 392.483 924.994 392.488C920.334 392.488 915.668 392.494 911.007 392.499C907.444 392.499 903.885 392.499 900.322 392.51C899.994 392.51 899.672 392.51 899.345 392.51C898.995 392.51 898.995 391.954 899.345 391.954C902.717 391.954 906.09 391.948 909.463 391.942C914.047 391.942 918.631 391.937 923.21 391.931C928.209 391.931 933.208 391.926 938.207 391.92C942.867 391.92 947.534 391.915 952.194 391.909C955.758 391.909 959.316 391.909 962.88 391.898C963.207 391.898 963.529 391.898 963.857 391.898C964.206 391.898 964.206 392.455 963.857 392.455Z" fill="#6AC4C5" stroke="#6AC4C5" stroke-width="0.5"/>
<path d="M1031.62 392.365C1025.68 392.371 1019.73 392.382 1013.79 392.393C1012.01 392.393 1010.22 392.393 1008.44 392.399C1008.09 392.399 1008.09 391.842 1008.44 391.842C1014.38 391.836 1020.31 391.825 1026.25 391.814C1028.04 391.814 1029.83 391.814 1031.62 391.809C1031.97 391.809 1031.97 392.365 1031.62 392.365Z" fill="#6AC4C5" stroke="#6AC4C5" stroke-width="0.5"/>
<path d="M839.193 381.281C839.444 381.804 839.521 382.433 839.614 383.001C839.772 383.981 839.881 384.972 839.974 385.957C840.176 388.112 840.312 390.294 840.214 392.455C840.181 393.195 840.159 394.041 839.843 394.726C839.69 395.049 839.221 394.765 839.374 394.448C839.603 393.958 839.63 393.217 839.663 392.644C839.717 391.653 839.706 390.662 839.674 389.671C839.603 387.6 839.45 385.518 839.144 383.469C839.084 383.068 839.019 382.672 838.931 382.277C838.899 382.127 838.861 381.977 838.822 381.826C838.79 381.726 838.746 381.598 838.73 381.565C838.577 381.242 839.046 380.963 839.199 381.286L839.193 381.281Z" fill="#6AC4C5" stroke="#6AC4C5" stroke-width="0.5"/>
<path d="M838.784 381.487C836.694 381.397 834.571 381.631 832.497 381.865C830.533 382.088 828.497 382.305 826.592 382.878C826.363 382.945 826.161 383.012 825.965 383.129C825.899 383.168 825.976 383.107 825.932 383.157C825.932 383.157 825.943 383.129 825.916 383.196C825.899 383.224 825.85 383.391 825.828 383.485C825.621 384.332 825.572 385.228 825.517 386.091C825.37 388.502 825.321 391.029 825.774 393.412C825.85 393.819 825.899 394.264 826.347 394.409C826.794 394.554 827.34 394.526 827.804 394.559C828.863 394.637 829.927 394.698 830.991 394.737C833.163 394.821 835.335 394.838 837.507 394.776C837.856 394.765 837.856 395.322 837.507 395.333C835.472 395.389 833.43 395.383 831.395 395.311C830.402 395.277 829.403 395.227 828.41 395.16C827.913 395.127 827.416 395.094 826.92 395.049C826.527 395.016 826.107 394.993 825.779 394.743C825.299 394.375 825.25 393.624 825.163 393.062C825.075 392.466 825.015 391.864 824.972 391.263C824.879 389.91 824.873 388.552 824.917 387.199C824.955 386.096 825.015 384.989 825.19 383.903C825.266 383.418 825.326 382.845 825.796 382.6C826.423 382.272 827.182 382.155 827.864 382.015C828.966 381.793 830.08 381.631 831.193 381.481C833.687 381.152 836.263 380.83 838.779 380.941C839.128 380.958 839.128 381.514 838.779 381.498L838.784 381.487Z" fill="#6AC4C5" stroke="#6AC4C5" stroke-width="0.5"/>
<path d="M829.146 357.991C830.44 358.13 831.749 358.342 832.977 358.776C833.501 358.96 834.096 359.177 834.467 359.617C834.778 359.99 834.849 360.419 834.893 360.886C835.062 362.724 835.226 364.561 835.384 366.398C835.531 368.108 835.69 369.822 835.793 371.537C835.826 372.122 835.968 373.107 835.384 373.441C834.871 373.731 834.227 373.864 833.67 374.02C832.579 374.326 831.471 374.594 830.358 374.822C829.332 375.028 828.284 375.223 827.231 375.267C826.881 375.284 826.881 374.727 827.231 374.711C829.048 374.633 830.882 374.176 832.639 373.725C833.354 373.541 834.069 373.352 834.767 373.102C834.849 373.074 834.975 373.029 835.029 373.001C835.073 372.985 835.204 372.89 835.144 372.951C835.057 373.029 835.155 372.935 835.166 372.896C835.199 372.812 835.226 372.734 835.242 372.651C835.28 372.472 835.275 372.283 835.275 372.105C835.275 372.01 835.275 371.91 835.264 371.816C835.106 368.486 834.735 365.151 834.435 361.833C834.402 361.465 834.374 361.092 834.331 360.725C834.26 360.029 833.812 359.712 833.212 359.461C831.93 358.927 830.516 358.698 829.146 358.554C828.802 358.515 828.797 357.958 829.146 357.997V357.991Z" fill="#6AC4C5" stroke="#6AC4C5" stroke-width="0.5"/>
<path d="M1038.57 362.601C1036.23 361.504 1033.88 360.385 1031.4 359.65C1030.14 359.277 1028.82 358.977 1027.51 358.86C1027.24 358.837 1026.93 358.81 1026.71 358.999C1026.5 359.188 1026.44 359.517 1026.38 359.795C1026.25 360.491 1026.15 361.192 1026.05 361.894C1025.65 364.817 1025.46 367.773 1025.48 370.724C1025.48 371.403 1025.47 372.094 1025.54 372.773C1025.61 373.452 1025.89 373.965 1026.52 374.248C1027.15 374.532 1027.8 374.655 1028.43 374.816C1029.11 374.995 1029.79 375.156 1030.47 375.301C1033.62 375.969 1036.83 376.297 1040.04 376.297C1040.39 376.297 1040.39 376.854 1040.04 376.854C1037 376.854 1033.96 376.559 1030.97 375.969C1029.51 375.679 1028.01 375.373 1026.61 374.878C1026.03 374.672 1025.5 374.354 1025.23 373.77C1024.96 373.185 1024.96 372.556 1024.95 371.949C1024.86 368.792 1025.02 365.63 1025.43 362.501C1025.53 361.738 1025.63 360.975 1025.76 360.218C1025.85 359.661 1025.91 358.988 1026.35 358.587C1026.8 358.186 1027.49 358.303 1028.05 358.375C1028.74 358.464 1029.43 358.587 1030.11 358.743C1033.17 359.444 1036.01 360.803 1038.85 362.128C1039.16 362.278 1038.89 362.757 1038.57 362.607L1038.57 362.601Z" fill="#6AC4C5" stroke="#6AC4C5" stroke-width="0.5"/>
<path d="M1031.65 359.572C1033.07 364.744 1033.98 370.056 1034.36 375.412C1034.38 375.768 1033.84 375.768 1033.81 375.412C1033.43 370.106 1032.53 364.845 1031.12 359.722C1031.03 359.377 1031.55 359.227 1031.64 359.572H1031.65Z" fill="#6AC4C5" stroke="#6AC4C5" stroke-width="0.5"/>
<path d="M991.04 345.559C992.819 346.244 994.647 346.784 996.475 347.302C998.762 347.948 1001.07 348.538 1003.37 349.128C1008.16 350.353 1012.97 351.528 1017.68 353.036C1019.75 353.693 1021.81 354.406 1023.76 355.386C1024.07 355.547 1023.8 356.026 1023.48 355.865C1021.79 355.007 1019.98 354.373 1018.18 353.777C1015.94 353.042 1013.67 352.402 1011.4 351.784C1006.64 350.498 1001.85 349.362 997.103 348.048C995.013 347.469 992.923 346.873 990.892 346.094C990.565 345.966 990.707 345.431 991.04 345.559Z" fill="#6AC4C5" stroke="#6AC4C5" stroke-width="0.5"/>
<path d="M984.087 342.029C984.169 340.982 984.251 339.936 984.333 338.889C984.36 338.533 984.906 338.533 984.879 338.889C984.797 339.936 984.715 340.982 984.633 342.029C984.606 342.385 984.06 342.385 984.087 342.029Z" fill="#6AC4C5" stroke="#6AC4C5" stroke-width="0.5"/>
<path d="M892.501 302.538C892.343 302.583 892.152 302.694 891.988 302.822C891.775 302.989 891.53 303.245 891.328 303.473C890.728 304.153 890.22 304.915 889.74 305.684C888.294 307.983 887.066 310.433 885.898 312.894C884.43 315.989 883.087 319.146 881.837 322.336C880.577 325.554 879.409 328.817 878.394 332.124C877.543 334.886 876.768 337.697 876.315 340.559C876.271 340.837 876.233 341.116 876.195 341.394C876.151 341.745 875.605 341.751 875.649 341.394C876.004 338.588 876.724 335.832 877.521 333.126C878.508 329.786 879.655 326.495 880.904 323.249C882.154 319.981 883.507 316.752 884.975 313.579C886.182 310.967 887.459 308.373 888.948 305.918C889.472 305.055 890.024 304.208 890.651 303.423C891.039 302.944 891.481 302.416 892.032 302.126C892.136 302.07 892.245 302.026 892.354 301.992C892.692 301.903 892.84 302.438 892.501 302.527V302.538Z" fill="#6AC4C5" stroke="#6AC4C5" stroke-width="0.5"/>
<path d="M931.145 301.208C926.517 301.013 921.884 300.74 917.251 300.651C912.928 300.567 908.611 300.746 904.295 301.029C901.735 301.196 899.181 301.397 896.627 301.603C896.278 301.631 896.278 301.074 896.627 301.046C901.069 300.695 905.517 300.345 909.976 300.178C914.435 300.011 918.784 300.133 923.194 300.317C925.846 300.428 928.493 300.54 931.145 300.651C931.494 300.668 931.494 301.224 931.145 301.208Z" fill="#6AC4C5" stroke="#6AC4C5" stroke-width="0.5"/>
<path d="M983.127 334.88C982.723 330.559 982.073 326.306 980.676 322.191C979.956 320.065 979.165 317.91 978.089 315.945C977.074 314.085 975.797 312.387 974.329 310.878C971.404 307.866 967.819 305.706 963.9 304.342C962.852 303.974 961.805 303.596 960.729 303.317C959.152 302.911 957.537 302.655 955.932 302.387C953.318 301.948 950.693 301.731 948.046 301.658C945.4 301.586 942.775 301.625 940.139 301.569C939.473 301.558 938.813 301.536 938.147 301.508C937.798 301.491 937.798 300.934 938.147 300.951C943.517 301.179 948.92 300.834 954.262 301.563C957.319 301.981 960.364 302.521 963.289 303.54C965.09 304.169 966.858 304.837 968.534 305.767C970.389 306.791 972.13 308.044 973.696 309.492C975.263 310.939 976.621 312.537 977.757 314.313C978.974 316.217 979.825 318.305 980.616 320.421C981.364 322.42 982.002 324.463 982.466 326.551C982.93 328.639 983.241 330.849 983.476 333.02C983.541 333.638 983.601 334.262 983.661 334.885C983.694 335.242 983.148 335.242 983.116 334.885L983.127 334.88Z" fill="#6AC4C5" stroke="#6AC4C5" stroke-width="0.5"/>
<path d="M937.132 301.586C936.853 306.624 936.695 311.669 936.723 316.713C936.75 321.757 936.946 326.378 937.285 331.2C937.487 334.106 937.743 337.012 938.032 339.913C938.065 340.269 937.519 340.269 937.487 339.913C936.99 334.891 936.597 329.864 936.379 324.819C936.16 319.775 936.128 315.154 936.242 310.321C936.313 307.404 936.433 304.492 936.597 301.58C936.619 301.224 937.165 301.224 937.143 301.58L937.132 301.586Z" fill="#6AC4C5" stroke="#6AC4C5" stroke-width="0.5"/>
<path d="M932.891 301.169C932.957 306.202 933.028 311.24 933.099 316.273C933.17 321.095 933.241 325.922 933.306 330.744C933.344 333.667 933.388 336.59 933.421 339.513C933.421 339.869 932.88 339.869 932.875 339.513C932.809 334.479 932.738 329.441 932.668 324.408C932.597 319.586 932.526 314.759 932.46 309.938C932.422 307.015 932.378 304.092 932.346 301.169C932.346 300.812 932.886 300.812 932.891 301.169Z" fill="#6AC4C5" stroke="#6AC4C5" stroke-width="0.5"/>
<path d="M889.178 341.361C890.182 336.172 891.164 330.971 892.043 325.76C892.921 320.549 893.62 315.733 894.209 310.694C894.564 307.671 894.864 304.642 895.121 301.608C895.148 301.252 895.699 301.252 895.666 301.608C895.219 306.881 894.63 312.142 893.893 317.381C893.178 322.431 892.332 327.458 891.41 332.475C890.858 335.492 890.28 338.504 889.702 341.511C889.636 341.862 889.107 341.711 889.178 341.361Z" fill="#6AC4C5" stroke="#6AC4C5" stroke-width="0.5"/>
<path d="M893.636 302.165C892.758 307.443 891.808 312.715 890.684 317.943C889.598 322.971 888.343 327.959 886.88 332.881C886.007 335.826 885.057 338.749 884.053 341.655C883.939 341.99 883.409 341.845 883.529 341.505C885.276 336.461 886.836 331.35 888.179 326.172C889.521 320.994 890.553 316.162 891.508 311.106C892.081 308.083 892.61 305.049 893.112 302.009C893.172 301.658 893.696 301.808 893.636 302.159V302.165Z" fill="#6AC4C5" stroke="#6AC4C5" stroke-width="0.5"/>
<path d="M982.177 347.43C982.423 345.492 982.248 343.504 982.051 341.578C981.97 340.748 981.866 339.913 981.779 339.084C981.724 338.583 981.724 338.104 981.473 337.653C980.878 336.584 979.672 335.893 978.635 335.359C977.385 334.719 976.048 334.234 974.689 333.878C974.155 333.739 973.609 333.611 973.063 333.538C972.736 333.494 972.31 333.444 972.043 333.516C971.617 333.627 971.131 333.833 970.853 334.195C970.509 334.635 970.487 335.248 970.455 335.782C970.378 337.091 970.345 338.404 970.351 339.718C970.367 342.341 970.542 344.969 970.886 347.569C970.929 347.881 970.973 348.198 971.017 348.51C971.066 348.844 971.055 349.094 971.437 349.128C971.677 349.15 971.917 349.15 972.152 349.161C972.768 349.189 973.385 349.211 974.002 349.233C975.503 349.284 977.009 349.311 978.515 349.278C979.175 349.261 979.836 349.233 980.496 349.167C980.911 349.122 981.369 349.089 981.757 348.916C981.773 348.911 981.844 348.872 981.888 348.844C981.888 348.844 981.904 348.805 981.888 348.855C981.997 348.515 982.526 348.66 982.412 349.005C982.297 349.35 981.915 349.467 981.609 349.551C981.064 349.69 980.496 349.735 979.939 349.773C978.362 349.885 976.774 349.863 975.192 349.824C974.438 349.807 973.691 349.785 972.938 349.751C972.37 349.729 971.704 349.79 971.148 349.651C970.547 349.501 970.536 348.916 970.46 348.393C970.367 347.741 970.28 347.09 970.209 346.433C970.051 345.013 969.936 343.593 969.876 342.168C969.816 340.743 969.8 339.362 969.832 337.959C969.849 337.258 969.876 336.556 969.914 335.855C969.947 335.314 969.98 334.763 970.198 334.268C970.52 333.527 971.371 333.026 972.152 332.948C972.594 332.904 973.052 332.976 973.483 333.048C974.87 333.277 976.234 333.711 977.533 334.251C978.832 334.791 980.212 335.459 981.249 336.478C981.653 336.873 982.008 337.341 982.182 337.887C982.368 338.471 982.352 339.162 982.423 339.774C982.657 341.829 982.897 343.894 982.854 345.965C982.843 346.461 982.81 346.956 982.75 347.446C982.706 347.797 982.161 347.803 982.204 347.446L982.177 347.43Z" fill="#6AC4C5" stroke="#6AC4C5" stroke-width="0.5"/>
<path d="M935.375 346.794C935.184 351.666 935.014 356.538 934.872 361.415C934.731 366.292 934.605 371.113 934.501 375.968C934.441 378.719 934.392 381.469 934.349 384.214C934.343 384.57 933.797 384.57 933.803 384.214C933.879 379.337 933.977 374.465 934.097 369.588C934.218 364.711 934.359 359.889 934.523 355.034C934.616 352.284 934.714 349.539 934.823 346.789C934.84 346.432 935.385 346.432 935.369 346.789L935.375 346.794Z" fill="#6AC4C5" stroke="#6AC4C5" stroke-width="0.5"/>
<path d="M879.076 347.118C878.568 352.842 878.694 358.615 879.463 364.311C879.513 364.662 878.983 364.812 878.94 364.461C878.165 358.715 878.023 352.897 878.53 347.124C878.563 346.767 879.109 346.767 879.076 347.124V347.118Z" fill="#6AC4C5" stroke="#6AC4C5" stroke-width="0.5"/>
<path d="M987.198 349.551C988.409 354.117 989.435 358.732 990.265 363.387C990.325 363.737 989.801 363.888 989.741 363.537C988.911 358.882 987.885 354.267 986.674 349.701C986.581 349.356 987.11 349.206 987.198 349.551Z" fill="#6AC4C5" stroke="#6AC4C5" stroke-width="0.5"/>
<path d="M1027.6 388.379C1022.87 388.451 1018.15 388.524 1013.42 388.596L1009.41 388.657C1009.07 388.657 1009.07 388.106 1009.41 388.101C1014.14 388.028 1018.87 387.956 1023.59 387.884L1027.6 387.822C1027.95 387.822 1027.95 388.373 1027.6 388.379Z" fill="#6AC4C5" stroke="#6AC4C5" stroke-width="0.5"/>
<path d="M960.419 388.752C952.926 388.796 945.427 388.785 937.934 388.713C930.441 388.64 922.948 388.518 915.455 388.329C911.231 388.223 907.007 388.1 902.788 387.961C902.439 387.95 902.439 387.393 902.788 387.404C910.281 387.655 917.769 387.844 925.267 387.978C932.76 388.112 940.253 388.189 947.752 388.212C951.976 388.223 956.2 388.212 960.424 388.189C960.773 388.189 960.773 388.746 960.424 388.746L960.419 388.752Z" fill="#6AC4C5" stroke="#6AC4C5" stroke-width="0.5"/>
<path d="M854.709 388.88C850.769 389.047 846.828 388.83 842.926 388.24C842.582 388.19 842.73 387.65 843.074 387.705C846.921 388.284 850.823 388.485 854.709 388.323C855.058 388.306 855.058 388.863 854.709 388.88Z" fill="#6AC4C5" stroke="#6AC4C5" stroke-width="0.5"/>
<path d="M985.02 413.717C973.332 413.717 963.857 404.051 963.857 392.126C963.857 380.202 973.332 370.535 985.02 370.535C996.709 370.535 1006.18 380.202 1006.18 392.126C1006.18 404.051 996.709 413.717 985.02 413.717Z" fill="#9E9E9E"/>
<path d="M877.875 413.717C866.187 413.717 856.712 404.051 856.712 392.126C856.712 380.202 866.187 370.535 877.875 370.535C889.564 370.535 899.039 380.202 899.039 392.126C899.039 404.051 889.564 413.717 877.875 413.717Z" fill="#9E9E9E"/>
<path d="M985.02 407.565C976.662 407.565 969.887 400.653 969.887 392.126C969.887 383.599 976.662 376.687 985.02 376.687C993.378 376.687 1000.15 383.599 1000.15 392.126C1000.15 400.653 993.378 407.565 985.02 407.565Z" fill="white"/>
<path d="M877.875 406.112C870.304 406.112 864.166 399.85 864.166 392.126C864.166 384.402 870.304 378.14 877.875 378.14C885.447 378.14 891.584 384.402 891.584 392.126C891.584 399.85 885.447 406.112 877.875 406.112Z" fill="white"/>
<path d="M992.138 388.016C994.46 392.121 993.082 397.369 989.059 399.739C985.036 402.108 979.891 400.702 977.568 396.598" stroke="#6DB4BA" stroke-width="0.5" stroke-linecap="round" stroke-linejoin="round"/>
<path d="M990.461 402.216C995.825 399.057 997.663 392.059 994.566 386.586C991.469 381.114 984.61 379.239 979.245 382.398" stroke="#6DB4BA" stroke-width="0.5" stroke-linecap="round" stroke-linejoin="round"/>
<path d="M877.652 400.65C873.007 400.65 869.241 396.808 869.241 392.069C869.241 387.329 873.007 383.487 877.652 383.487" stroke="#6DB4BA" stroke-width="0.5" stroke-linecap="round" stroke-linejoin="round"/>
<path d="M866.437 392.068C866.437 398.387 871.458 403.51 877.652 403.51C883.846 403.51 888.868 398.387 888.868 392.068" stroke="#6DB4BA" stroke-width="0.5" stroke-linecap="round" stroke-linejoin="round"/>
<path d="M1007.8 382.11C1005.16 373.369 996.012 366.922 985.14 366.922C974.269 366.922 965.652 373.002 962.721 381.364" stroke="#6AC4C5" stroke-linecap="round" stroke-linejoin="round"/>
<path d="M900.66 382.11C898.013 373.369 888.867 366.922 877.995 366.922C867.124 366.922 858.507 373.002 855.577 381.364" stroke="#6AC4C5" stroke-linecap="round" stroke-linejoin="round"/>
</g>
<defs>
<clipPath id="clip0_1872_11688">
<rect width="1882" height="414" fill="white"/>
</clipPath>
</defs>
</svg>
