<svg width="122" height="122" viewBox="0 0 122 122" fill="none" xmlns="http://www.w3.org/2000/svg">
<path d="M61.3335 121C94.4706 121 121.333 94.1371 121.333 61C121.333 27.8629 94.4706 1 61.3335 1C28.1964 1 1.3335 27.8629 1.3335 61C1.3335 94.1371 28.1964 121 61.3335 121Z" fill="white" stroke="#6AC4C5" stroke-miterlimit="10"/>
<path d="M61.4364 110.552C88.7461 110.552 110.885 88.4127 110.885 61.103C110.885 33.7932 88.7461 11.6543 61.4364 11.6543C34.1266 11.6543 11.9877 33.7932 11.9877 61.103C11.9877 88.4127 34.1266 110.552 61.4364 110.552Z" fill="white" stroke="#6AC4C5" stroke-miterlimit="10"/>
<path d="M61.3335 96.3271V104.561" stroke="#6AC4C5" stroke-width="3" stroke-linecap="round"/>
<path d="M61.3335 17.8225V26.0566" stroke="#6AC4C5" stroke-width="3" stroke-linecap="round"/>
<path d="M96.6606 61L104.895 61" stroke="#6AC4C5" stroke-width="3" stroke-linecap="round"/>
<path d="M18.1559 61L26.39 61" stroke="#6AC4C5" stroke-width="3" stroke-linecap="round"/>
<path d="M61.3335 100C82.8726 100 100.333 82.5391 100.333 61C100.333 39.4609 82.8726 22 61.3335 22" stroke="#FF5600" stroke-opacity="0.2" stroke-width="20" stroke-miterlimit="10"/>
<path d="M62.0406 31.6929C61.6501 31.3024 61.0169 31.3024 60.6264 31.6929L54.2624 38.0569C53.8719 38.4474 53.8719 39.0805 54.2624 39.4711C54.653 39.8616 55.2861 39.8616 55.6766 39.4711L61.3335 33.8142L66.9903 39.4711C67.3809 39.8616 68.014 39.8616 68.4046 39.4711C68.7951 39.0805 68.7951 38.4474 68.4046 38.0569L62.0406 31.6929ZM62.3335 61L62.3335 32.4L60.3335 32.4L60.3335 61L62.3335 61Z" fill="#6AC4C5"/>
<path d="M62.0406 79.8944C61.6501 80.2849 61.0169 80.2849 60.6264 79.8944L54.2624 73.5304C53.8719 73.1399 53.8719 72.5068 54.2624 72.1162C54.653 71.7257 55.2861 71.7257 55.6766 72.1162L61.3335 77.7731L66.9904 72.1162C67.3809 71.7257 68.014 71.7257 68.4046 72.1162C68.7951 72.5068 68.7951 73.1399 68.4046 73.5304L62.0406 79.8944ZM62.3335 60.6826V79.1873H60.3335V60.6826H62.3335Z" fill="#6AC4C5"/>
</svg>
