<svg width="122" height="122" viewBox="0 0 122 122" fill="none" xmlns="http://www.w3.org/2000/svg">
<path d="M61 121C94.1371 121 121 94.1371 121 61C121 27.8629 94.1371 1 61 1C27.8629 1 1 27.8629 1 61C1 94.1371 27.8629 121 61 121Z" fill="white" stroke="#6AC4C5" stroke-miterlimit="10"/>
<path d="M61.1029 110.552C88.4127 110.552 110.552 88.4127 110.552 61.103C110.552 33.7932 88.4127 11.6543 61.1029 11.6543C33.7932 11.6543 11.6542 33.7932 11.6542 61.103C11.6542 88.4127 33.7932 110.552 61.1029 110.552Z" fill="white" stroke="#6AC4C5" stroke-miterlimit="10"/>
<path d="M61 96.3271V104.561" stroke="#6AC4C5" stroke-width="3" stroke-linecap="round"/>
<path d="M61 17.8225V26.0566" stroke="#6AC4C5" stroke-width="3" stroke-linecap="round"/>
<path d="M96.3271 61L104.561 61" stroke="#6AC4C5" stroke-width="3" stroke-linecap="round"/>
<path d="M17.8224 61L26.0565 61" stroke="#6AC4C5" stroke-width="3" stroke-linecap="round"/>
<path d="M61 100C82.5391 100 100 82.5391 100 61C100 39.4609 82.5391 22 61 22C39.4609 22 22 39.4609 22 61C22 82.5391 39.4609 100 61 100Z" stroke="#626262" stroke-opacity="0.1" stroke-width="5" stroke-miterlimit="10"/>
<path d="M61 22C39.4609 22 22 39.4609 22 61C22 77.9808 32.8525 92.4269 48 97.7808" stroke="#9E9E9E" stroke-opacity="0.3" stroke-width="20" stroke-miterlimit="10"/>
<path d="M61.7071 31.9753C61.3166 31.5848 60.6834 31.5848 60.2929 31.9753L53.9289 38.3392C53.5384 38.7298 53.5384 39.3629 53.9289 39.7535C54.3195 40.144 54.9526 40.144 55.3431 39.7535L61 34.0966L66.6569 39.7535C67.0474 40.144 67.6805 40.144 68.0711 39.7535C68.4616 39.3629 68.4616 38.7298 68.0711 38.3392L61.7071 31.9753ZM62 61.2805L62 32.6824L60 32.6824L60 61.2805L62 61.2805Z" fill="#6AC4C5"/>
<path d="M53.1932 78.6189C53.4103 79.1267 53.9979 79.3625 54.5058 79.1454L62.7815 75.6081C63.2893 75.391 63.5251 74.8034 63.308 74.2955C63.0909 73.7877 62.5033 73.552 61.9954 73.769L54.6392 76.9133L51.495 69.5571C51.2779 69.0493 50.6902 68.8136 50.1824 69.0306C49.6746 69.2477 49.4388 69.8353 49.6559 70.3432L53.1932 78.6189ZM60.0719 60.6834L53.1846 77.8536L55.0409 78.5981L61.9281 61.4279L60.0719 60.6834Z" fill="#6AC4C5"/>
</svg>
