<svg width="122" height="122" viewBox="0 0 122 122" fill="none" xmlns="http://www.w3.org/2000/svg">
<path d="M60.6667 121C93.8037 121 120.667 94.1371 120.667 61C120.667 27.8629 93.8037 1 60.6667 1C27.5296 1 0.666656 27.8629 0.666656 61C0.666656 94.1371 27.5296 121 60.6667 121Z" fill="white" stroke="#6AC4C5" stroke-miterlimit="10"/>
<path d="M60.7696 110.552C88.0793 110.552 110.218 88.4127 110.218 61.103C110.218 33.7932 88.0793 11.6543 60.7696 11.6543C33.4598 11.6543 11.3209 33.7932 11.3209 61.103C11.3209 88.4127 33.4598 110.552 60.7696 110.552Z" fill="white" stroke="#6AC4C5" stroke-miterlimit="10"/>
<path d="M60.6667 96.3271V104.561" stroke="#6AC4C5" stroke-width="3" stroke-linecap="round"/>
<path d="M60.6667 17.8225V26.0566" stroke="#6AC4C5" stroke-width="3" stroke-linecap="round"/>
<path d="M95.9938 61L104.228 61" stroke="#6AC4C5" stroke-width="3" stroke-linecap="round"/>
<path d="M17.4891 61L25.7232 61" stroke="#6AC4C5" stroke-width="3" stroke-linecap="round"/>
<path d="M61.3738 31.9753C60.9832 31.5848 60.3501 31.5848 59.9595 31.9753L53.5956 38.3392C53.2051 38.7298 53.2051 39.3629 53.5956 39.7535C53.9861 40.144 54.6193 40.144 55.0098 39.7535L60.6667 34.0966L66.3235 39.7535C66.714 40.144 67.3472 40.144 67.7377 39.7535C68.1282 39.3629 68.1282 38.7298 67.7377 38.3392L61.3738 31.9753ZM61.6667 61.2805L61.6667 32.6824L59.6667 32.6824L59.6667 61.2805L61.6667 61.2805Z" fill="#6AC4C5"/>
<path d="M61.3738 42.3488C60.9832 41.9582 60.3501 41.9582 59.9595 42.3488L53.5956 48.7127C53.2051 49.1032 53.2051 49.7364 53.5956 50.1269C53.9861 50.5175 54.6193 50.5175 55.0098 50.1269L60.6667 44.4701L66.3235 50.1269C66.714 50.5175 67.3472 50.5175 67.7377 50.1269C68.1282 49.7364 68.1282 49.1032 67.7377 48.7127L61.3738 42.3488ZM61.6667 61.5605V43.0559H59.6667V61.5605H61.6667Z" fill="#6AC4C5"/>
<path d="M60.6667 100C82.2058 100 99.6667 82.5391 99.6667 61C99.6667 39.4609 82.2058 22 60.6667 22C39.1275 22 21.6667 39.4609 21.6667 61C21.6667 82.5391 39.1275 100 60.6667 100Z" stroke="#26ADD7" stroke-opacity="0.3" stroke-width="20" stroke-miterlimit="10"/>
</svg>
