<svg width="2788" height="585" viewBox="0 0 2788 585" fill="none" xmlns="http://www.w3.org/2000/svg">
<g opacity="0.3">
<mask id="path-1-inside-1_1872_11689" fill="white">
<path d="M1227.88 339.912C1227.96 338.99 1228.01 338.069 1228.01 337.147C1228.01 319.148 1213.66 304.503 1196.01 304.503C1178.37 304.503 1164.01 319.148 1164.01 337.147C1164.01 346.953 1168.28 355.735 1175.01 361.726C1171.44 363.749 1168.98 367.589 1168.98 372.044C1168.98 378.573 1174.18 383.873 1180.58 383.873C1182.38 383.873 1184.07 383.412 1185.57 382.669L1195.69 398.569V422.533C1195.69 423.25 1196.24 423.813 1196.94 423.813C1197.64 423.813 1198.2 423.25 1198.2 422.533V399.362C1198.5 398.953 1198.55 398.364 1198.25 397.903L1198.2 397.826V387.483C1198.2 387.483 1198.3 387.431 1198.35 387.406L1208.36 378.393C1212.22 381.876 1217.27 384.001 1222.82 384.001C1234.89 384.001 1244.72 373.99 1244.72 361.675C1244.72 351.126 1237.5 342.268 1227.83 339.938L1227.88 339.912ZM1187.76 381.287C1190.47 379.11 1192.22 375.782 1192.22 372.018C1192.22 371.148 1192.12 370.303 1191.95 369.484C1193.2 369.637 1194.46 369.765 1195.74 369.765V393.858L1187.76 381.287ZM1198.25 384.077V369.637C1199.6 369.535 1200.96 369.381 1202.29 369.125C1203.27 371.89 1204.75 374.399 1206.63 376.524L1198.25 384.077Z"/>
</mask>
<path d="M1227.88 339.912C1227.96 338.99 1228.01 338.069 1228.01 337.147C1228.01 319.148 1213.66 304.503 1196.01 304.503C1178.37 304.503 1164.01 319.148 1164.01 337.147C1164.01 346.953 1168.28 355.735 1175.01 361.726C1171.44 363.749 1168.98 367.589 1168.98 372.044C1168.98 378.573 1174.18 383.873 1180.58 383.873C1182.38 383.873 1184.07 383.412 1185.57 382.669L1195.69 398.569V422.533C1195.69 423.25 1196.24 423.813 1196.94 423.813C1197.64 423.813 1198.2 423.25 1198.2 422.533V399.362C1198.5 398.953 1198.55 398.364 1198.25 397.903L1198.2 397.826V387.483C1198.2 387.483 1198.3 387.431 1198.35 387.406L1208.36 378.393C1212.22 381.876 1217.27 384.001 1222.82 384.001C1234.89 384.001 1244.72 373.99 1244.72 361.675C1244.72 351.126 1237.5 342.268 1227.83 339.938L1227.88 339.912ZM1187.76 381.287C1190.47 379.11 1192.22 375.782 1192.22 372.018C1192.22 371.148 1192.12 370.303 1191.95 369.484C1193.2 369.637 1194.46 369.765 1195.74 369.765V393.858L1187.76 381.287ZM1198.25 384.077V369.637C1199.6 369.535 1200.96 369.381 1202.29 369.125C1203.27 371.89 1204.75 374.399 1206.63 376.524L1198.25 384.077Z" fill="#F7F7F7"/>
<path d="M1227.88 339.912L1228.34 340.803L1228.84 340.549L1228.88 339.993L1227.88 339.912ZM1175.01 361.726L1175.5 362.596L1176.71 361.907L1175.67 360.979L1175.01 361.726ZM1185.57 382.669L1186.42 382.132L1185.93 381.376L1185.13 381.772L1185.57 382.669ZM1195.69 398.569H1196.69V398.278L1196.53 398.032L1195.69 398.569ZM1198.2 399.362L1197.39 398.77L1197.2 399.034V399.362H1198.2ZM1198.25 397.903L1197.41 398.45L1197.41 398.45L1198.25 397.903ZM1198.2 397.826H1197.2V398.124L1197.36 398.373L1198.2 397.826ZM1198.2 387.483L1197.74 386.592L1197.2 386.87V387.483H1198.2ZM1198.35 387.406L1198.8 388.297L1198.92 388.237L1199.02 388.149L1198.35 387.406ZM1208.36 378.393L1209.03 377.651L1208.36 377.048L1207.69 377.65L1208.36 378.393ZM1227.83 339.938L1227.38 339.047L1224.97 340.276L1227.6 340.91L1227.83 339.938ZM1187.76 381.287L1187.13 380.507L1186.43 381.067L1186.91 381.823L1187.76 381.287ZM1191.95 369.484L1192.07 368.491L1190.67 368.32L1190.97 369.693L1191.95 369.484ZM1195.74 369.765H1196.74V368.765H1195.74V369.765ZM1195.74 393.858L1194.89 394.394L1196.74 397.299V393.858H1195.74ZM1198.25 384.077H1197.25V386.325L1198.92 384.82L1198.25 384.077ZM1198.25 369.637L1198.17 368.64L1197.25 368.71V369.637H1198.25ZM1202.29 369.125L1203.23 368.791L1202.94 367.981L1202.1 368.143L1202.29 369.125ZM1206.63 376.524L1207.3 377.267L1208.03 376.604L1207.38 375.861L1206.63 376.524ZM1228.88 339.993C1228.96 339.055 1229.01 338.104 1229.01 337.147H1227.01C1227.01 338.033 1226.96 338.926 1226.89 339.831L1228.88 339.993ZM1229.01 337.147C1229.01 318.615 1214.23 303.503 1196.01 303.503V305.503C1213.08 305.503 1227.01 319.681 1227.01 337.147H1229.01ZM1196.01 303.503C1177.8 303.503 1163.01 318.615 1163.01 337.147H1165.01C1165.01 319.681 1178.94 305.503 1196.01 305.503V303.503ZM1163.01 337.147C1163.01 347.249 1167.41 356.299 1174.34 362.473L1175.67 360.979C1169.15 355.171 1165.01 346.657 1165.01 337.147H1163.01ZM1174.51 360.856C1170.65 363.047 1167.98 367.21 1167.98 372.044H1169.98C1169.98 367.968 1172.23 364.45 1175.5 362.596L1174.51 360.856ZM1167.98 372.044C1167.98 379.106 1173.61 384.873 1180.58 384.873V382.873C1174.75 382.873 1169.98 378.039 1169.98 372.044H1167.98ZM1180.58 384.873C1182.56 384.873 1184.39 384.367 1186.01 383.566L1185.13 381.772C1183.74 382.457 1182.21 382.873 1180.58 382.873V384.873ZM1184.73 383.206L1194.84 399.105L1196.53 398.032L1186.42 382.132L1184.73 383.206ZM1194.69 398.569V422.533H1196.69V398.569H1194.69ZM1194.69 422.533C1194.69 423.783 1195.67 424.813 1196.94 424.813V422.813C1196.86 422.813 1196.81 422.785 1196.76 422.742C1196.72 422.699 1196.69 422.63 1196.69 422.533H1194.69ZM1196.94 424.813C1198.21 424.813 1199.2 423.783 1199.2 422.533H1197.2C1197.2 422.63 1197.16 422.699 1197.12 422.742C1197.08 422.785 1197.02 422.813 1196.94 422.813V424.813ZM1199.2 422.533V399.362H1197.2V422.533H1199.2ZM1199 399.955C1199.53 399.237 1199.63 398.195 1199.08 397.356L1197.41 398.45C1197.44 398.492 1197.45 398.543 1197.45 398.603C1197.44 398.666 1197.42 398.726 1197.39 398.77L1199 399.955ZM1199.08 397.356L1199.03 397.279L1197.36 398.373L1197.41 398.45L1199.08 397.356ZM1199.2 397.826V387.483H1197.2V397.826H1199.2ZM1198.2 387.483C1198.65 388.373 1198.65 388.373 1198.65 388.373C1198.65 388.373 1198.65 388.373 1198.65 388.373C1198.65 388.373 1198.65 388.373 1198.65 388.373C1198.65 388.373 1198.65 388.373 1198.65 388.373C1198.65 388.373 1198.65 388.373 1198.65 388.373C1198.65 388.373 1198.65 388.374 1198.65 388.373C1198.65 388.373 1198.65 388.373 1198.65 388.373C1198.65 388.372 1198.65 388.374 1198.65 388.373C1198.65 388.372 1198.65 388.372 1198.65 388.371C1198.66 388.371 1198.66 388.366 1198.67 388.365C1198.68 388.358 1198.69 388.355 1198.71 388.345C1198.72 388.337 1198.74 388.328 1198.76 388.319C1198.8 388.296 1198.73 388.33 1198.78 388.307C1198.79 388.303 1198.79 388.3 1198.8 388.297L1197.89 386.515C1197.87 386.526 1197.82 386.549 1197.8 386.563C1197.79 386.569 1197.8 386.563 1197.79 386.569C1197.75 386.586 1197.81 386.557 1197.78 386.574C1197.77 386.576 1197.77 386.578 1197.77 386.579C1197.76 386.581 1197.77 386.579 1197.76 386.58C1197.76 386.58 1197.76 386.581 1197.76 386.581C1197.76 386.583 1197.77 386.579 1197.76 386.581C1197.76 386.583 1197.76 386.581 1197.76 386.583C1197.75 386.585 1197.75 386.589 1197.75 386.59C1197.74 386.591 1197.74 386.59 1197.74 386.591C1197.74 386.591 1197.74 386.591 1197.74 386.591C1197.74 386.591 1197.74 386.591 1197.74 386.591C1197.74 386.592 1197.74 386.591 1197.74 386.592C1197.74 386.592 1197.74 386.592 1197.74 386.592C1197.74 386.592 1197.74 386.592 1197.74 386.592C1197.74 386.592 1197.74 386.592 1197.74 386.592C1197.74 386.592 1197.74 386.592 1197.74 386.592C1197.74 386.592 1197.74 386.592 1197.74 386.592C1197.74 386.592 1197.74 386.592 1197.74 386.592C1197.74 386.592 1197.74 386.592 1197.74 386.592C1197.74 386.592 1197.74 386.592 1197.74 386.592C1197.74 386.592 1197.74 386.592 1198.2 387.483ZM1199.02 388.149L1209.03 379.137L1207.69 377.65L1197.68 386.662L1199.02 388.149ZM1207.69 379.136C1211.73 382.773 1217.01 385.001 1222.82 385.001V383.001C1217.53 383.001 1212.72 380.978 1209.03 377.651L1207.69 379.136ZM1222.82 385.001C1235.46 385.001 1245.72 374.525 1245.72 361.675H1243.72C1243.72 373.455 1234.32 383.001 1222.82 383.001V385.001ZM1245.72 361.675C1245.72 350.663 1238.18 341.403 1228.07 338.965L1227.6 340.91C1236.81 343.132 1243.72 351.589 1243.72 361.675H1245.72ZM1228.29 340.828L1228.34 340.803L1227.43 339.021L1227.38 339.047L1228.29 340.828ZM1188.38 382.066C1191.31 379.711 1193.22 376.102 1193.22 372.018H1191.22C1191.22 375.462 1189.62 378.509 1187.13 380.507L1188.38 382.066ZM1193.22 372.018C1193.22 371.07 1193.11 370.155 1192.92 369.274L1190.97 369.693C1191.13 370.451 1191.22 371.225 1191.22 372.018H1193.22ZM1191.83 370.476C1193.09 370.631 1194.39 370.765 1195.74 370.765V368.765C1194.52 368.765 1193.31 368.643 1192.07 368.491L1191.83 370.476ZM1194.74 369.765V393.858H1196.74V369.765H1194.74ZM1196.58 393.322L1188.6 380.751L1186.91 381.823L1194.89 394.394L1196.58 393.322ZM1199.25 384.077V369.637H1197.25V384.077H1199.25ZM1198.32 370.634C1199.7 370.53 1201.1 370.373 1202.48 370.107L1202.1 368.143C1200.82 368.39 1199.5 368.539 1198.17 368.64L1198.32 370.634ZM1201.34 369.459C1202.36 372.344 1203.91 374.965 1205.88 377.187L1207.38 375.861C1205.58 373.834 1204.17 371.437 1203.23 368.791L1201.34 369.459ZM1205.96 375.782L1197.58 383.334L1198.92 384.82L1207.3 377.267L1205.96 375.782Z" fill="#9E9E9E" mask="url(#path-1-inside-1_1872_11689)"/>
<path d="M430.75 330.596V331.096H431.25H485.584C486.001 331.096 486.339 331.426 486.339 331.876V416.546C486.339 416.996 486.001 417.326 485.584 417.326H179.333C178.916 417.326 178.578 416.996 178.578 416.546V185.734C178.578 185.284 178.916 184.954 179.333 184.954H202.296H202.796V184.454V130.303C202.796 129.937 203.068 129.628 203.412 129.566L203.825 129.493V129.446H217.605H218.105V128.946V97.0447C218.105 96.5945 218.443 96.2645 218.86 96.2645H230.404H230.904V95.7645V83.5263C230.904 83.076 231.242 82.7461 231.659 82.7461H257.684C258.101 82.7461 258.439 83.076 258.439 83.5263V95.7645V96.2645H258.939H274.197C274.614 96.2645 274.952 96.5945 274.952 97.0447V118.526V119.026H275.452H288.477H288.977V118.526V107.132C288.977 106.682 289.315 106.352 289.732 106.352H315.757C316.174 106.352 316.512 106.682 316.512 107.132V118.526V119.026H317.012H325.921H326.421V118.526V107.132C326.421 106.682 326.759 106.352 327.176 106.352H353.201C353.618 106.352 353.955 106.682 353.955 107.132V118.526V119.026H354.455H363.842H364.342V118.526V107.132C364.342 106.682 364.679 106.352 365.096 106.352H391.121C391.538 106.352 391.876 106.682 391.876 107.132V118.526V119.026H392.376H408.413C408.83 119.026 409.167 119.356 409.167 119.806V139.111V139.611H409.667H429.996C430.413 139.611 430.75 139.941 430.75 140.391V158.364V158.864H431.25H448.241C448.658 158.864 448.995 159.194 448.995 159.644V184.53C448.995 184.981 448.658 185.311 448.241 185.311H431.25H430.75V185.811V201.557V202.057H431.25H447.814C448.231 202.057 448.569 202.387 448.569 202.837V227.723C448.569 228.173 448.231 228.503 447.814 228.503H431.25H430.75V229.003V247.335V247.835H431.25H447.814C448.231 247.835 448.569 248.165 448.569 248.615V273.501C448.569 273.951 448.231 274.281 447.814 274.281H431.25H430.75V274.781V293.113V293.613H431.25H447.814C448.231 293.613 448.569 293.943 448.569 294.393V319.28C448.569 319.73 448.231 320.06 447.814 320.06H431.25H430.75V320.56V330.596Z" fill="#F7F7F7" stroke="#9E9E9E"/>
<path d="M1154.82 283.777H1154.32V283.802H1149.72H1149.22V284.302V299.459V299.959H1149.72H1154.82C1155.23 299.959 1155.57 300.289 1155.57 300.74V318.79C1155.57 319.24 1155.23 319.57 1154.82 319.57H1149.72H1149.22V320.07V335.227V335.727H1149.72H1154.82C1155.23 335.727 1155.57 336.057 1155.57 336.507V354.557C1155.57 355.007 1155.23 355.337 1154.82 355.337H1149.72H1149.22V355.837V371.02V371.52H1149.72H1154.82C1155.23 371.52 1155.57 371.85 1155.57 372.3V390.35C1155.57 390.801 1155.23 391.131 1154.82 391.131H1149.72H1149.22V391.631V406.532V407.032H1149.72H1154.82C1155.23 407.032 1155.57 407.362 1155.57 407.812V425.273C1155.57 425.723 1155.23 426.053 1154.82 426.053H1119.91H1119.41V426.553V432.032C1119.41 432.482 1119.07 432.812 1118.65 432.812H1102.27H1101.77V433.312V440.328V440.828H1102.27H1106.96C1107.38 440.828 1107.71 441.158 1107.71 441.608V452.592C1107.71 453.042 1107.38 453.372 1106.96 453.372H1002.46C1002.04 453.372 1001.7 453.042 1001.7 452.592V441.608C1001.7 441.158 1002.04 440.828 1002.46 440.828H1007.15H1007.65V440.328V433.312V432.812H1007.15H918.886C918.469 432.812 918.131 432.482 918.131 432.032V422.866C918.131 422.416 918.469 422.086 918.886 422.086H922.4H922.9V421.586V239.215C922.9 238.765 923.237 238.435 923.654 238.435H932.463H932.963V237.935V231.56C932.963 231.11 933.301 230.78 933.718 230.78H990.637C991.054 230.78 991.392 231.11 991.392 231.56V237.935V238.435H991.892H999.922C1000.34 238.435 1000.68 238.765 1000.68 239.215V263.666V264.166H1001.18H1013.22H1013.72V263.666V250.813C1013.72 250.363 1014.06 250.033 1014.48 250.033H1134.29C1134.71 250.033 1135.04 250.363 1135.04 250.813V263.666V264.166H1135.54H1154.82C1155.23 264.166 1155.57 264.496 1155.57 264.946V282.997C1155.57 283.447 1155.23 283.777 1154.82 283.777Z" fill="#F7F7F7" stroke="#9E9E9E"/>
<path d="M866.586 399.89L866.561 399.916H867.752C868.169 399.916 868.506 400.246 868.506 400.696V415.699C868.506 416.149 868.169 416.479 867.752 416.479H505.912C505.495 416.479 505.157 416.149 505.157 415.699V400.696C505.157 400.246 505.495 399.916 505.912 399.916H514.871H515.371V399.416V325.115C515.371 324.665 515.709 324.335 516.126 324.335H543.883H544.383V323.835V163.176C544.383 162.726 544.721 162.396 545.138 162.396H565.516H566.016V161.896V74.7427C566.016 74.2925 566.354 73.9625 566.771 73.9625H585.392H585.892V73.4625V42.0731C585.892 41.6229 586.23 41.293 586.647 41.293H618.67C619.087 41.293 619.425 41.6229 619.425 42.0731V73.4625V73.9625H619.925H638.546C638.964 73.9625 639.301 74.2925 639.301 74.7427V161.896V162.396H639.801H660.179C660.597 162.396 660.934 162.726 660.934 163.176V333.564V334.064H661.434H675.363H675.863V333.564V210.644C675.863 210.426 675.954 210.227 676.102 210.091L676.163 210.035L676.202 209.964C676.305 209.776 676.542 209.516 677.139 209.215C677.737 208.914 678.658 208.592 680.072 208.263C682.898 207.606 687.605 206.943 695.429 206.329L695.43 206.329C702.47 205.767 710.892 205.383 720.048 205.127L720.534 205.113V204.627V167.093C720.534 166.643 720.872 166.313 721.289 166.313H741.316H741.816V165.813V141.029C741.816 140.579 742.154 140.249 742.571 140.249H756.524H757.024V139.749V122.16C757.024 121.709 757.362 121.379 757.779 121.379H797.984C798.401 121.379 798.739 121.709 798.739 122.16V139.749V140.249H799.239H813.192C813.609 140.249 813.947 140.579 813.947 141.029V165.813V166.313H814.447H834.474C834.891 166.313 835.229 166.643 835.229 167.093V399.39V399.89H835.729H866.586Z" fill="#F7F7F7" stroke="#9E9E9E"/>
<path d="M103.415 358.026V357.542L102.931 357.526C89.9002 357.1 79.4475 346.696 79.4475 332.807C79.4475 325.813 82.1049 313.674 86.5225 303.28C88.7299 298.087 91.363 293.362 94.2976 289.945C97.2403 286.518 100.419 284.481 103.718 284.481C107.016 284.481 110.195 286.518 113.138 289.945C116.072 293.362 118.705 298.087 120.913 303.28C125.33 313.674 127.988 325.813 127.988 332.807C127.988 345.888 117.971 356.598 105.389 357.476L104.924 357.508V357.974V396.353C104.924 396.804 104.587 397.134 104.169 397.134C103.752 397.134 103.415 396.804 103.415 396.353V358.026Z" fill="#F7F7F7" stroke="#9E9E9E"/>
<path d="M70.0151 350.191V350.691H70.0354C69.784 363.545 59.8633 373.994 47.4419 374.86L46.9767 374.893V375.359V413.738C46.9767 414.188 46.639 414.518 46.2219 414.518C45.8047 414.518 45.467 414.188 45.467 413.738V375.41V374.926L44.9834 374.911C31.9527 374.484 21.5 364.081 21.5 350.191C21.5 343.197 24.1512 331.058 28.5625 320.665C30.7668 315.471 33.3968 310.747 36.329 307.33C39.2694 303.903 42.4464 301.866 45.745 301.866C49.0438 301.866 52.2223 303.903 55.1651 307.33C58.0996 310.747 60.7328 315.471 62.9402 320.665C67.3578 331.059 70.0151 343.197 70.0151 350.191Z" fill="#F7F7F7" stroke="#9E9E9E"/>
<path d="M1308.65 340.428L1309.06 340.456L1309 340.947C1317.19 342.991 1323.28 350.498 1323.28 359.459C1323.28 369.971 1314.88 378.52 1304.6 378.52C1299.94 378.52 1295.66 376.752 1292.39 373.833L1292.05 373.536L1291.72 373.835L1283.06 381.618L1282.9 381.767V381.99V412.33C1282.9 412.78 1282.56 413.11 1282.14 413.11C1281.73 413.11 1281.39 412.78 1281.39 412.33V382.195V382.066L1281.33 381.953C1281.18 381.689 1281.19 381.416 1281.32 381.194L1281.39 381.076V380.94V366.679V366.187L1280.9 366.179C1265.97 365.953 1253.86 353.637 1253.86 338.183C1253.86 322.729 1266.19 310.161 1281.31 310.161C1296.44 310.161 1308.77 322.729 1308.77 338.183C1308.77 338.75 1308.73 339.312 1308.69 339.884C1308.67 340.064 1308.66 340.245 1308.65 340.428ZM1282.9 366.602V367.138V378.559V379.68L1283.73 378.931L1290.61 372.761L1290.97 372.432L1290.65 372.061C1289.14 370.315 1287.91 368.244 1287.11 365.998L1286.96 365.585L1286.53 365.679C1285.51 365.902 1284.45 366.028 1283.36 366.104L1283.4 366.577H1282.9V366.602Z" fill="#F7F7F7" stroke="#9E9E9E"/>
<path d="M900.982 350.835L901.395 350.863L901.335 351.354C909.52 353.398 915.612 360.905 915.612 369.866C915.612 380.379 907.219 388.927 896.939 388.927C892.274 388.927 887.999 387.159 884.723 384.24L884.389 383.943L884.056 384.242L875.398 392.025L875.232 392.174V392.397V422.737C875.232 423.187 874.895 423.517 874.477 423.517C874.06 423.517 873.723 423.187 873.723 422.737V392.602V392.473L873.66 392.361C873.515 392.096 873.523 391.824 873.654 391.601L873.723 391.484V391.347V377.086V376.594L873.23 376.587C858.302 376.36 846.192 364.044 846.192 348.59C846.192 333.137 858.526 320.568 873.649 320.568C888.773 320.568 901.107 333.137 901.107 348.59C901.107 349.157 901.065 349.718 901.022 350.29C901.008 350.47 900.995 350.652 900.982 350.835ZM875.232 377.01V377.546V388.966V390.087L876.066 389.338L882.943 383.168L883.309 382.84L882.986 382.468C881.471 380.723 880.247 378.651 879.44 376.405L879.292 375.992L878.863 376.086C877.84 376.31 876.787 376.435 875.698 376.511L875.73 376.984H875.232V377.01Z" fill="#F7F7F7" stroke="#9E9E9E"/>
<mask id="path-10-inside-2_1872_11689" fill="white">
<path d="M2381.49 329.502C2381.57 328.581 2381.62 327.659 2381.62 326.737C2381.62 308.738 2367.26 294.093 2349.62 294.093C2331.97 294.093 2317.62 308.738 2317.62 326.737C2317.62 336.543 2321.89 345.325 2328.61 351.316C2325.05 353.339 2322.59 357.179 2322.59 361.634C2322.59 368.163 2327.78 373.463 2334.18 373.463C2335.99 373.463 2337.67 373.002 2339.18 372.26L2349.29 388.159V412.124C2349.29 412.84 2349.84 413.404 2350.55 413.404C2351.25 413.404 2351.8 412.84 2351.8 412.124V388.953C2352.1 388.543 2352.15 387.954 2351.85 387.493L2351.8 387.417V377.073C2351.8 377.073 2351.9 377.022 2351.95 376.996L2361.96 367.984C2365.83 371.466 2370.87 373.591 2376.42 373.591C2388.49 373.591 2398.33 363.58 2398.33 351.265C2398.33 340.717 2391.1 331.858 2381.44 329.528L2381.49 329.502ZM2341.36 370.877C2344.07 368.701 2345.83 365.372 2345.83 361.609C2345.83 360.738 2345.73 359.893 2345.55 359.074C2346.81 359.228 2348.06 359.356 2349.34 359.356V383.448L2341.36 370.877ZM2351.85 373.668V359.228C2353.21 359.125 2354.56 358.972 2355.89 358.715C2356.87 361.481 2358.35 363.99 2360.23 366.115L2351.85 373.668Z"/>
</mask>
<path d="M2381.49 329.502C2381.57 328.581 2381.62 327.659 2381.62 326.737C2381.62 308.738 2367.26 294.093 2349.62 294.093C2331.97 294.093 2317.62 308.738 2317.62 326.737C2317.62 336.543 2321.89 345.325 2328.61 351.316C2325.05 353.339 2322.59 357.179 2322.59 361.634C2322.59 368.163 2327.78 373.463 2334.18 373.463C2335.99 373.463 2337.67 373.002 2339.18 372.26L2349.29 388.159V412.124C2349.29 412.84 2349.84 413.404 2350.55 413.404C2351.25 413.404 2351.8 412.84 2351.8 412.124V388.953C2352.1 388.543 2352.15 387.954 2351.85 387.493L2351.8 387.417V377.073C2351.8 377.073 2351.9 377.022 2351.95 376.996L2361.96 367.984C2365.83 371.466 2370.87 373.591 2376.42 373.591C2388.49 373.591 2398.33 363.58 2398.33 351.265C2398.33 340.717 2391.1 331.858 2381.44 329.528L2381.49 329.502ZM2341.36 370.877C2344.07 368.701 2345.83 365.372 2345.83 361.609C2345.83 360.738 2345.73 359.893 2345.55 359.074C2346.81 359.228 2348.06 359.356 2349.34 359.356V383.448L2341.36 370.877ZM2351.85 373.668V359.228C2353.21 359.125 2354.56 358.972 2355.89 358.715C2356.87 361.481 2358.35 363.99 2360.23 366.115L2351.85 373.668Z" fill="#F7F7F7"/>
<path d="M2381.49 329.502L2381.94 330.393L2382.44 330.14L2382.49 329.584L2381.49 329.502ZM2328.61 351.316L2329.11 352.186L2330.32 351.497L2329.28 350.569L2328.61 351.316ZM2339.18 372.26L2340.02 371.723L2339.54 370.966L2338.74 371.363L2339.18 372.26ZM2349.29 388.159H2350.29V387.868L2350.14 387.622L2349.29 388.159ZM2351.8 388.953L2351 388.36L2350.8 388.625V388.953H2351.8ZM2351.85 387.493L2352.69 386.946L2352.69 386.946L2351.85 387.493ZM2351.8 387.417H2350.8V387.715L2350.96 387.964L2351.8 387.417ZM2351.8 377.073L2351.35 376.182L2350.8 376.46V377.073H2351.8ZM2351.95 376.996L2352.41 377.887L2352.52 377.827L2352.62 377.739L2351.95 376.996ZM2361.96 367.984L2362.63 367.241L2361.97 366.638L2361.3 367.241L2361.96 367.984ZM2381.44 329.528L2380.99 328.637L2378.57 329.866L2381.21 330.5L2381.44 329.528ZM2341.36 370.877L2340.73 370.097L2340.04 370.657L2340.52 371.413L2341.36 370.877ZM2345.55 359.074L2345.67 358.081L2344.28 357.911L2344.57 359.284L2345.55 359.074ZM2349.34 359.356H2350.34V358.356H2349.34V359.356ZM2349.34 383.448L2348.5 383.984L2350.34 386.889V383.448H2349.34ZM2351.85 373.668H2350.85V375.915L2352.52 374.411L2351.85 373.668ZM2351.85 359.228L2351.78 358.23L2350.85 358.3V359.228H2351.85ZM2355.89 358.715L2356.83 358.382L2356.55 357.571L2355.7 357.734L2355.89 358.715ZM2360.23 366.115L2360.9 366.858L2361.64 366.194L2360.98 365.452L2360.23 366.115ZM2382.49 329.584C2382.56 328.645 2382.62 327.694 2382.62 326.737H2380.62C2380.62 327.623 2380.57 328.516 2380.49 329.421L2382.49 329.584ZM2382.62 326.737C2382.62 308.205 2367.83 293.093 2349.62 293.093V295.093C2366.69 295.093 2380.62 309.272 2380.62 326.737H2382.62ZM2349.62 293.093C2331.4 293.093 2316.62 308.205 2316.62 326.737H2318.62C2318.62 309.272 2332.55 295.093 2349.62 295.093V293.093ZM2316.62 326.737C2316.62 336.839 2321.02 345.889 2327.95 352.063L2329.28 350.569C2322.76 344.761 2318.62 336.247 2318.62 326.737H2316.62ZM2328.12 350.447C2324.26 352.637 2321.59 356.8 2321.59 361.634H2323.59C2323.59 357.558 2325.84 354.041 2329.11 352.186L2328.12 350.447ZM2321.59 361.634C2321.59 368.696 2327.21 374.463 2334.18 374.463V372.463C2328.35 372.463 2323.59 367.63 2323.59 361.634H2321.59ZM2334.18 374.463C2336.16 374.463 2338 373.957 2339.62 373.156L2338.74 371.363C2337.35 372.047 2335.82 372.463 2334.18 372.463V374.463ZM2338.33 372.796L2348.45 388.696L2350.14 387.622L2340.02 371.723L2338.33 372.796ZM2348.29 388.159V412.124H2350.29V388.159H2348.29ZM2348.29 412.124C2348.29 413.374 2349.27 414.404 2350.55 414.404V412.404C2350.47 412.404 2350.41 412.375 2350.37 412.332C2350.33 412.289 2350.29 412.22 2350.29 412.124H2348.29ZM2350.55 414.404C2351.82 414.404 2352.8 413.374 2352.8 412.124H2350.8C2350.8 412.22 2350.77 412.289 2350.72 412.332C2350.68 412.375 2350.62 412.404 2350.55 412.404V414.404ZM2352.8 412.124V388.953H2350.8V412.124H2352.8ZM2352.61 389.545C2353.13 388.828 2353.24 387.785 2352.69 386.946L2351.01 388.04C2351.04 388.083 2351.06 388.134 2351.05 388.193C2351.05 388.256 2351.03 388.316 2351 388.36L2352.61 389.545ZM2352.69 386.946L2352.64 386.869L2350.96 387.964L2351.01 388.041L2352.69 386.946ZM2352.8 387.417V377.073H2350.8V387.417H2352.8ZM2351.8 377.073C2352.26 377.964 2352.26 377.964 2352.26 377.964C2352.26 377.964 2352.26 377.964 2352.26 377.964C2352.26 377.964 2352.26 377.964 2352.26 377.964C2352.26 377.964 2352.26 377.964 2352.26 377.964C2352.26 377.964 2352.26 377.964 2352.26 377.964C2352.26 377.964 2352.26 377.964 2352.26 377.964C2352.26 377.964 2352.26 377.964 2352.26 377.964C2352.26 377.964 2352.26 377.964 2352.26 377.964C2352.26 377.964 2352.26 377.964 2352.26 377.964C2352.26 377.964 2352.26 377.964 2352.26 377.964C2352.26 377.964 2352.26 377.964 2352.26 377.964C2352.26 377.964 2352.26 377.964 2352.26 377.964C2352.26 377.964 2352.26 377.963 2352.26 377.963C2352.26 377.963 2352.26 377.963 2352.26 377.963C2352.26 377.963 2352.26 377.963 2352.26 377.963C2352.26 377.963 2352.26 377.963 2352.26 377.963C2352.26 377.963 2352.26 377.963 2352.26 377.963C2352.26 377.963 2352.26 377.963 2352.26 377.963C2352.26 377.963 2352.26 377.963 2352.26 377.963C2352.26 377.963 2352.26 377.963 2352.26 377.963C2352.26 377.963 2352.26 377.963 2352.26 377.963C2352.26 377.963 2352.26 377.963 2352.26 377.963C2352.26 377.963 2352.26 377.962 2352.26 377.961C2352.26 377.96 2352.26 377.962 2352.26 377.961C2352.26 377.961 2352.26 377.96 2352.26 377.96C2352.26 377.96 2352.26 377.96 2352.26 377.96C2352.26 377.96 2352.26 377.96 2352.26 377.96C2352.26 377.96 2352.26 377.96 2352.26 377.96C2352.26 377.96 2352.26 377.96 2352.26 377.96C2352.26 377.959 2352.26 377.96 2352.26 377.959C2352.26 377.959 2352.26 377.959 2352.26 377.959C2352.26 377.959 2352.26 377.959 2352.26 377.959C2352.26 377.959 2352.26 377.959 2352.26 377.959C2352.27 377.959 2352.27 377.956 2352.27 377.955C2352.27 377.955 2352.31 377.938 2352.31 377.935C2352.32 377.931 2352.33 377.926 2352.34 377.922C2352.35 377.917 2352.33 377.925 2352.34 377.919C2352.34 377.919 2352.34 377.919 2352.34 377.918C2352.34 377.918 2352.35 377.918 2352.35 377.918C2352.35 377.918 2352.35 377.918 2352.35 377.917C2352.35 377.917 2352.35 377.917 2352.35 377.917C2352.35 377.917 2352.35 377.917 2352.35 377.917C2352.35 377.916 2352.35 377.917 2352.35 377.916C2352.35 377.915 2352.35 377.916 2352.35 377.914C2352.36 377.91 2352.35 377.918 2352.35 377.913C2352.36 377.91 2352.36 377.912 2352.36 377.91C2352.39 377.895 2352.36 377.912 2352.38 377.898C2352.39 377.896 2352.39 377.894 2352.4 377.892C2352.4 377.891 2352.41 377.887 2352.41 377.887L2351.5 376.105C2351.49 376.107 2351.48 376.113 2351.48 376.116C2351.46 376.122 2351.46 376.122 2351.45 376.128C2351.44 376.137 2351.44 376.132 2351.43 376.141C2351.41 376.148 2351.42 376.147 2351.4 376.153C2351.39 376.161 2351.37 376.169 2351.36 376.174C2351.36 376.176 2351.35 376.179 2351.35 376.18C2351.35 376.181 2351.35 376.18 2351.35 376.182C2351.35 376.182 2351.35 376.182 2351.35 376.182C2351.35 376.182 2351.35 376.182 2351.35 376.182C2351.35 376.182 2351.35 376.182 2351.35 376.182C2351.35 376.182 2351.35 376.182 2351.35 376.182C2351.35 376.182 2351.35 376.182 2351.35 376.182C2351.35 376.182 2351.35 376.182 2351.35 376.182C2351.34 376.185 2351.35 376.179 2351.35 376.182C2351.35 376.182 2351.35 376.182 2351.35 376.182C2351.35 376.182 2351.35 376.182 2351.35 376.182C2351.35 376.182 2351.35 376.182 2351.35 376.182C2351.35 376.182 2351.35 376.182 2351.8 377.073ZM2352.62 377.739L2362.63 368.727L2361.3 367.241L2351.28 376.253L2352.62 377.739ZM2361.3 368.727C2365.33 372.364 2370.61 374.591 2376.42 374.591V372.591C2371.14 372.591 2366.33 370.568 2362.63 367.241L2361.3 368.727ZM2376.42 374.591C2389.06 374.591 2399.33 364.115 2399.33 351.265H2397.33C2397.33 363.045 2387.92 372.591 2376.42 372.591V374.591ZM2399.33 351.265C2399.33 340.254 2391.78 330.994 2381.67 328.556L2381.21 330.5C2390.42 332.722 2397.33 341.179 2397.33 351.265H2399.33ZM2381.89 330.419L2381.94 330.393L2381.04 328.611L2380.99 328.637L2381.89 330.419ZM2341.99 371.657C2344.92 369.302 2346.83 365.693 2346.83 361.609H2344.83C2344.83 365.052 2343.22 368.1 2340.73 370.097L2341.99 371.657ZM2346.83 361.609C2346.83 360.661 2346.72 359.745 2346.53 358.864L2344.57 359.284C2344.74 360.041 2344.83 360.816 2344.83 361.609H2346.83ZM2345.43 360.067C2346.69 360.221 2348 360.356 2349.34 360.356V358.356C2348.12 358.356 2346.92 358.234 2345.67 358.081L2345.43 360.067ZM2348.34 359.356V383.448H2350.34V359.356H2348.34ZM2350.19 382.912L2342.21 370.341L2340.52 371.413L2348.5 383.984L2350.19 382.912ZM2352.85 373.668V359.228H2350.85V373.668H2352.85ZM2351.93 360.225C2353.31 360.121 2354.7 359.963 2356.08 359.697L2355.7 357.734C2354.42 357.98 2353.11 358.13 2351.78 358.23L2351.93 360.225ZM2354.95 359.049C2355.97 361.934 2357.52 364.555 2359.48 366.778L2360.98 365.452C2359.19 363.424 2357.77 361.027 2356.83 358.382L2354.95 359.049ZM2359.56 365.372L2351.18 372.925L2352.52 374.411L2360.9 366.858L2359.56 365.372Z" fill="#9E9E9E" mask="url(#path-10-inside-2_1872_11689)"/>
<path d="M2078.4 271.58V271.555H2077.9C2077.48 271.555 2077.14 271.225 2077.14 270.774V252.724C2077.14 252.274 2077.48 251.944 2077.9 251.944H2097.17H2097.67V251.444V238.591C2097.67 238.141 2098.01 237.811 2098.43 237.811H2218.24C2218.66 237.811 2218.99 238.141 2218.99 238.591V251.444V251.944H2219.49H2231.54H2232.04V251.444V226.993C2232.04 226.543 2232.38 226.213 2232.79 226.213H2240.82H2241.32V225.713V219.338C2241.32 218.888 2241.66 218.558 2242.08 218.558H2299C2299.42 218.558 2299.75 218.888 2299.75 219.338V225.713V226.213H2300.25H2309.06C2309.48 226.213 2309.82 226.543 2309.82 226.993V409.364V409.864H2310.32H2313.83C2314.25 409.864 2314.58 410.194 2314.58 410.644V419.81C2314.58 420.26 2314.25 420.59 2313.83 420.59H2225.57H2225.07V421.09V428.105V428.605H2225.57H2230.26C2230.68 428.605 2231.01 428.935 2231.01 429.386V440.369C2231.01 440.82 2230.68 441.15 2230.26 441.15H2125.76C2125.34 441.15 2125 440.82 2125 440.369V429.386C2125 428.935 2125.34 428.605 2125.76 428.605H2130.45H2130.95V428.105V421.09V420.59H2130.45H2114.06C2113.65 420.59 2113.31 420.26 2113.31 419.81V414.331V413.831H2112.81H2077.9C2077.48 413.831 2077.14 413.501 2077.14 413.051V395.59C2077.14 395.139 2077.48 394.809 2077.9 394.809H2082.99H2083.49V394.309V379.408V378.908H2082.99H2077.9C2077.48 378.908 2077.14 378.578 2077.14 378.128V360.078C2077.14 359.628 2077.48 359.298 2077.9 359.298H2082.99H2083.49V358.798V343.615V343.115H2082.99H2077.9C2077.48 343.115 2077.14 342.785 2077.14 342.335V324.285C2077.14 323.835 2077.48 323.505 2077.9 323.505H2082.99H2083.49V323.005V307.848V307.348H2082.99H2077.9C2077.48 307.348 2077.14 307.018 2077.14 306.568V288.517C2077.14 288.067 2077.48 287.737 2077.9 287.737H2082.99H2083.49V287.237V272.08V271.58H2082.99H2078.4Z" fill="#F7F7F7" stroke="#9E9E9E"/>
<path d="M1890.09 399.89L1890.07 399.916H1891.26C1891.67 399.916 1892.01 400.246 1892.01 400.696V415.699C1892.01 416.149 1891.67 416.479 1891.26 416.479H1529.42C1529 416.479 1528.66 416.149 1528.66 415.699V400.696C1528.66 400.246 1529 399.916 1529.42 399.916H1538.38H1538.88V399.416V325.115C1538.88 324.665 1539.21 324.335 1539.63 324.335H1567.39H1567.89V323.835V163.176C1567.89 162.726 1568.23 162.396 1568.64 162.396H1589.02H1589.52V161.896V74.7427C1589.52 74.2925 1589.86 73.9625 1590.28 73.9625H1608.9H1609.4V73.4625V42.0731C1609.4 41.6229 1609.74 41.293 1610.15 41.293H1642.18C1642.59 41.293 1642.93 41.6229 1642.93 42.0731V73.4625V73.9625H1643.43H1662.05C1662.47 73.9625 1662.81 74.2925 1662.81 74.7427V161.896V162.396H1663.31H1683.69C1684.1 162.396 1684.44 162.726 1684.44 163.176V333.564V334.064H1684.94H1698.87H1699.37V333.564V210.644C1699.37 210.426 1699.46 210.227 1699.61 210.091L1699.67 210.035L1699.71 209.964C1699.81 209.776 1700.05 209.516 1700.65 209.215C1701.24 208.914 1702.16 208.592 1703.58 208.263C1706.4 207.606 1711.11 206.943 1718.93 206.329L1718.94 206.329C1725.98 205.767 1734.4 205.383 1743.55 205.127L1744.04 205.113V204.627V167.093C1744.04 166.643 1744.38 166.313 1744.79 166.313H1764.82H1765.32V165.813V141.029C1765.32 140.579 1765.66 140.249 1766.08 140.249H1780.03H1780.53V139.749V122.16C1780.53 121.709 1780.87 121.379 1781.29 121.379H1821.49C1821.91 121.379 1822.24 121.709 1822.24 122.16V139.749V140.249H1822.74H1836.7C1837.12 140.249 1837.45 140.579 1837.45 141.029V165.813V166.313H1837.95H1857.98C1858.4 166.313 1858.73 166.643 1858.73 167.093V399.39V399.89H1859.23H1890.09Z" fill="#F7F7F7" stroke="#9E9E9E"/>
<path d="M2762.07 358.026V357.542L2761.59 357.526C2748.56 357.1 2738.11 346.696 2738.11 332.807C2738.11 325.813 2740.77 313.674 2745.18 303.28C2747.39 298.087 2750.02 293.362 2752.96 289.945C2755.9 286.518 2759.08 284.481 2762.38 284.481C2765.68 284.481 2768.86 286.518 2771.8 289.945C2774.73 293.362 2777.37 298.087 2779.57 303.28C2783.99 313.674 2786.65 325.813 2786.65 332.807C2786.65 345.888 2776.63 356.598 2764.05 357.476L2763.58 357.508V357.974V396.353C2763.58 396.804 2763.25 397.134 2762.83 397.134C2762.41 397.134 2762.07 396.804 2762.07 396.353V358.026Z" fill="#F7F7F7" stroke="#9E9E9E"/>
<path d="M1937.41 375.41V374.926L1936.92 374.911C1923.89 374.484 1913.44 364.081 1913.44 350.191C1913.44 343.197 1916.1 331.059 1920.52 320.665C1922.72 315.471 1925.36 310.747 1928.29 307.33C1931.23 303.903 1934.41 301.866 1937.71 301.866C1941.01 301.866 1944.19 303.903 1947.13 307.33C1950.07 310.747 1952.7 315.471 1954.91 320.665C1959.32 331.059 1961.98 343.197 1961.98 350.191C1961.98 363.273 1951.96 373.983 1939.38 374.86L1938.92 374.893V375.359V413.738C1938.92 414.188 1938.58 414.518 1938.16 414.518C1937.75 414.518 1937.41 414.188 1937.41 413.738V375.41Z" fill="#F7F7F7" stroke="#9E9E9E"/>
<path d="M2034.74 340.428L2035.15 340.456L2035.09 340.947C2043.27 342.991 2049.37 350.498 2049.37 359.459C2049.37 369.971 2040.97 378.52 2030.69 378.52C2026.03 378.52 2021.75 376.752 2018.48 373.833L2018.14 373.536L2017.81 373.835L2009.15 381.618L2008.99 381.767V381.99V412.33C2008.99 412.78 2008.65 413.11 2008.23 413.11C2007.81 413.11 2007.48 412.78 2007.48 412.33V382.195V382.066L2007.41 381.953C2007.27 381.689 2007.28 381.416 2007.41 381.194L2007.48 381.076V380.94V366.679V366.187L2006.98 366.179C1992.06 365.953 1979.95 353.637 1979.95 338.183C1979.95 322.729 1992.28 310.161 2007.4 310.161C2022.53 310.161 2034.86 322.729 2034.86 338.183C2034.86 338.749 2034.82 339.31 2034.78 339.882C2034.76 340.063 2034.75 340.244 2034.74 340.428ZM2008.99 366.602V367.138V378.559V379.68L2009.82 378.931L2016.7 372.761L2017.06 372.432L2016.74 372.061C2015.22 370.315 2014 368.244 2013.19 365.998L2013.05 365.585L2012.62 365.679C2011.59 365.902 2010.54 366.028 2009.45 366.104L2009.48 366.577H2008.99V366.602Z" fill="#F7F7F7" stroke="#9E9E9E"/>
</g>
<path d="M18.9469 415H81.3765C105.698 415 99.8437 396.2 90.3876 394.403C90.3876 394.403 92.6133 377.52 75.0499 374.838C57.4865 372.156 54.3974 389.924 54.3974 389.924C54.3974 389.924 52.6842 379.183 37.8187 379.183C22.9532 379.183 21.0242 393.612 21.0242 393.612C21.0242 393.612 3.91946 392.887 1.46436 402.918C-1.50335 415 10.3945 415 18.9469 415Z" fill="white" stroke="#9E9E9E" stroke-miterlimit="10"/>
<path d="M306.477 414.226C328.445 414.226 336.69 412.09 337.904 406.288C339.125 400.487 328.752 398.878 328.752 398.878C328.752 398.878 327.302 385.973 318.45 385.991C308.068 386.008 306.477 394.913 306.477 394.913C306.477 394.913 304.024 387.415 296.86 388.9C288.008 390.729 290.003 398.834 290.003 398.834C290.003 398.834 288.474 388.127 278.716 390.263C268.949 392.399 271.613 401.322 271.613 401.322C271.613 401.322 260.326 401.322 260.326 407.422C260.326 413.523 284.025 414.226 306.494 414.226H306.477Z" fill="white" stroke="#9E9E9E" stroke-miterlimit="10"/>
<path d="M507.684 311.27C528.612 311.27 536.828 338.583 536.828 351.972C536.828 365.361 533.162 380.01 507.684 380.01C482.207 380.01 478.54 365.361 478.54 351.972C478.54 338.583 486.75 311.27 507.684 311.27Z" fill="white" stroke="#9E9E9E" stroke-miterlimit="10"/>
<path d="M507.684 321.793V405.7" stroke="#9E9E9E" stroke-width="4.55" stroke-linecap="round" stroke-linejoin="round"/>
<path d="M515.871 334.876L508.29 342.456" stroke="#9E9E9E" stroke-width="4.55" stroke-linecap="round" stroke-linejoin="round"/>
<path d="M507.684 349.43L496.325 338.077" stroke="#9E9E9E" stroke-width="4.55" stroke-linecap="round" stroke-linejoin="round"/>
<path d="M507.684 357.205L521.044 347.647" stroke="#9E9E9E" stroke-width="4.55" stroke-linecap="round" stroke-linejoin="round"/>
<path d="M507.684 368.81L492.977 356.893" stroke="#9E9E9E" stroke-width="4.55" stroke-linecap="round" stroke-linejoin="round"/>
<path d="M507.684 371.359L520.755 362.325" stroke="#9E9E9E" stroke-width="4.55" stroke-linecap="round" stroke-linejoin="round"/>
<path d="M539.457 414.121C559.346 414.121 566.811 412.658 567.909 408.684C569.016 404.71 559.624 403.608 559.624 403.608C559.624 403.608 558.311 394.769 550.297 394.781C540.898 394.793 539.457 400.893 539.457 400.893C539.457 400.893 537.237 395.757 530.75 396.774C522.736 398.027 524.543 403.578 524.543 403.578C524.543 403.578 523.158 396.244 514.324 397.707C505.482 399.171 507.893 405.282 507.893 405.282C507.893 405.282 497.674 405.282 497.674 409.461C497.674 413.639 519.131 414.121 539.473 414.121H539.457Z" fill="white" stroke="#9E9E9E" stroke-miterlimit="10"/>
<path d="M159.25 264.653C190.51 264.653 202.782 305.45 202.782 325.449C202.782 345.448 197.305 367.328 159.25 367.328C121.195 367.328 115.719 345.448 115.719 325.449C115.719 305.45 127.982 264.653 159.25 264.653Z" fill="white" stroke="#9E9E9E" stroke-miterlimit="10"/>
<path d="M159.25 280.371V405.7" stroke="#9E9E9E" stroke-width="4.55" stroke-linecap="round" stroke-linejoin="round"/>
<path d="M171.478 299.912L160.156 311.235" stroke="#9E9E9E" stroke-width="4.55" stroke-linecap="round" stroke-linejoin="round"/>
<path d="M159.25 321.652L142.284 304.694" stroke="#9E9E9E" stroke-width="4.55" stroke-linecap="round" stroke-linejoin="round"/>
<path d="M159.25 333.264L179.205 318.988" stroke="#9E9E9E" stroke-width="4.55" stroke-linecap="round" stroke-linejoin="round"/>
<path d="M159.25 350.6L137.282 332.798" stroke="#9E9E9E" stroke-width="4.55" stroke-linecap="round" stroke-linejoin="round"/>
<path d="M159.25 354.406L178.774 340.912" stroke="#9E9E9E" stroke-width="4.55" stroke-linecap="round" stroke-linejoin="round"/>
<path d="M212.759 361.376H209.594V390.711H212.759V361.376Z" fill="white" stroke="#9E9E9E" stroke-miterlimit="10"/>
<path d="M281.362 361.376H278.197V390.711H281.362V361.376Z" fill="white" stroke="#9E9E9E" stroke-miterlimit="10"/>
<path d="M289.405 375.09H201.551V382.632H289.405V375.09Z" fill="white" stroke="#9E9E9E" stroke-miterlimit="10"/>
<path d="M289.405 363.108H201.551V370.651H289.405V363.108Z" fill="white" stroke="#9E9E9E" stroke-miterlimit="10"/>
<path d="M289.405 386.939H201.551V390.711H289.405V386.939Z" fill="white" stroke="#9E9E9E" stroke-miterlimit="10"/>
<path d="M212.759 366.879C212.759 367.749 212.047 368.462 211.177 368.462C210.307 368.462 209.594 367.749 209.594 366.879C209.594 366.009 210.298 365.297 211.177 365.297C212.056 365.297 212.759 366.009 212.759 366.879Z" fill="white" stroke="#9E9E9E" stroke-miterlimit="10"/>
<path d="M212.759 378.852C212.759 379.723 212.047 380.435 211.177 380.435C210.307 380.435 209.594 379.723 209.594 378.852C209.594 377.982 210.298 377.27 211.177 377.27C212.056 377.27 212.759 377.982 212.759 378.852Z" fill="white" stroke="#9E9E9E" stroke-miterlimit="10"/>
<path d="M279.779 368.462C280.653 368.462 281.362 367.753 281.362 366.879C281.362 366.005 280.653 365.297 279.779 365.297C278.905 365.297 278.197 366.005 278.197 366.879C278.197 367.753 278.905 368.462 279.779 368.462Z" fill="white" stroke="#9E9E9E" stroke-miterlimit="10"/>
<path d="M281.362 378.852C281.362 379.723 280.65 380.435 279.779 380.435C278.909 380.435 278.197 379.723 278.197 378.852C278.197 377.982 278.909 377.27 279.779 377.27C280.65 377.27 281.362 377.982 281.362 378.852Z" fill="white" stroke="#9E9E9E" stroke-miterlimit="10"/>
<path d="M207.168 407.703L212.759 390.711H208.803L203.221 407.703H207.168Z" fill="white" stroke="#9E9E9E" stroke-miterlimit="10"/>
<path d="M283.788 407.703L278.197 390.711H282.153L287.735 407.703H283.788Z" fill="white" stroke="#9E9E9E" stroke-miterlimit="10"/>
<path d="M187.829 414.121C207.718 414.121 215.183 412.658 216.281 408.684C217.388 404.71 207.996 403.608 207.996 403.608C207.996 403.608 206.683 394.769 198.669 394.781C189.27 394.793 187.829 400.893 187.829 400.893C187.829 400.893 185.609 395.757 179.122 396.774C171.108 398.027 172.915 403.578 172.915 403.578C172.915 403.578 171.53 396.244 162.696 397.707C153.854 399.171 156.265 405.282 156.265 405.282C156.265 405.282 146.046 405.282 146.046 409.461C146.046 413.639 167.503 414.121 187.845 414.121H187.829Z" fill="white" stroke="#9E9E9E" stroke-miterlimit="10"/>
<path d="M1443.77 1H1440.83V24.1199H1443.77V1Z" fill="white" stroke="#9E9E9E" stroke-miterlimit="10"/>
<path d="M1443.8 20.0537H1440.83C1439.53 20.0537 1438.48 21.1269 1438.48 22.4507V33.4948C1438.48 34.8186 1439.53 35.8918 1440.83 35.8918H1443.8C1445.1 35.8918 1446.15 34.8186 1446.15 33.4948V22.4507C1446.15 21.1269 1445.1 20.0537 1443.8 20.0537Z" fill="white" stroke="#9E9E9E" stroke-miterlimit="10"/>
<path d="M1444.28 30.3398H1440.32C1438.24 30.3398 1436.55 32.065 1436.55 34.1932V53.7935C1436.55 55.9217 1438.24 57.6468 1440.32 57.6468H1444.28C1446.37 57.6468 1448.06 55.9217 1448.06 53.7935V34.1932C1448.06 32.065 1446.37 30.3398 1444.28 30.3398Z" fill="white" stroke="#9E9E9E" stroke-width="1.09" stroke-miterlimit="10"/>
<path fill-rule="evenodd" clip-rule="evenodd" d="M1451.51 55.736L1453.62 63.4123C1453.62 64.5349 1452.73 65.4451 1451.63 65.4451H1433.01C1431.91 65.4451 1431.02 64.5349 1431.02 63.4123L1433.13 55.736C1433.13 54.6134 1434.02 53.7031 1435.12 53.7031H1449.51C1450.61 53.7031 1451.51 54.6134 1451.51 55.736Z" fill="white" stroke="#9E9E9E" stroke-miterlimit="10"/>
<path fill-rule="evenodd" clip-rule="evenodd" d="M1466.47 106.587H1418.14L1414.81 78.9463H1469.8L1466.47 106.587Z" fill="white" stroke="#9E9E9E" stroke-miterlimit="10"/>
<path fill-rule="evenodd" clip-rule="evenodd" d="M1456.5 65.9598L1459.77 69.8131C1459.77 70.3896 1458.41 70.8447 1456.68 70.8447H1427.92C1426.23 70.8447 1424.83 70.3896 1424.83 69.8131L1428.1 65.9598C1428.1 65.3833 1429.47 64.9282 1431.19 64.9282H1453.44C1455.14 64.9282 1456.53 65.3833 1456.53 65.9598H1456.5Z" fill="white" stroke="#9E9E9E" stroke-miterlimit="10"/>
<path fill-rule="evenodd" clip-rule="evenodd" d="M1470.36 79.8257H1414.24L1412.61 70.1772H1472L1470.36 79.8257Z" fill="white" stroke="#9E9E9E" stroke-miterlimit="10"/>
<path fill-rule="evenodd" clip-rule="evenodd" d="M1466.47 138.718H1418.14L1414.81 111.077H1469.8L1466.47 138.718Z" fill="white" stroke="#9E9E9E" stroke-miterlimit="10"/>
<path fill-rule="evenodd" clip-rule="evenodd" d="M1470.36 111.928H1414.24L1412.61 102.31H1472L1470.36 111.928Z" fill="white" stroke="#9E9E9E" stroke-miterlimit="10"/>
<path fill-rule="evenodd" clip-rule="evenodd" d="M1466.47 170.85H1418.14L1414.81 143.209H1469.8L1466.47 170.85Z" fill="white" stroke="#9E9E9E" stroke-miterlimit="10"/>
<path fill-rule="evenodd" clip-rule="evenodd" d="M1470.36 144.059H1414.24L1412.61 134.44H1472L1470.36 144.059Z" fill="white" stroke="#9E9E9E" stroke-miterlimit="10"/>
<path fill-rule="evenodd" clip-rule="evenodd" d="M1466.47 202.95H1418.14L1414.81 175.34H1469.8L1466.47 202.95Z" fill="white" stroke="#9E9E9E" stroke-miterlimit="10"/>
<path fill-rule="evenodd" clip-rule="evenodd" d="M1470.36 176.189H1414.24L1412.61 166.541H1472L1470.36 176.189Z" fill="white" stroke="#9E9E9E" stroke-miterlimit="10"/>
<path fill-rule="evenodd" clip-rule="evenodd" d="M1466.47 235.081H1418.14L1414.81 207.471H1469.8L1466.47 235.081Z" fill="white" stroke="#9E9E9E" stroke-miterlimit="10"/>
<path fill-rule="evenodd" clip-rule="evenodd" d="M1470.36 208.32H1414.24L1412.61 198.672H1472L1470.36 208.32Z" fill="white" stroke="#9E9E9E" stroke-miterlimit="10"/>
<path fill-rule="evenodd" clip-rule="evenodd" d="M1466.47 267.213H1418.14L1414.81 239.603H1469.8L1466.47 267.213Z" fill="white" stroke="#9E9E9E" stroke-miterlimit="10"/>
<path fill-rule="evenodd" clip-rule="evenodd" d="M1470.36 240.453H1414.24L1412.61 230.804H1472L1470.36 240.453Z" fill="white" stroke="#9E9E9E" stroke-miterlimit="10"/>
<path fill-rule="evenodd" clip-rule="evenodd" d="M1466.47 299.345H1418.14L1414.81 271.704H1469.8L1466.47 299.345Z" fill="white" stroke="#9E9E9E" stroke-miterlimit="10"/>
<path fill-rule="evenodd" clip-rule="evenodd" d="M1470.36 272.584H1414.24L1412.61 262.935H1472L1470.36 272.584Z" fill="white" stroke="#9E9E9E" stroke-miterlimit="10"/>
<path fill-rule="evenodd" clip-rule="evenodd" d="M1466.47 331.476H1418.14L1414.81 303.835H1469.8L1466.47 331.476Z" fill="white" stroke="#9E9E9E" stroke-miterlimit="10"/>
<path fill-rule="evenodd" clip-rule="evenodd" d="M1470.36 304.684H1414.24L1412.61 295.066H1472L1470.36 304.684Z" fill="white" stroke="#9E9E9E" stroke-miterlimit="10"/>
<path fill-rule="evenodd" clip-rule="evenodd" d="M1418.14 329.897H1466.47L1478.24 400.805H1406.36L1418.14 329.897Z" fill="white" stroke="#9E9E9E" stroke-miterlimit="10"/>
<path fill-rule="evenodd" clip-rule="evenodd" d="M1405.83 399.015H1478.78L1480.44 407.268H1404.16L1405.83 399.015Z" fill="white" stroke="#9E9E9E" stroke-miterlimit="10"/>
<path d="M1442.29 355.506C1446.92 355.506 1450.67 351.675 1450.67 346.95C1450.67 342.224 1446.92 338.394 1442.29 338.394C1437.66 338.394 1433.9 342.224 1433.9 346.95C1433.9 351.675 1437.66 355.506 1442.29 355.506Z" fill="white" stroke="#9E9E9E" stroke-miterlimit="10"/>
<path d="M1449.57 365.822H1435.03V398.712H1449.57V365.822Z" fill="white" stroke="#9E9E9E" stroke-miterlimit="10"/>
<path d="M1550.68 317.27C1571.61 317.27 1579.83 344.583 1579.83 357.972C1579.83 371.361 1576.16 386.01 1550.68 386.01C1525.21 386.01 1521.54 371.361 1521.54 357.972C1521.54 344.583 1529.75 317.27 1550.68 317.27Z" fill="white" stroke="#9E9E9E" stroke-miterlimit="10"/>
<path d="M1550.68 327.793V411.7" stroke="#9E9E9E" stroke-width="4.55" stroke-linecap="round" stroke-linejoin="round"/>
<path d="M1558.87 340.876L1551.29 348.456" stroke="#9E9E9E" stroke-width="4.55" stroke-linecap="round" stroke-linejoin="round"/>
<path d="M1550.68 355.43L1539.33 344.077" stroke="#9E9E9E" stroke-width="4.55" stroke-linecap="round" stroke-linejoin="round"/>
<path d="M1550.68 363.205L1564.04 353.647" stroke="#9E9E9E" stroke-width="4.55" stroke-linecap="round" stroke-linejoin="round"/>
<path d="M1550.68 374.81L1535.98 362.893" stroke="#9E9E9E" stroke-width="4.55" stroke-linecap="round" stroke-linejoin="round"/>
<path d="M1550.68 377.359L1563.76 368.325" stroke="#9E9E9E" stroke-width="4.55" stroke-linecap="round" stroke-linejoin="round"/>
<path d="M846.021 380.384C846.064 379.85 846.119 379.31 846.212 378.781C846.261 378.486 846.31 378.152 846.457 377.89C846.725 377.411 847.576 377.294 848.045 377.178C848.084 377.166 848.122 377.161 848.165 377.15C847.854 371.671 847.609 366.148 848.335 360.692C848.662 358.237 849.197 355.804 849.972 353.454C849.83 353.293 849.874 352.992 850.119 352.992C850.136 352.936 850.152 352.886 850.168 352.831C850.965 350.576 852.089 348.471 853.961 346.968C855.658 345.604 857.71 344.802 859.768 344.19C862.289 343.438 864.876 342.865 867.441 342.291C872.947 341.055 878.503 340.036 884.081 339.201C886.258 338.878 888.436 338.589 890.618 338.321C890.618 338.316 890.618 338.31 890.618 338.305C892.201 334.229 893.587 330.076 895.072 325.967C897.184 320.143 899.35 314.331 901.779 308.629C902.843 306.13 903.956 303.641 905.206 301.23C906.09 299.526 907.04 297.778 908.3 296.325C908.682 295.885 909.119 295.445 909.648 295.184C910.511 294.755 911.586 294.616 912.514 294.41C915.182 293.814 917.895 293.402 920.607 293.079C927.232 292.283 933.917 291.994 940.586 291.882C947.501 291.771 954.421 291.893 961.33 292.205C966.853 292.456 972.387 292.801 977.882 293.452C979.607 293.658 981.342 293.881 983.045 294.232C984.387 294.51 985.67 294.978 986.931 295.512C992.339 297.812 997.332 301.358 1001.13 305.924C1003.77 309.097 1005.73 312.733 1007.05 316.663C1008.56 321.145 1009.17 325.839 1009.71 330.527C1009.98 332.915 1010.25 335.309 1010.6 337.692C1010.92 337.698 1011.24 337.709 1011.56 337.715C1011.62 337.715 1011.66 337.737 1011.71 337.765C1011.71 337.765 1011.72 337.765 1011.72 337.765C1015.6 338.828 1019.59 339.479 1023.53 340.198C1028.17 341.044 1032.83 341.862 1037.43 342.904C1039.29 343.327 1041.17 343.783 1042.99 344.373C1044.09 344.73 1045.16 345.158 1046.23 345.582C1047.64 346.138 1049.05 346.706 1050.44 347.319C1052.5 348.226 1054.61 349.2 1056.39 350.62C1056.98 351.088 1057.54 351.628 1057.94 352.274C1058.61 353.365 1058.86 354.757 1059.09 356.004C1060.13 361.766 1060.5 367.629 1061.01 373.458C1061.09 374.299 1061.17 375.134 1061.24 375.975C1061.24 376.003 1061.24 376.031 1061.23 376.053C1062.81 376.12 1064.34 376.465 1065.44 377.773C1065.9 378.313 1066.28 378.898 1066.49 379.577C1066.69 380.195 1066.78 380.852 1066.83 381.498C1066.94 382.934 1066.85 384.393 1066.66 385.818C1066.59 386.386 1066.5 386.949 1066.37 387.505C1066.3 387.806 1066.23 388.168 1066.05 388.424C1065.91 388.63 1065.66 388.669 1065.43 388.714C1064.99 388.797 1064.55 388.853 1064.1 388.897C1061.09 389.231 1058.01 389.354 1054.98 389.187C1054.61 389.165 1054.25 389.142 1053.88 389.103C1053.55 389.07 1053.11 389.081 1052.81 388.925C1052.38 388.702 1052.37 388.09 1052.3 387.661C1052.28 387.561 1052.27 387.455 1052.25 387.35C1045.77 387.361 1039.28 387.372 1032.79 387.377C1031.01 387.377 1029.22 387.377 1027.44 387.383C1027.29 399.314 1017.74 408.974 1006.01 408.974C994.282 408.974 984.758 399.342 984.584 387.433C981.298 387.433 978.019 387.439 974.733 387.444C970.149 387.444 965.565 387.45 960.986 387.455C955.987 387.455 950.988 387.461 945.989 387.466C941.329 387.466 936.662 387.472 932.002 387.478C928.438 387.478 924.88 387.478 921.316 387.489C920.989 387.489 920.667 387.489 920.339 387.489C920.323 387.489 920.312 387.483 920.296 387.478C920.105 399.37 910.571 408.98 898.87 408.98C887.169 408.98 877.663 399.392 877.444 387.528C877.428 387.528 877.417 387.539 877.401 387.539C873.548 387.539 869.695 387.556 865.842 387.567C864.303 387.567 862.764 387.572 861.22 387.572C861.214 387.572 861.209 387.572 861.203 387.572C861.17 388.285 861.138 389.07 860.838 389.716C860.816 389.766 860.783 389.794 860.75 389.816C860.728 389.933 860.647 390.033 860.499 390.033C857.056 390.128 853.606 390.239 850.163 390.139C849.366 390.117 848.569 390.083 847.773 390.011C847.401 389.977 847.003 389.933 846.708 389.671C846.425 389.415 846.337 389.042 846.261 388.675C845.993 387.344 845.917 385.969 845.89 384.616C845.857 383.202 845.89 381.782 846.01 380.373L846.021 380.384Z" fill="white"/>
<path d="M1009.93 336.645C1009.27 332.224 1008.98 327.743 1008.2 323.339C1007.42 318.935 1006.09 314.703 1003.9 310.878C1000.58 305.06 995.439 300.5 989.615 297.416C987.946 296.531 986.205 295.74 984.409 295.167C983.176 294.777 981.882 294.571 980.605 294.382C975.803 293.658 970.935 293.313 966.089 293.023C959.518 292.628 952.936 292.427 946.355 292.416C939.588 292.399 932.815 292.567 926.064 293.107C923.095 293.346 920.127 293.658 917.18 294.114C915.881 294.315 914.587 294.543 913.305 294.816C912.235 295.044 911.084 295.233 910.052 295.623C908.862 296.069 908 297.533 907.345 298.552C906.096 300.5 905.064 302.599 904.082 304.698C901.522 310.166 899.35 315.817 897.233 321.473C895.465 326.211 893.789 330.983 892.054 335.732C891.814 336.389 891.573 337.046 891.317 337.697C891.191 338.026 890.662 337.881 890.793 337.547C892.381 333.449 893.789 329.274 895.295 325.142C897.413 319.347 899.59 313.567 902.035 307.911C903.099 305.455 904.207 303.011 905.479 300.662C906.341 299.058 907.274 297.377 908.54 296.057C909.807 294.738 911.526 294.621 913.152 294.276C915.87 293.702 918.62 293.307 921.376 292.995C928.002 292.244 934.66 291.971 941.312 291.876C948.172 291.781 955.037 291.91 961.892 292.232C967.317 292.489 972.747 292.834 978.144 293.485C979.836 293.691 981.533 293.908 983.198 294.265C984.54 294.554 985.828 295.039 987.089 295.579C992.497 297.9 997.49 301.486 1001.27 306.085C1003.86 309.241 1005.76 312.838 1007.09 316.719C1008.5 320.85 1009.1 325.159 1009.58 329.485C1009.85 331.824 1010.11 334.162 1010.46 336.489C1010.51 336.84 1009.98 336.99 1009.93 336.64L1009.93 336.645Z" fill="#6AC4C5" stroke="#6AC4C5" stroke-width="0.5"/>
<path d="M989.583 337.586C978.444 337.151 967.306 336.645 956.162 336.316C945.056 335.993 933.939 335.843 922.828 336.127C911.717 336.411 900.835 337.113 889.914 338.493C884.348 339.195 878.803 340.074 873.297 341.16C870.59 341.695 867.894 342.274 865.203 342.908C862.835 343.471 860.423 343.994 858.136 344.846C855.849 345.698 853.792 346.95 852.406 348.971C850.932 351.126 850.185 353.799 849.595 356.321C848.351 361.666 848.28 367.189 848.504 372.65C848.558 373.998 848.635 375.345 848.711 376.692C848.733 377.049 848.187 377.049 848.165 376.692C847.854 371.208 847.609 365.68 848.335 360.218C848.689 357.546 849.279 354.895 850.174 352.357C850.971 350.102 852.095 347.997 853.967 346.494C855.664 345.13 857.716 344.328 859.773 343.716C862.295 342.964 864.881 342.391 867.446 341.817C872.953 340.581 878.509 339.562 884.086 338.727C895.126 337.079 906.265 336.166 917.409 335.737C928.553 335.309 940.068 335.353 951.392 335.626C962.716 335.899 974.035 336.394 985.359 336.851C986.767 336.907 988.175 336.962 989.583 337.018C989.932 337.029 989.932 337.586 989.583 337.575V337.586Z" fill="#6AC4C5" stroke="#6AC4C5" stroke-width="0.5"/>
<path d="M1011.57 338.281C1009.22 338.231 1006.87 338.17 1004.53 338.103C1004.18 338.092 1004.18 337.535 1004.53 337.547C1006.88 337.613 1009.22 337.675 1011.57 337.725C1011.91 337.73 1011.91 338.287 1011.57 338.281Z" fill="#6AC4C5" stroke="#6AC4C5" stroke-width="0.5"/>
<path d="M1012.77 338.02C1016.65 339.083 1020.64 339.734 1024.58 340.453C1029.22 341.299 1033.87 342.117 1038.48 343.158C1040.34 343.582 1042.21 344.038 1044.04 344.628C1045.13 344.985 1046.2 345.413 1047.28 345.836C1048.69 346.393 1050.1 346.961 1051.49 347.574C1053.55 348.481 1055.66 349.455 1057.44 350.875C1058.03 351.343 1058.59 351.883 1058.98 352.529C1059.66 353.62 1059.91 355.012 1060.14 356.259C1061.17 362.021 1061.54 367.884 1062.06 373.713C1062.14 374.554 1062.22 375.389 1062.29 376.23C1062.32 376.586 1061.78 376.586 1061.75 376.23C1061.19 370.351 1060.84 364.438 1059.96 358.597C1059.73 357.077 1059.52 355.53 1059.04 354.065C1058.77 353.219 1058.41 352.54 1057.78 351.916C1056.34 350.485 1054.41 349.55 1052.61 348.698C1050.04 347.484 1047.38 346.404 1044.71 345.452C1043.01 344.845 1041.26 344.394 1039.51 343.977C1035.01 342.908 1030.46 342.101 1025.91 341.271C1021.83 340.525 1017.73 339.846 1013.69 338.844C1013.33 338.755 1012.98 338.66 1012.62 338.565C1012.26 338.471 1012.42 337.936 1012.77 338.031L1012.77 338.02Z" fill="#6AC4C5" stroke="#6AC4C5" stroke-width="0.5"/>
<path d="M1052.78 376.18C1055.22 376.136 1057.66 376.091 1060.11 376.052C1062.07 376.024 1064.08 376.169 1065.45 377.784C1065.9 378.324 1066.29 378.908 1066.5 379.588C1066.7 380.206 1066.78 380.863 1066.83 381.508C1066.95 382.945 1066.85 384.404 1066.67 385.829C1066.59 386.397 1066.5 386.959 1066.37 387.516C1066.3 387.816 1066.23 388.178 1066.05 388.434C1065.91 388.64 1065.66 388.679 1065.43 388.724C1064.99 388.808 1064.55 388.863 1064.1 388.908C1061.09 389.242 1058.01 389.364 1054.98 389.197C1054.61 389.175 1054.25 389.153 1053.88 389.114C1053.55 389.08 1053.11 389.091 1052.81 388.936C1052.38 388.713 1052.37 388.1 1052.3 387.672C1052.2 387.076 1052.1 386.475 1052.02 385.873C1051.7 383.49 1051.58 381.08 1051.66 378.675C1051.68 378.068 1051.72 377.461 1051.76 376.859C1051.79 376.503 1052.33 376.503 1052.3 376.859C1052.14 379.126 1052.14 381.397 1052.33 383.658C1052.42 384.799 1052.56 385.935 1052.74 387.059C1052.78 387.327 1052.83 387.588 1052.88 387.855C1052.9 387.978 1052.91 388.117 1052.95 388.234C1053.02 388.457 1053.12 388.468 1053.31 388.496C1053.63 388.54 1053.95 388.568 1054.26 388.596C1057.19 388.83 1060.16 388.707 1063.08 388.451C1063.9 388.379 1064.75 388.329 1065.55 388.123C1065.61 388.106 1065.65 388.112 1065.6 388.106C1065.6 388.106 1065.58 388.139 1065.59 388.123C1065.62 388.011 1065.67 387.956 1065.71 387.822C1065.84 387.404 1065.92 386.97 1066 386.542C1066.22 385.255 1066.32 383.947 1066.31 382.639C1066.3 381.486 1066.26 380.139 1065.7 379.103C1065.27 378.329 1064.64 377.606 1063.86 377.188C1063.02 376.731 1062.03 376.626 1061.09 376.603C1058.88 376.548 1056.66 376.665 1054.46 376.704L1052.76 376.731C1052.41 376.737 1052.41 376.18 1052.76 376.175L1052.78 376.18Z" fill="#6AC4C5" stroke="#6AC4C5" stroke-width="0.5"/>
<path d="M877.406 387.549C873.553 387.549 869.7 387.566 865.847 387.577C864.308 387.577 862.769 387.582 861.225 387.582C860.876 387.582 860.876 387.026 861.225 387.026C865.089 387.026 868.953 387.009 872.811 386.998C874.339 386.998 875.873 386.992 877.401 386.992C877.75 386.992 877.75 387.549 877.401 387.549H877.406Z" fill="#6AC4C5" stroke="#6AC4C5" stroke-width="0.5"/>
<path d="M984.857 387.455C981.484 387.455 978.111 387.46 974.739 387.466C970.154 387.466 965.57 387.471 960.992 387.477C955.993 387.477 950.994 387.483 945.995 387.488C941.334 387.488 936.668 387.494 932.007 387.499C928.444 387.499 924.885 387.499 921.322 387.51C920.994 387.51 920.672 387.51 920.345 387.51C919.996 387.51 919.996 386.954 920.345 386.954C923.718 386.954 927.09 386.948 930.463 386.942C935.047 386.942 939.631 386.937 944.21 386.931C949.209 386.931 954.208 386.926 959.207 386.92C963.868 386.92 968.534 386.915 973.194 386.909C976.758 386.909 980.316 386.909 983.88 386.898C984.207 386.898 984.529 386.898 984.857 386.898C985.206 386.898 985.206 387.455 984.857 387.455Z" fill="#6AC4C5" stroke="#6AC4C5" stroke-width="0.5"/>
<path d="M1052.62 387.365C1046.68 387.371 1040.73 387.382 1034.79 387.393C1033.01 387.393 1031.22 387.393 1029.44 387.399C1029.09 387.399 1029.09 386.842 1029.44 386.842C1035.38 386.836 1041.31 386.825 1047.25 386.814C1049.04 386.814 1050.83 386.814 1052.62 386.809C1052.97 386.809 1052.97 387.365 1052.62 387.365Z" fill="#6AC4C5" stroke="#6AC4C5" stroke-width="0.5"/>
<path d="M860.193 376.281C860.444 376.804 860.521 377.433 860.614 378.001C860.772 378.981 860.881 379.972 860.974 380.957C861.176 383.112 861.312 385.294 861.214 387.455C861.181 388.195 861.159 389.041 860.843 389.726C860.69 390.049 860.221 389.765 860.374 389.448C860.603 388.958 860.63 388.217 860.663 387.644C860.717 386.653 860.706 385.662 860.674 384.671C860.603 382.6 860.45 380.518 860.144 378.469C860.084 378.068 860.019 377.672 859.931 377.277C859.899 377.127 859.861 376.977 859.822 376.826C859.79 376.726 859.746 376.598 859.73 376.565C859.577 376.242 860.046 375.963 860.199 376.286L860.193 376.281Z" fill="#6AC4C5" stroke="#6AC4C5" stroke-width="0.5"/>
<path d="M859.784 376.487C857.694 376.397 855.571 376.631 853.497 376.865C851.532 377.088 849.497 377.305 847.592 377.878C847.363 377.945 847.161 378.012 846.965 378.129C846.899 378.168 846.976 378.107 846.932 378.157C846.932 378.157 846.943 378.129 846.916 378.196C846.899 378.224 846.85 378.391 846.828 378.485C846.621 379.332 846.572 380.228 846.517 381.091C846.37 383.502 846.321 386.029 846.774 388.412C846.85 388.819 846.899 389.264 847.347 389.409C847.794 389.554 848.34 389.526 848.804 389.559C849.863 389.637 850.927 389.698 851.991 389.737C854.163 389.821 856.335 389.838 858.507 389.776C858.856 389.765 858.856 390.322 858.507 390.333C856.471 390.389 854.43 390.383 852.395 390.311C851.401 390.277 850.403 390.227 849.41 390.16C848.913 390.127 848.416 390.094 847.92 390.049C847.527 390.016 847.107 389.993 846.779 389.743C846.299 389.375 846.25 388.624 846.162 388.062C846.075 387.466 846.015 386.864 845.971 386.263C845.879 384.91 845.873 383.552 845.917 382.199C845.955 381.096 846.015 379.989 846.19 378.903C846.266 378.418 846.326 377.845 846.795 377.6C847.423 377.272 848.182 377.155 848.864 377.015C849.966 376.793 851.079 376.631 852.193 376.481C854.687 376.152 857.263 375.83 859.779 375.941C860.128 375.958 860.128 376.514 859.779 376.498L859.784 376.487Z" fill="#6AC4C5" stroke="#6AC4C5" stroke-width="0.5"/>
<path d="M850.146 352.991C851.44 353.13 852.749 353.342 853.977 353.776C854.501 353.96 855.096 354.177 855.467 354.617C855.778 354.99 855.849 355.419 855.893 355.886C856.062 357.724 856.226 359.561 856.384 361.398C856.531 363.108 856.69 364.822 856.793 366.537C856.826 367.122 856.968 368.107 856.384 368.441C855.871 368.731 855.227 368.864 854.67 369.02C853.579 369.326 852.471 369.594 851.358 369.822C850.332 370.028 849.284 370.223 848.231 370.267C847.881 370.284 847.881 369.727 848.231 369.711C850.048 369.633 851.882 369.176 853.639 368.725C854.354 368.541 855.069 368.352 855.767 368.102C855.849 368.074 855.975 368.029 856.029 368.001C856.073 367.985 856.204 367.89 856.144 367.951C856.057 368.029 856.155 367.935 856.166 367.896C856.199 367.812 856.226 367.734 856.242 367.651C856.28 367.472 856.275 367.283 856.275 367.105C856.275 367.01 856.275 366.91 856.264 366.816C856.106 363.486 855.735 360.151 855.435 356.833C855.402 356.465 855.374 356.092 855.331 355.725C855.26 355.029 854.812 354.712 854.212 354.461C852.93 353.927 851.516 353.698 850.146 353.554C849.802 353.515 849.797 352.958 850.146 352.997V352.991Z" fill="#6AC4C5" stroke="#6AC4C5" stroke-width="0.5"/>
<path d="M1059.57 357.601C1057.23 356.504 1054.88 355.385 1052.4 354.65C1051.14 354.277 1049.82 353.977 1048.51 353.86C1048.24 353.837 1047.93 353.81 1047.71 353.999C1047.5 354.188 1047.44 354.517 1047.38 354.795C1047.25 355.491 1047.15 356.192 1047.05 356.894C1046.65 359.817 1046.46 362.773 1046.48 365.724C1046.48 366.403 1046.47 367.094 1046.54 367.773C1046.61 368.452 1046.89 368.965 1047.52 369.248C1048.15 369.532 1048.8 369.655 1049.43 369.816C1050.11 369.995 1050.79 370.156 1051.48 370.301C1054.62 370.969 1057.83 371.297 1061.04 371.297C1061.39 371.297 1061.39 371.854 1061.04 371.854C1058 371.854 1054.96 371.559 1051.97 370.969C1050.51 370.679 1049.01 370.373 1047.61 369.878C1047.03 369.672 1046.5 369.354 1046.23 368.77C1045.96 368.185 1045.96 367.556 1045.95 366.949C1045.86 363.792 1046.02 360.63 1046.43 357.501C1046.53 356.738 1046.63 355.975 1046.76 355.218C1046.85 354.661 1046.91 353.988 1047.35 353.587C1047.8 353.186 1048.49 353.303 1049.05 353.375C1049.74 353.464 1050.43 353.587 1051.11 353.743C1054.17 354.444 1057.01 355.803 1059.85 357.128C1060.16 357.278 1059.89 357.757 1059.57 357.607L1059.57 357.601Z" fill="#6AC4C5" stroke="#6AC4C5" stroke-width="0.5"/>
<path d="M1052.65 354.572C1054.07 359.744 1054.98 365.056 1055.36 370.412C1055.38 370.768 1054.84 370.768 1054.81 370.412C1054.43 365.106 1053.53 359.845 1052.12 354.722C1052.03 354.377 1052.55 354.227 1052.64 354.572H1052.65Z" fill="#6AC4C5" stroke="#6AC4C5" stroke-width="0.5"/>
<path d="M1012.04 340.559C1013.82 341.244 1015.65 341.784 1017.48 342.302C1019.76 342.948 1022.07 343.538 1024.37 344.128C1029.16 345.353 1033.97 346.528 1038.68 348.036C1040.75 348.693 1042.81 349.406 1044.76 350.386C1045.07 350.547 1044.8 351.026 1044.48 350.865C1042.79 350.007 1040.98 349.373 1039.18 348.777C1036.94 348.042 1034.67 347.402 1032.4 346.784C1027.64 345.498 1022.85 344.362 1018.1 343.048C1016.01 342.469 1013.92 341.873 1011.89 341.094C1011.57 340.966 1011.71 340.431 1012.04 340.559Z" fill="#6AC4C5" stroke="#6AC4C5" stroke-width="0.5"/>
<path d="M1005.09 337.029C1005.17 335.982 1005.25 334.936 1005.33 333.889C1005.36 333.533 1005.91 333.533 1005.88 333.889C1005.8 334.936 1005.71 335.982 1005.63 337.029C1005.61 337.385 1005.06 337.385 1005.09 337.029Z" fill="#6AC4C5" stroke="#6AC4C5" stroke-width="0.5"/>
<path d="M913.501 297.538C913.343 297.583 913.152 297.694 912.988 297.822C912.775 297.989 912.53 298.245 912.328 298.473C911.727 299.153 911.22 299.915 910.74 300.684C909.293 302.983 908.066 305.433 906.898 307.894C905.43 310.989 904.087 314.146 902.837 317.336C901.577 320.554 900.409 323.817 899.394 327.124C898.542 329.886 897.767 332.697 897.314 335.559C897.271 335.837 897.233 336.116 897.194 336.394C897.151 336.745 896.605 336.751 896.649 336.394C897.003 333.588 897.724 330.832 898.521 328.126C899.508 324.786 900.654 321.495 901.904 318.249C903.154 314.981 904.507 311.752 905.975 308.579C907.181 305.967 908.458 303.373 909.948 300.918C910.472 300.055 911.023 299.208 911.651 298.423C912.039 297.944 912.481 297.416 913.032 297.126C913.135 297.07 913.245 297.026 913.354 296.992C913.692 296.903 913.839 297.438 913.501 297.527V297.538Z" fill="#6AC4C5" stroke="#6AC4C5" stroke-width="0.5"/>
<path d="M952.145 296.208C947.517 296.013 942.884 295.74 938.251 295.651C933.928 295.567 929.611 295.746 925.295 296.029C922.735 296.196 920.181 296.397 917.627 296.603C917.278 296.631 917.278 296.074 917.627 296.046C922.069 295.695 926.517 295.345 930.976 295.178C935.435 295.011 939.784 295.133 944.194 295.317C946.846 295.428 949.493 295.54 952.145 295.651C952.494 295.668 952.494 296.224 952.145 296.208Z" fill="#6AC4C5" stroke="#6AC4C5" stroke-width="0.5"/>
<path d="M1004.13 329.88C1003.72 325.559 1003.07 321.306 1001.68 317.191C1000.96 315.065 1000.16 312.91 999.089 310.945C998.074 309.085 996.797 307.387 995.329 305.878C992.404 302.866 988.819 300.706 984.9 299.342C983.852 298.974 982.805 298.596 981.729 298.317C980.152 297.911 978.537 297.655 976.932 297.387C974.318 296.948 971.693 296.731 969.046 296.658C966.4 296.586 963.775 296.625 961.139 296.569C960.473 296.558 959.813 296.536 959.147 296.508C958.798 296.491 958.798 295.934 959.147 295.951C964.517 296.179 969.92 295.834 975.262 296.563C978.319 296.981 981.364 297.521 984.289 298.54C986.09 299.169 987.858 299.837 989.534 300.767C991.389 301.791 993.13 303.044 994.696 304.492C996.263 305.939 997.621 307.537 998.757 309.313C999.974 311.217 1000.82 313.305 1001.62 315.421C1002.36 317.42 1003 319.463 1003.47 321.551C1003.93 323.639 1004.24 325.849 1004.48 328.02C1004.54 328.638 1004.6 329.262 1004.66 329.885C1004.69 330.242 1004.15 330.242 1004.12 329.885L1004.13 329.88Z" fill="#6AC4C5" stroke="#6AC4C5" stroke-width="0.5"/>
<path d="M958.132 296.586C957.853 301.624 957.695 306.669 957.723 311.713C957.75 316.757 957.946 321.378 958.285 326.2C958.487 329.106 958.743 332.012 959.032 334.913C959.065 335.269 958.519 335.269 958.487 334.913C957.99 329.891 957.597 324.864 957.379 319.819C957.16 314.775 957.128 310.154 957.242 305.321C957.313 302.404 957.433 299.492 957.597 296.58C957.619 296.224 958.165 296.224 958.143 296.58L958.132 296.586Z" fill="#6AC4C5" stroke="#6AC4C5" stroke-width="0.5"/>
<path d="M953.891 296.169C953.957 301.202 954.028 306.24 954.099 311.273C954.17 316.095 954.241 320.922 954.306 325.744C954.344 328.667 954.388 331.59 954.421 334.513C954.421 334.869 953.88 334.869 953.875 334.513C953.809 329.479 953.738 324.441 953.668 319.408C953.597 314.586 953.526 309.759 953.46 304.938C953.422 302.015 953.378 299.092 953.346 296.169C953.346 295.812 953.886 295.812 953.891 296.169Z" fill="#6AC4C5" stroke="#6AC4C5" stroke-width="0.5"/>
<path d="M910.178 336.361C911.182 331.172 912.164 325.971 913.043 320.76C913.922 315.549 914.62 310.733 915.209 305.694C915.564 302.671 915.864 299.642 916.121 296.608C916.148 296.252 916.699 296.252 916.667 296.608C916.219 301.881 915.63 307.142 914.893 312.381C914.178 317.431 913.332 322.458 912.41 327.475C911.859 330.492 911.28 333.504 910.702 336.511C910.636 336.862 910.107 336.711 910.178 336.361Z" fill="#6AC4C5" stroke="#6AC4C5" stroke-width="0.5"/>
<path d="M914.636 297.165C913.758 302.443 912.808 307.715 911.684 312.943C910.598 317.971 909.343 322.959 907.88 327.881C907.007 330.826 906.057 333.749 905.053 336.655C904.939 336.99 904.409 336.845 904.529 336.505C906.276 331.461 907.836 326.35 909.179 321.172C910.521 315.994 911.553 311.162 912.508 306.106C913.081 303.083 913.61 300.049 914.112 297.009C914.172 296.658 914.696 296.808 914.636 297.159V297.165Z" fill="#6AC4C5" stroke="#6AC4C5" stroke-width="0.5"/>
<path d="M1003.18 342.43C1003.42 340.492 1003.25 338.504 1003.05 336.578C1002.97 335.748 1002.87 334.913 1002.78 334.084C1002.72 333.583 1002.72 333.104 1002.47 332.653C1001.88 331.584 1000.67 330.893 999.635 330.359C998.385 329.719 997.048 329.234 995.689 328.878C995.155 328.739 994.609 328.611 994.063 328.538C993.736 328.494 993.31 328.444 993.043 328.516C992.617 328.627 992.131 328.833 991.853 329.195C991.509 329.635 991.487 330.248 991.455 330.782C991.378 332.091 991.345 333.404 991.351 334.718C991.367 337.341 991.542 339.969 991.886 342.569C991.929 342.881 991.973 343.198 992.017 343.51C992.066 343.844 992.055 344.094 992.437 344.128C992.677 344.15 992.917 344.15 993.152 344.161C993.768 344.189 994.385 344.211 995.002 344.233C996.503 344.284 998.009 344.311 999.515 344.278C1000.18 344.261 1000.84 344.233 1001.5 344.167C1001.91 344.122 1002.37 344.089 1002.76 343.916C1002.77 343.911 1002.84 343.872 1002.89 343.844C1002.89 343.844 1002.9 343.805 1002.89 343.855C1003 343.515 1003.53 343.66 1003.41 344.005C1003.3 344.35 1002.92 344.467 1002.61 344.551C1002.06 344.69 1001.5 344.735 1000.94 344.773C999.362 344.885 997.774 344.863 996.192 344.824C995.438 344.807 994.691 344.785 993.938 344.751C993.37 344.729 992.704 344.79 992.148 344.651C991.547 344.501 991.536 343.916 991.46 343.393C991.367 342.741 991.28 342.09 991.209 341.433C991.051 340.013 990.936 338.593 990.876 337.168C990.816 335.743 990.8 334.362 990.832 332.959C990.849 332.258 990.876 331.556 990.914 330.855C990.947 330.314 990.98 329.763 991.198 329.268C991.52 328.527 992.371 328.026 993.152 327.948C993.594 327.904 994.052 327.976 994.483 328.048C995.87 328.277 997.234 328.711 998.533 329.251C999.832 329.791 1001.21 330.459 1002.25 331.478C1002.65 331.873 1003.01 332.341 1003.18 332.887C1003.37 333.471 1003.35 334.162 1003.42 334.774C1003.66 336.829 1003.9 338.894 1003.85 340.965C1003.84 341.461 1003.81 341.956 1003.75 342.446C1003.71 342.797 1003.16 342.803 1003.2 342.446L1003.18 342.43Z" fill="#6AC4C5" stroke="#6AC4C5" stroke-width="0.5"/>
<path d="M956.375 341.794C956.184 346.666 956.014 351.538 955.872 356.415C955.731 361.292 955.605 366.113 955.501 370.968C955.441 373.719 955.392 376.469 955.349 379.214C955.343 379.57 954.797 379.57 954.803 379.214C954.879 374.337 954.977 369.465 955.097 364.588C955.218 359.711 955.359 354.889 955.523 350.034C955.616 347.284 955.714 344.539 955.823 341.789C955.84 341.432 956.385 341.432 956.369 341.789L956.375 341.794Z" fill="#6AC4C5" stroke="#6AC4C5" stroke-width="0.5"/>
<path d="M900.076 342.118C899.569 347.842 899.694 353.615 900.464 359.311C900.513 359.662 899.983 359.812 899.94 359.461C899.165 353.715 899.023 347.897 899.53 342.124C899.563 341.767 900.109 341.767 900.076 342.124V342.118Z" fill="#6AC4C5" stroke="#6AC4C5" stroke-width="0.5"/>
<path d="M1008.2 344.551C1009.41 349.117 1010.44 353.732 1011.26 358.387C1011.32 358.737 1010.8 358.888 1010.74 358.537C1009.91 353.882 1008.89 349.267 1007.67 344.701C1007.58 344.356 1008.11 344.206 1008.2 344.551Z" fill="#6AC4C5" stroke="#6AC4C5" stroke-width="0.5"/>
<path d="M1048.6 383.379C1043.87 383.451 1039.15 383.524 1034.42 383.596L1030.41 383.657C1030.07 383.657 1030.07 383.106 1030.41 383.101C1035.14 383.028 1039.87 382.956 1044.59 382.884L1048.6 382.822C1048.95 382.822 1048.95 383.373 1048.6 383.379Z" fill="#6AC4C5" stroke="#6AC4C5" stroke-width="0.5"/>
<path d="M981.419 383.752C973.926 383.796 966.427 383.785 958.934 383.713C951.441 383.64 943.948 383.518 936.455 383.329C932.231 383.223 928.007 383.1 923.789 382.961C923.439 382.95 923.439 382.393 923.789 382.404C931.282 382.655 938.769 382.844 946.268 382.978C953.761 383.112 961.254 383.189 968.752 383.212C972.976 383.223 977.2 383.212 981.424 383.189C981.773 383.189 981.773 383.746 981.424 383.746L981.419 383.752Z" fill="#6AC4C5" stroke="#6AC4C5" stroke-width="0.5"/>
<path d="M875.709 383.88C871.769 384.047 867.828 383.83 863.926 383.24C863.582 383.19 863.73 382.65 864.074 382.705C867.921 383.284 871.823 383.485 875.709 383.323C876.058 383.306 876.058 383.863 875.709 383.88Z" fill="#6AC4C5" stroke="#6AC4C5" stroke-width="0.5"/>
<path d="M1006.02 408.717C994.332 408.717 984.857 399.051 984.857 387.126C984.857 375.202 994.332 365.535 1006.02 365.535C1017.71 365.535 1027.18 375.202 1027.18 387.126C1027.18 399.051 1017.71 408.717 1006.02 408.717Z" fill="#9E9E9E"/>
<path d="M898.875 408.717C887.187 408.717 877.712 399.051 877.712 387.126C877.712 375.202 887.187 365.535 898.875 365.535C910.564 365.535 920.039 375.202 920.039 387.126C920.039 399.051 910.564 408.717 898.875 408.717Z" fill="#9E9E9E"/>
<path d="M1006.02 402.565C997.663 402.565 990.887 395.653 990.887 387.126C990.887 378.599 997.663 371.687 1006.02 371.687C1014.38 371.687 1021.15 378.599 1021.15 387.126C1021.15 395.653 1014.38 402.565 1006.02 402.565Z" fill="white"/>
<path d="M898.876 401.112C891.304 401.112 885.167 394.85 885.167 387.126C885.167 379.402 891.304 373.14 898.876 373.14C906.447 373.14 912.584 379.402 912.584 387.126C912.584 394.85 906.447 401.112 898.876 401.112Z" fill="white"/>
<path d="M1013.14 383.016C1015.46 387.121 1014.08 392.369 1010.06 394.739C1006.04 397.108 1000.89 395.702 998.568 391.598" stroke="#6DB4BA" stroke-width="0.5" stroke-linecap="round" stroke-linejoin="round"/>
<path d="M1011.46 397.216C1016.83 394.057 1018.66 387.059 1015.57 381.586C1012.47 376.114 1005.61 374.239 1000.25 377.398" stroke="#6DB4BA" stroke-width="0.5" stroke-linecap="round" stroke-linejoin="round"/>
<path d="M898.652 395.65C894.007 395.65 890.241 391.808 890.241 387.069C890.241 382.329 894.007 378.487 898.652 378.487" stroke="#6DB4BA" stroke-width="0.5" stroke-linecap="round" stroke-linejoin="round"/>
<path d="M887.437 387.068C887.437 393.387 892.458 398.51 898.652 398.51C904.846 398.51 909.868 393.387 909.868 387.068" stroke="#6DB4BA" stroke-width="0.5" stroke-linecap="round" stroke-linejoin="round"/>
<path d="M1028.8 377.11C1026.16 368.369 1017.01 361.922 1006.14 361.922C995.269 361.922 986.652 368.002 983.721 376.364" stroke="#6AC4C5" stroke-linecap="round" stroke-linejoin="round"/>
<path d="M921.66 377.11C919.013 368.369 909.867 361.922 898.996 361.922C888.124 361.922 879.507 368.002 876.577 376.364" stroke="#6AC4C5" stroke-linecap="round" stroke-linejoin="round"/>
</svg>
