<svg width="92" height="28" viewBox="0 0 92 28" fill="none" xmlns="http://www.w3.org/2000/svg">
<path d="M1.14204 9.76043C6.80617 12.1057 12.5086 14.4597 18.4839 15.8986C23.6969 17.153 29.1861 17.6839 34.5083 16.845C39.5311 16.0536 45.3609 14.082 47.9788 9.35684C49.1353 7.27038 49.3592 4.33977 47.3553 2.67763C46.2929 1.79735 44.8921 1.39776 43.5712 1.09364C42.4109 0.826451 41.2299 0.68953 40.0409 0.645093C35.4233 0.470876 30.4931 2.21882 28.1533 6.43826C26.9416 8.62404 26.6044 11.2771 27.0113 13.7259C27.4514 16.3751 28.678 18.73 30.4712 20.7151C34.2869 24.937 40.0365 26.6831 45.545 27.1538C50.6435 27.59 55.8522 27.341 60.9041 26.5452C65.7037 25.79 70.4408 24.5068 74.8829 22.5233C79.2943 20.5532 83.3879 17.9241 86.8697 14.5612C87.6982 13.76 88.487 12.9182 89.2348 12.041C90.0332 11.1033 88.5968 9.84007 87.7984 10.7778C84.8757 14.2066 81.3433 16.9793 77.3916 19.1585C73.4575 21.3278 69.135 22.8549 64.745 23.87C60.2908 24.9007 55.6887 25.3833 51.1148 25.4344C45.8908 25.493 40.4115 25.079 35.7658 22.4727C31.6724 20.1771 28.4899 16.0232 28.773 11.1579C28.9005 8.96299 29.7483 6.96051 31.3024 5.42722C32.6444 4.10283 34.583 3.22268 36.4504 2.83952C38.567 2.40444 40.6874 2.45751 42.7809 2.8816C43.839 3.09637 45.0425 3.35337 45.9344 3.99208C46.3657 4.30078 46.6583 4.69092 46.805 5.10385C46.9341 5.46565 46.9858 5.94298 46.9623 6.2746C46.892 7.3037 46.5342 8.17187 45.9487 9.03297C45.2932 9.99753 44.4473 10.8257 43.5079 11.5107C41.5414 12.9444 39.2297 13.8163 36.8881 14.4199C32.0776 15.6589 26.9856 15.5478 22.1196 14.7029C16.5301 13.7335 11.1797 11.7843 5.93621 9.66741C4.61489 9.13346 3.29743 8.58862 1.98053 8.04264C1.50375 7.84512 0.938067 7.99993 0.702427 8.48515C0.486842 8.92906 0.665849 9.56461 1.14493 9.76325L1.14204 9.76043Z" fill="#9E9E9E"/>
<path d="M87.8863 10.2931C86.4218 10.4481 84.9468 10.4873 83.4757 10.4108L83.7233 10.4233C81.8196 10.321 79.9267 10.0269 78.0824 9.53949C77.5532 9.40017 77.0284 9.24312 76.5086 9.0729L76.7519 9.15278C76.6981 9.13516 76.6443 9.11753 76.591 9.09875C76.3385 9.01441 76.1218 8.96444 75.8605 9.05586C75.639 9.13256 75.4073 9.32344 75.3129 9.54125C75.2185 9.75907 75.1755 10.0345 75.27 10.2718C75.3569 10.4898 75.5224 10.7416 75.7554 10.8194C78.8637 11.8596 82.0978 12.3869 85.3768 12.3547C86.2641 12.3462 87.1503 12.2932 88.0321 12.1997C88.5299 12.1466 88.9758 11.6955 88.9122 11.1727C88.8485 10.6499 88.4172 10.2362 87.8851 10.2926L87.8863 10.2931Z" fill="#9E9E9E"/>
<path d="M87.3887 11.7994C87.6616 14.098 88.1585 16.3764 88.8779 18.5758C89.0754 19.1821 89.2905 19.7813 89.5221 20.3757C89.7037 20.8424 90.2464 21.1612 90.7391 20.9668C91.2058 20.7823 91.5236 20.2477 91.3302 19.7497C90.9264 18.713 90.572 17.6563 90.2716 16.5847C90.1229 16.0532 89.9867 15.5192 89.8636 14.9817C89.8341 14.8526 89.8053 14.7223 89.7764 14.592C89.7625 14.5272 89.7486 14.4623 89.7353 14.3963C89.7956 14.6751 89.7408 14.4231 89.728 14.3559C89.6712 14.076 89.6189 13.7954 89.5695 13.5148C89.4614 12.8967 89.3704 12.2755 89.2964 11.6513C89.2371 11.1547 88.7968 10.7069 88.2694 10.7712C87.7722 10.8317 87.3255 11.2669 87.3893 11.7982L87.3887 11.7994Z" fill="#9E9E9E"/>
</svg>
