<svg width="50" height="50" viewBox="0 0 50 50" fill="none" xmlns="http://www.w3.org/2000/svg">
<path d="M7.59365 18.2028L34.9911 23.8502C35.539 23.9631 36.0749 23.6112 36.1876 23.0646C36.3003 22.518 35.9471 21.9829 35.3992 21.8699L8.00183 16.2225C7.45394 16.1096 6.91798 16.4615 6.80531 17.0081C6.69263 17.5547 7.04576 18.0898 7.59365 18.2028Z" fill="#434343"/>
<path d="M42.0043 26.2482L14.5873 31.7993C14.039 31.9103 13.684 32.4442 13.7947 32.9912C13.9055 33.5382 14.4402 33.892 14.9885 33.781L42.4056 28.2298C42.9539 28.1188 43.3089 27.5849 43.1981 27.0379C43.0873 26.4909 42.5526 26.1371 42.0043 26.2482Z" fill="#434343"/>
</svg>
