<svg width="314" height="244" viewBox="0 0 314 244" fill="none" xmlns="http://www.w3.org/2000/svg">
<path d="M117.562 73.8999C101.134 90.6878 96.3291 94.9957 95.638 104.922C94.9775 114.408 107.837 112.632 112.986 109.64C118.441 106.471 124.418 102.503 127.075 96.5076C127.798 94.8769 127.554 90.3123 128.677 89.4223" stroke="#6DB4BA" stroke-linecap="round"/>
<path d="M127.244 96.1433L131.353 94.6497" stroke="#6DB4BA" stroke-linecap="round"/>
<path d="M236.332 9.19438C231.157 11.7542 227.092 23.5882 222.686 27.8079C217.72 32.5632 213.051 37.569 207.971 42.1801C198.155 51.0895 167.771 55.8263 156.54 60.8787C140.762 66.6148 131.456 67.4942 119.714 73.2982" stroke="#6DB4BA" stroke-linecap="round"/>
<path d="M51.1497 116.055C64.1668 120.749 79.2083 113.606 91.2973 109.211" stroke="#6DB4BA" stroke-linecap="round"/>
<path d="M125.757 100.086C127.358 97.137 148.781 98.3533 154.461 98.6979C159.509 99.0041 163.931 99.1252 168.965 100.105C178.682 101.998 187.501 101.777 197.124 103.192C208.203 104.82 222.835 107.354 232.818 112.294C239.051 115.377 241.798 130.161 234.25 132.954" stroke="#6DB4BA" stroke-linecap="round"/>
<path d="M175.824 115.692C177.297 117.156 177.911 118.925 177.691 120.827" stroke="#6DB4BA" stroke-linecap="round"/>
<path d="M183.325 128.856C197.907 134.835 218.913 129.207 231.971 138.991C238.743 144.065 235.224 159.552 224.248 159.327" stroke="#6DB4BA" stroke-linecap="round"/>
<path d="M180.21 158.671C196.616 158.717 205.068 155.739 218.037 158.139C228.349 157.995 225.237 166.788 223.102 172.07C213.042 181.586 197.809 178.111 180.948 178.834" stroke="#6DB4BA" stroke-linecap="round"/>
<path d="M176.103 143.109C176.8 145.672 175.978 149.609 175.075 152.01" stroke="#6DB4BA" stroke-linecap="round"/>
<path d="M30.933 180.199C43.969 176.42 75.6556 174.304 92.2269 182.699C98.5224 187.621 105.705 190.651 110.867 190.815C115.388 190.959 119.641 190.917 124.173 191.641C129.91 192.557 135.34 189.053 141.415 190.023C147.022 190.919 151.102 188.712 156.881 188.556C162.289 188.411 165.807 191.169 171.712 189.667C176.54 188.439 186.367 192.244 191.882 191.723C199.831 190.971 211.77 188.051 211.517 178.684" stroke="#6DB4BA" stroke-linecap="round"/>
<path d="M215.008 90.2055C216.193 94.5631 214.142 101.691 210.308 103.93" stroke="#6DB4BA" stroke-linecap="round"/>
<path d="M235.143 114.668C240.493 112.723 244.649 105.649 246.036 100.329C246.294 99.3409 246.137 95.4848 246.597 95" stroke="#6DB4BA" stroke-linecap="round"/>
<path d="M240.032 78.0055C239.622 76.2115 244.358 69.402 245.634 67.829" stroke="#6DB4BA" stroke-linecap="round"/>
<path d="M235.924 75.2364C234.19 70.4694 242.403 83.3911 243.765 88.2769" stroke="#6DB4BA" stroke-linecap="round"/>
<path d="M247.406 95.0919C254.086 78.2676 268.909 71.3985 281.487 59.8329" stroke="#6DB4BA" stroke-linecap="round"/>
<path d="M142.942 97.848C148.939 95.6677 153.526 91.9446 156.575 86.3026" stroke="#6DB4BA" stroke-linecap="round"/>
<path d="M108.13 190.691C108.52 200.685 121.629 202.972 127.985 196.263" stroke="#6DB4BA" stroke-linecap="round"/>
<path d="M126.149 192.279C129.732 202.134 143.498 203.221 147.965 193.65" stroke="#6DB4BA" stroke-linecap="round"/>
<path d="M147.094 191.253C144.529 192.566 153.768 196.851 155.715 196.84C158.806 196.822 162.843 195.076 164.647 192.623" stroke="#6DB4BA" stroke-linecap="round"/>
<path d="M164.242 190.446C165.766 194.636 173.048 194.891 175.695 192.096" stroke="#6DB4BA" stroke-linecap="round"/>
</svg>
