<svg width="39" height="39" viewBox="0 0 39 39" fill="none" xmlns="http://www.w3.org/2000/svg">
<path d="M28.2 1.5H10.2C5.22939 1.5 1.19995 5.52944 1.19995 10.5V28.5C1.19995 33.4706 5.22939 37.5 10.2 37.5H28.2C33.1705 37.5 37.2 33.4706 37.2 28.5V10.5C37.2 5.52944 33.1705 1.5 28.2 1.5Z" stroke="#3366A2" stroke-width="2" stroke-linecap="round" stroke-linejoin="round"/>
<path d="M26.4 18.3661C26.6222 19.8641 26.3663 21.394 25.6688 22.7383C24.9713 24.0825 23.8677 25.1726 22.5149 25.8535C21.1622 26.5343 19.6292 26.7713 18.134 26.5307C16.6388 26.2901 15.2576 25.5842 14.1867 24.5133C13.1159 23.4425 12.4099 22.0612 12.1693 20.566C11.9287 19.0708 12.1657 17.5379 12.8466 16.1851C13.5275 14.8324 14.6175 13.7288 15.9618 13.0313C17.306 12.3338 18.836 12.0779 20.334 12.3001C21.8621 12.5266 23.2767 13.2387 24.3691 14.331C25.4614 15.4233 26.1734 16.838 26.4 18.3661Z" stroke="#3366A2" stroke-width="2" stroke-linecap="round" stroke-linejoin="round"/>
<path d="M29.1 9.6001H29.118" stroke="#3366A2" stroke-width="2" stroke-linecap="round" stroke-linejoin="round"/>
</svg>
