<svg width="20" height="20" viewBox="0 0 20 20" fill="none" xmlns="http://www.w3.org/2000/svg">
<path d="M17.6602 6.41406C17.2031 7.14453 16.6836 7.83984 16.25 8.38281C15.8164 7.83984 15.2969 7.14453 14.8398 6.41406C14.1445 5.30078 13.75 4.34375 13.75 3.75C13.75 2.37109 14.8711 1.25 16.25 1.25C17.6289 1.25 18.75 2.37109 18.75 3.75C18.75 4.34375 18.3555 5.30078 17.6602 6.41406ZM16.6953 9.80469C17.6914 8.63672 20 5.71094 20 3.75C20 1.67969 18.3203 0 16.25 0C14.1797 0 12.5 1.67969 12.5 3.75C12.5 5.26172 13.8672 7.33984 14.9492 8.75H13.125C11.3984 8.75 10 10.1484 10 11.875C10 13.6016 11.3984 15 13.125 15H16.875C17.9102 15 18.75 15.8398 18.75 16.875C18.75 17.9102 17.9102 18.75 16.875 18.75H6.48438C6.11719 19.2305 5.75781 19.6562 5.45312 20H16.875C18.6016 20 20 18.6016 20 16.875C20 15.1484 18.6016 13.75 16.875 13.75H13.125C12.0898 13.75 11.25 12.9102 11.25 11.875C11.25 10.8398 12.0898 10 13.125 10H16.1289C16.3281 10.043 16.5469 9.97656 16.6953 9.80469ZM5.16406 16.2969C4.70703 16.9922 4.18359 17.6445 3.75 18.1484C3.31641 17.6445 2.79297 16.9922 2.33594 16.2969C1.63672 15.2461 1.25 14.3359 1.25 13.75C1.25 12.3711 2.37109 11.25 3.75 11.25C5.12891 11.25 6.25 12.3711 6.25 13.75C6.25 14.3359 5.86328 15.2461 5.16406 16.2969ZM4.86719 18.7617C5.97266 17.4492 7.5 15.3438 7.5 13.75C7.5 11.6797 5.82031 10 3.75 10C1.67969 10 0 11.6797 0 13.75C0 15.7227 2.33594 18.4766 3.32031 19.5469C3.55469 19.8008 3.94531 19.8008 4.17578 19.5469C4.23828 19.4805 4.30469 19.4062 4.375 19.3281C4.44531 19.25 4.52344 19.1641 4.60156 19.0703C4.6875 18.9727 4.77344 18.8711 4.86328 18.7617H4.86719ZM17.1875 3.75C17.1875 3.50136 17.0887 3.2629 16.9129 3.08709C16.7371 2.91127 16.4986 2.8125 16.25 2.8125C16.0014 2.8125 15.7629 2.91127 15.5871 3.08709C15.4113 3.2629 15.3125 3.50136 15.3125 3.75C15.3125 3.99864 15.4113 4.2371 15.5871 4.41291C15.7629 4.58873 16.0014 4.6875 16.25 4.6875C16.4986 4.6875 16.7371 4.58873 16.9129 4.41291C17.0887 4.2371 17.1875 3.99864 17.1875 3.75ZM3.75 14.6875C3.99864 14.6875 4.2371 14.5887 4.41291 14.4129C4.58873 14.2371 4.6875 13.9986 4.6875 13.75C4.6875 13.5014 4.58873 13.2629 4.41291 13.0871C4.2371 12.9113 3.99864 12.8125 3.75 12.8125C3.50136 12.8125 3.2629 12.9113 3.08709 13.0871C2.91127 13.2629 2.8125 13.5014 2.8125 13.75C2.8125 13.9986 2.91127 14.2371 3.08709 14.4129C3.2629 14.5887 3.50136 14.6875 3.75 14.6875Z" fill="white"/>
</svg>
