<svg width="200" height="35" viewBox="0 0 200 35" fill="none" xmlns="http://www.w3.org/2000/svg">
<path d="M38.5883 13.2363C38.5883 20.2392 31.8552 25.9203 23.5506 25.9203C15.2459 25.9203 8.51284 20.2392 8.51284 13.2363C8.51284 6.23348 15.2448 0.552359 23.5506 0.552359C31.8563 0.552359 38.5883 6.23126 38.5883 13.2363Z" fill="#004098"/>
<path d="M33.8648 3.9411C31.0251 1.79545 27.2668 0.367419 22.7421 0.509724C15.3362 0.741731 8.48792 6.18863 8.48792 13.1533C8.48792 17.4966 10.982 21.3211 14.7791 23.5897L14.9308 23.644C14.9308 23.644 14.8705 23.5044 14.7686 23.4164C11.806 21.5149 9.88504 18.4761 9.55113 14.7795C9.0151 8.92564 14.804 3.99481 22.2099 3.90732C23.2543 3.8813 23.9637 3.94276 24.0949 3.94276C24.6575 3.94276 24.5661 4.52527 24.5661 4.52527C24.5661 4.52527 19.7917 13.4035 19.6034 13.8914C19.4162 14.377 19.6981 14.5735 19.6981 14.5735L32.2882 22.6417C32.2904 22.6367 32.2965 22.6367 32.2987 22.6323L23.5367 13.3066L33.8636 3.94054L33.8648 3.9411Z" fill="#EA5504"/>
<path d="M16.833 28.7475H15.0781V34.4575H16.833V28.7475Z" fill="#004098"/>
<path d="M18.363 30.3251H21.258C20.8505 28.6102 18.7357 28.6174 18.2844 28.6174H15.0931L15.0909 30.3251H18.363Z" fill="#004098"/>
<path d="M17.0014 31.7127V31.6844H15.0937V34.3678H16.6686V33.1529H18.2745C18.2745 33.1529 19.7286 33.288 20.3112 31.7299L17.0014 31.7132V31.7127Z" fill="#004098"/>
<path d="M20.428 31.7105H15.9387V33.1573H20.428V31.7105Z" fill="#004098"/>
<path d="M22.2481 34.4525H20.4069L18.6294 31.7293H20.4734L22.2481 34.4525Z" fill="#004098"/>
<path d="M2.96645 28.6434C1.32956 28.6434 0 30.1141 0 31.7171C0 33.3201 1.32956 34.4569 2.96645 34.4569H7.78576V32.8705H2.96645C2.28202 32.8705 1.72992 32.3517 1.72992 31.7171C1.72992 31.0826 2.28202 30.396 2.96645 30.396H6.9651V28.6434H2.96645Z" fill="#004098"/>
<path d="M8.10805 34.4575H6.20258L10.1647 28.5842H12.069L8.10805 34.4575Z" fill="#004098"/>
<path d="M14.135 34.4575H16.0427L12.0795 28.5842H10.174L14.135 34.4575Z" fill="#004098"/>
<path d="M24.1026 33.2238L24.1049 34.4575H22.1922V31.7365H25.4699C25.4699 31.7365 26.4256 31.7531 26.4256 30.9929C26.4256 30.9929 26.4195 30.3533 25.4627 30.3533H22.1922V28.6246H25.3868C25.8852 28.6246 28.4252 28.6102 28.4252 30.9785C28.4252 33.3467 25.3757 33.226 25.3757 33.226L24.1015 33.2238H24.1026Z" fill="#EA5504"/>
<path d="M30.2831 33.0128V28.6224H28.4319V34.4575H33.6588V33.0128H30.2831Z" fill="#EA5504"/>
<path d="M40.1327 32.6955V28.6296H38.282V32.6955C38.282 32.6955 38.2593 33.3893 36.8766 33.3893C35.4939 33.3893 35.413 32.6955 35.413 32.6955V28.6296H33.5635V32.6955C33.5635 32.6955 33.5181 34.633 36.8484 34.633C40.1786 34.633 40.1332 32.6955 40.1332 32.6955H40.1327Z" fill="#EA5504"/>
<path d="M40.3592 32.8185C40.9999 33.0267 41.9318 33.2354 42.9253 33.2354C43.484 33.2354 44.3379 33.3207 44.3689 32.7498C44.427 31.7315 40.1332 32.4491 40.1332 30.2703C40.1332 28.8804 41.9324 28.319 43.515 28.319C44.4553 28.319 45.4077 28.4325 46.2838 28.6955L46.286 30.1972C45.7056 29.927 44.5428 29.6147 43.8594 29.6147C43.2686 29.6147 42.109 29.7498 42.104 30.2232C42.0913 31.1706 46.5662 30.5809 46.6216 32.6058C46.6631 34.2066 44.8645 34.6114 43.0737 34.6114C41.9158 34.6114 41.1256 34.5283 40.3608 34.3556C40.3586 33.2122 40.3586 32.819 40.3586 32.819L40.3592 32.8185Z" fill="#EA5504"/>
<path d="M9.25321 34.4193L11.1216 31.7149L12.9938 34.4193H9.25321Z" fill="#EA5504"/>
<path d="M105.458 27.3195V4.85528H109.551V12.9285H123.85V16.3222H109.551V27.3201H126.185V30.7088H95.4913V27.3201H105.458V27.3195Z" fill="#004098"/>
<path d="M144.392 26.9031V21.3687C144.392 21.3687 143.556 21.7879 141.403 22.9817C141.106 22.5509 140.303 21.428 139.68 20.6467V30.6147H135.592V21.8854C135.02 22.7735 133.753 24.5094 133.753 24.5094L130.162 22.7098C132.408 20.1899 134.011 17.7602 134.974 15.4229H130.985V12.1571H135.592V9.33871C134.216 9.45499 133.039 9.54691 132.051 9.61336L131.224 6.38575C135.878 6.12993 139.68 5.67533 142.638 5.00977L143.532 8.2047C142.704 8.38688 141.425 8.60504 139.68 8.85587V12.1571H143.256V15.4229H139.68V15.4916C141.354 17.1422 142.927 18.8831 144.392 20.7137V7.10226C144.412 6.3708 144.882 6.0059 145.799 6.0059H156.031C160.53 6.0059 161.128 9.17924 161.128 9.93673V26.9026H162.503V30.1634H142.121V26.9026H144.391L144.392 26.9031ZM148.48 26.9031H157.04V23.3294H148.48V26.9031ZM148.48 20.0614H157.04V16.3172H148.48V20.0614ZM148.48 13.0159H157.04V9.27393L149.065 9.26673C148.674 9.29276 148.48 9.44171 148.48 9.71635V13.0154L148.48 13.0159Z" fill="#004098"/>
<path fill-rule="evenodd" clip-rule="evenodd" d="M83.5513 14.8892C85.6389 12.6726 88.0146 8.53305 87.0721 6.51531C86.3959 5.06347 84.8637 4.68252 83.6582 4.68252H74.8535C74.8089 4.78782 74.761 4.94008 74.7009 5.13126C74.3411 6.2757 73.5429 8.81456 70.3853 11.0202V10.0846H67.0007V5.11387H63.0503V10.0846H58.1313V13.3476H62.5325C61.7074 15.7275 60.1818 18.2879 57.9602 21.011H57.9613L61.7838 22.536C61.7838 22.536 62.6554 21.2264 63.0508 20.5658V30.6352H67.0013V18.2995C67.5085 18.9174 67.9997 19.5454 68.4815 20.1893L69.6563 19.2232C70.0738 19.7921 70.6643 20.5966 71.2347 21.3732C71.587 21.2886 71.9344 21.1963 72.2758 21.0977V30.706H76.4145L76.419 29.7448H84.7474L84.7269 30.706H88.7948V23.7696C88.7948 21.4723 87.9542 20.1013 84.1898 20.1013H75.1124C78.2334 18.8151 80.3755 17.3189 80.3755 17.3189C84.094 19.4761 90.1022 20.8383 90.1022 20.8383L91.7153 17.6107C88.0151 17.1705 83.5519 14.8897 83.5519 14.8897L83.5513 14.8892ZM70.3853 13.3476V12.4853C70.7393 12.8694 71.2187 13.3893 71.8494 14.0724C72.6047 13.6533 73.0832 13.383 74.6154 12.0026C75.2666 12.7651 76.4389 14.0674 77.3642 14.9462C75.2302 16.3122 72.9667 17.2274 71.3466 17.7778L71.2641 17.7148C69.965 16.1754 68.5108 14.7568 67.0007 13.3831V13.3476H70.3853ZM80.2642 12.6538C79.4735 11.929 78.3338 10.8016 77.0862 9.32154C77.2685 9.07891 77.3669 8.82716 77.4689 8.56629L77.4689 8.56626C77.555 8.34611 77.6436 8.11946 77.7873 7.88631H83.162C82.6553 9.75732 81.5966 11.6964 80.2642 12.6532V12.6538ZM76.419 26.479H84.707L84.7064 26.4784V23.49L77.0037 23.4878C76.5906 23.4878 76.3985 23.6373 76.419 23.9358V26.479Z" fill="#004098"/>
<path d="M182.43 27.7342H168.895V24.3455H182.43V23.0736H171.346C170.956 23.0736 170.759 22.8987 170.759 22.5432V10.9628C170.781 10.6549 170.979 10.501 171.346 10.501H182.43V9.33816H169.722V5.94942H182.43V4.53579H186.675V5.94942H199.173V9.33816H186.675V10.501H194.423C194.423 10.501 196.209 10.5082 197.136 11.1854C198.493 12.1704 198.483 13.5536 198.483 13.5536V22.5432C198.483 22.8987 198.275 23.0736 197.862 23.0736H186.674V24.3455H200V27.7342H186.674V30.5593H182.429V27.7342H182.43ZM182.43 19.6849V18.1998H174.867V19.5071C174.893 19.6229 174.951 19.6849 175.042 19.6849H182.43ZM186.675 18.1998V19.6849H194.167C194.305 19.6849 194.372 19.6234 194.372 19.5071V18.1998H186.675ZM182.43 15.2679V13.8565H175.042C174.922 13.8825 174.867 13.9274 174.867 13.9982V15.2679H182.43ZM186.675 13.8565V15.2679H194.372V13.9982C194.372 13.9035 194.305 13.8565 194.167 13.8565H186.675Z" fill="#004098"/>
</svg>
