<svg width="18" height="22" viewBox="0 0 18 22" fill="none" xmlns="http://www.w3.org/2000/svg">
<path d="M15.25 1.625C16.2852 1.625 17.125 2.46484 17.125 3.5V18.5C17.125 19.5352 16.2852 20.375 15.25 20.375H2.75C1.71484 20.375 0.875 19.5352 0.875 18.5V3.5C0.875 2.46484 1.71484 1.625 2.75 1.625H15.25ZM2.75 1C1.37109 1 0.25 2.12109 0.25 3.5V18.5C0.25 19.8789 1.37109 21 2.75 21H15.25C16.6289 21 17.75 19.8789 17.75 18.5V3.5C17.75 2.12109 16.6289 1 15.25 1H2.75ZM7.75 6C7.75 6.17188 7.89062 6.3125 8.0625 6.3125H14.9375C15.1094 6.3125 15.25 6.17188 15.25 6C15.25 5.82812 15.1094 5.6875 14.9375 5.6875H8.0625C7.89062 5.6875 7.75 5.82812 7.75 6ZM7.75 11C7.75 11.1719 7.89062 11.3125 8.0625 11.3125H14.9375C15.1094 11.3125 15.25 11.1719 15.25 11C15.25 10.8281 15.1094 10.6875 14.9375 10.6875H8.0625C7.89062 10.6875 7.75 10.8281 7.75 11ZM7.75 16C7.75 16.1719 7.89062 16.3125 8.0625 16.3125H14.9375C15.1094 16.3125 15.25 16.1719 15.25 16C15.25 15.8281 15.1094 15.6875 14.9375 15.6875H8.0625C7.89062 15.6875 7.75 15.8281 7.75 16ZM5.5625 15.6875C5.5625 14.9961 5.00391 14.4375 4.3125 14.4375H3.6875C2.99609 14.4375 2.4375 14.9961 2.4375 15.6875V16.3125C2.4375 17.0039 2.99609 17.5625 3.6875 17.5625H4.3125C5.00391 17.5625 5.5625 17.0039 5.5625 16.3125V15.6875ZM3.0625 15.6875C3.0625 15.3438 3.34375 15.0625 3.6875 15.0625H4.3125C4.65625 15.0625 4.9375 15.3438 4.9375 15.6875V16.3125C4.9375 16.6562 4.65625 16.9375 4.3125 16.9375H3.6875C3.34375 16.9375 3.0625 16.6562 3.0625 16.3125V15.6875ZM3.6875 4.4375C2.99609 4.4375 2.4375 4.99609 2.4375 5.6875V6.3125C2.4375 7.00391 2.99609 7.5625 3.6875 7.5625H4.3125C5.00391 7.5625 5.5625 7.00391 5.5625 6.3125V5.6875C5.5625 4.99609 5.00391 4.4375 4.3125 4.4375H3.6875ZM3.6875 5.0625H4.3125C4.65625 5.0625 4.9375 5.34375 4.9375 5.6875V6.3125C4.9375 6.65625 4.65625 6.9375 4.3125 6.9375H3.6875C3.34375 6.9375 3.0625 6.65625 3.0625 6.3125V5.6875C3.0625 5.34375 3.34375 5.0625 3.6875 5.0625ZM6.41016 9.97266C6.53125 9.85156 6.53125 9.65234 6.41016 9.53125C6.28906 9.41016 6.08984 9.41016 5.96875 9.53125L4 11.4961L2.97266 10.4648C2.85156 10.3438 2.65234 10.3438 2.53125 10.4648C2.41016 10.5859 2.41016 10.7852 2.53125 10.9062L3.78125 12.1562C3.90234 12.2773 4.10156 12.2773 4.22266 12.1562L6.41016 9.96875V9.97266Z" fill="white" stroke="white" stroke-width="0.5"/>
</svg>
