<svg width="369" height="289" viewBox="0 0 369 289" fill="none" xmlns="http://www.w3.org/2000/svg">
<path d="M32.0388 149.128C32.0388 144.465 35.4356 134.489 31.6655 130.091C24.0563 121.213 20.4382 105.061 19.3267 93.9455C18.0981 81.6592 31.6654 85.395 33.7392 92.6805C41.2996 104.099 45.0418 112.647 49.5827 120.593C51.9384 124.716 55.8289 127.083 59.0805 130.423C65.7936 137.317 69.879 147.211 77.1843 153.421C84.9756 160.043 90.55 184.309 86.5369 193.589C77.529 214.42 72.3203 248.315 72.3203 271.063" stroke="#6DB4BA" stroke-linecap="round"/>
<path d="M33.5319 134.944C35.3582 136.999 36.935 144.999 37.2646 147.635" stroke="#6DB4BA" stroke-linecap="round"/>
<path d="M23.7231 114.591C18.9464 133.294 18.7956 143.075 23.7231 155.64C28.7598 168.484 28.8423 182.676 35.025 195.041" stroke="#6DB4BA" stroke-linecap="round"/>
<path d="M37.6378 186.829C35.7687 187.063 31.6678 217.909 31.1677 220.134C28.0709 233.907 20.5765 246.534 18.6008 260.364" stroke="#6DB4BA" stroke-linecap="round"/>
<path d="M117.438 262.704C112.841 262.129 109.162 258.117 104.746 263.637C97.8742 272.227 88.8916 252.331 94.8754 254.326C105.684 257.928 92.2602 264.969 84.7969 261.77C80.9572 260.125 78.0442 259.717 73.6194 259.717C63.7721 259.717 55.8959 255.985 45.769 255.985C26.6554 255.985 2.12821 269.297 2.12821 276.139C2.12821 282.982 -0.0614925 282.891 2.12821 288" stroke="#6DB4BA" stroke-linecap="round"/>
<path d="M149.753 77.8294C145.117 80.7544 90.019 101.97 99.9151 110.982C105.006 115.617 118.044 110.123 123.09 108.104C134.312 103.615 146.777 105.833 158.857 101.762" stroke="#6DB4BA" stroke-linecap="round"/>
<path d="M148.908 104.595C150.721 109.976 160.33 114.218 164.975 116.835" stroke="#6DB4BA" stroke-linecap="round"/>
<path d="M111.096 69.428C137.116 68.7366 173.286 70.3896 197.764 82.5272" stroke="#6DB4BA" stroke-linecap="round"/>
<path d="M150.137 146.759C156.677 145.429 178.407 148.263 185.423 145.899" stroke="#6DB4BA" stroke-linecap="round"/>
<path d="M197.38 82.029C207.032 78.7761 200.172 94.9332 201.49 98.8461C202.441 101.666 210.557 106.276 208.917 109.584C205.926 115.616 200.885 122.457 200.632 129.511C200.454 134.501 190.846 161.242 186.082 147.107" stroke="#6DB4BA" stroke-linecap="round"/>
<path d="M182.346 146.808C185.956 146.518 184.57 156.271 191.132 155.587C202.289 154.426 222.551 154.719 232.131 160.146C258.342 174.994 292.58 184.798 322.081 190.466C328.097 191.622 334.756 191.555 340.664 192.107C343.983 192.417 327.602 197.435 325.565 198.234C322.508 199.434 321.802 201.444 322.645 204.122C324.025 208.505 309.725 206.371 307.299 205.919C291.947 203.062 289.624 208.985 280.61 218.058" stroke="#6DB4BA" stroke-linecap="round"/>
<path d="M196.6 81.2529C215.998 72.2216 245.095 81.5949 267.047 79.8956C279.579 78.9255 291.53 78.773 304.007 78.8049C307.61 78.8141 313.273 76.7204 316.72 77.9242C318.787 78.6461 323.064 77.5404 324.651 79.1168" stroke="#6DB4BA" stroke-linecap="round"/>
<path d="M320.764 79.9082C325.777 80.4862 332.822 86.3447 335.27 90.5965" stroke="#6DB4BA" stroke-linecap="round"/>
<path d="M333.506 168.558C330.267 168.973 321.94 162.779 319.08 161.361C306.362 155.055 295.22 147.945 284.789 138.273C281.286 135.026 283.4 136.955 285.723 138.564C293.935 144.25 304.353 147.072 313.53 150.885" stroke="#6DB4BA" stroke-linecap="round"/>
<path d="M5.71692 32.4766C7.08548 26.0899 12.2572 22.7351 12.4989 22.6143C20.9461 18.3907 62.3141 2.02424 68.0682 5.86031" stroke="#6DB4BA" stroke-linecap="round"/>
<path d="M68.7812 6.57312L76.9008 16.9899C76.9008 16.9899 82.1424 26.5315 84.9015 31.2486C91.9189 43.2461 119.043 88.5606 119.043 88.5606" stroke="#6DB4BA" stroke-linecap="round"/>
<path d="M131.687 107.291C131.687 115.477 161.222 141.385 148.527 148.517C129.498 159.209 108.871 165.189 87.8307 171.158" stroke="#6DB4BA" stroke-linecap="round"/>
<path d="M6.04297 34.3774C7.16838 44.5062 14.2798 54.568 18.0339 63.9535C20.5975 70.3623 25.6507 78.5835 28.5004 84.2829" stroke="#6DB4BA" stroke-linecap="round"/>
<path d="M116.571 79.0077C110.153 71.7879 76.8822 1 64.5652 1C51.4117 2.81427 33.0786 11.3974 20.5789 15.564C6.62578 20.2151 -4.4719 29.9498 3.88435 45.2696C10.7793 57.9104 16.2713 70.9209 22.5959 83.57" stroke="#6DB4BA" stroke-linecap="round"/>
<path d="M86.9183 166.14C95.3013 166.14 124.034 156.111 124.034 156.111C124.034 156.111 138.468 150.629 145.767 145.155" stroke="#6DB4BA" stroke-linecap="round"/>
<path d="M131.065 114.147C136.526 122.195 143.956 130.275 146.98 139.346" stroke="#6DB4BA" stroke-linecap="round"/>
</svg>
